Grandstander-Light.ufo
<glyph name="exclam" format="2">
  <advance width="708.0"/>
  <unicode hex="0021"/>
  <outline>
    <contour>
      <point x="363.25" y="373.0" type="curve"/>
      <point x="366.0" y="648.0"/>
      <point x="391.0" y="1277.25"/>
      <point x="415.25" y="1463.75" type="curve"/>
      <point x="239.0" y="1472.25" type="line"/>
      <point x="222.5" y="1270.5"/>
      <point x="220.25" y="699.5"/>
      <point x="227.0" y="380.25" type="curve"/>
      <point x="253.5" y="376.25"/>
      <point x="335.5" y="373.0"/>
    </contour>
    <contour>
      <point x="303.5" y="-26.75" type="curve" smooth="yes"/>
      <point x="384.5" y="-26.75"/>
      <point x="447.5" y="28.0"/>
      <point x="447.5" y="109.75" type="curve" smooth="yes"/>
      <point x="447.5" y="187.5"/>
      <point x="382.25" y="243.25"/>
      <point x="301.0" y="243.25" type="curve" smooth="yes"/>
      <point x="225.25" y="243.25"/>
      <point x="152.0" y="196.0"/>
      <point x="152.0" y="113.0" type="curve" smooth="yes"/>
      <point x="152.0" y="32.25"/>
      <point x="209.75" y="-26.75"/>
    </contour>
  </outline>
</glyph>
<glyph name="quotedbl" format="2">
  <advance width="764.0"/>
  <unicode hex="0022"/>
  <outline>
    <contour>
      <point x="288.25" y="1042.25" type="curve"/>
      <point x="301.25" y="1125.5"/>
      <point x="307.75" y="1272.0"/>
      <point x="307.75" y="1403.75" type="curve" smooth="yes"/>
      <point x="307.75" y="1427.25"/>
      <point x="307.25" y="1446.25"/>
      <point x="306.25" y="1459.0" type="curve"/>
      <point x="292.0" y="1461.0"/>
      <point x="276.75" y="1461.5"/>
      <point x="261.25" y="1461.5" type="curve" smooth="yes"/>
      <point x="223.75" y="1461.5"/>
      <point x="194.0" y="1455.5"/>
      <point x="168.25" y="1448.0" type="curve"/>
      <point x="168.25" y="1373.25"/>
      <point x="188.0" y="1143.0"/>
      <point x="203.25" y="1049.25" type="curve"/>
      <point x="226.5" y="1045.25"/>
      <point x="257.0" y="1042.25"/>
    </contour>
    <contour>
      <point x="430.75" y="1047.75" type="curve"/>
      <point x="448.25" y="1047.0"/>
      <point x="481.25" y="1047.5"/>
      <point x="521.5" y="1051.25" type="curve"/>
      <point x="540.75" y="1163.5"/>
      <point x="559.5" y="1332.75"/>
      <point x="559.5" y="1417.0" type="curve" smooth="yes"/>
      <point x="559.5" y="1432.0"/>
      <point x="559.25" y="1445.0"/>
      <point x="558.25" y="1453.25" type="curve"/>
      <point x="522.5" y="1456.25"/>
      <point x="465.75" y="1454.5"/>
      <point x="428.75" y="1453.0" type="curve"/>
      <point x="425.5" y="1411.0"/>
      <point x="424.0" y="1303.0"/>
      <point x="424.0" y="1218.25" type="curve" smooth="yes"/>
      <point x="424.0" y="1165.75"/>
      <point x="427.5" y="1085.25"/>
    </contour>
  </outline>
</glyph>
<glyph name="numbersign" format="2">
  <advance width="1511.0"/>
  <unicode hex="0023"/>
  <outline>
    <contour>
      <point x="60.5" y="872.5" type="curve"/>
      <point x="247.0" y="874.0"/>
      <point x="496.75" y="883.75"/>
      <point x="752.25" y="895.25" type="curve" smooth="yes"/>
      <point x="991.75" y="906.25"/>
      <point x="1241.5" y="916.5"/>
      <point x="1455.0" y="919.0" type="curve"/>
      <point x="1462.5" y="952.25"/>
      <point x="1467.5" y="1036.25"/>
      <point x="1467.5" y="1072.5" type="curve"/>
      <point x="1240.0" y="1071.25"/>
      <point x="998.25" y="1056.75"/>
      <point x="755.0" y="1041.5" type="curve" smooth="yes"/>
      <point x="526.5" y="1027.0"/>
      <point x="281.0" y="1011.5"/>
      <point x="69.0" y="1009.25" type="curve"/>
      <point x="65.5" y="988.75"/>
      <point x="60.5" y="912.75"/>
    </contour>
    <contour>
      <point x="1412.0" y="443.25" type="curve"/>
      <point x="1419.0" y="468.25"/>
      <point x="1430.0" y="553.75"/>
      <point x="1430.0" y="599.75" type="curve"/>
      <point x="1265.75" y="603.5"/>
      <point x="1097.25" y="606.5"/>
      <point x="927.75" y="608.75" type="curve" smooth="yes"/>
      <point x="771.0" y="611.0"/>
      <point x="613.25" y="612.0"/>
      <point x="456.5" y="610.75" type="curve" smooth="yes"/>
      <point x="313.5" y="609.25"/>
      <point x="172.25" y="606.75"/>
      <point x="34.5" y="601.25" type="curve"/>
      <point x="29.5" y="572.0"/>
      <point x="23.0" y="499.25"/>
      <point x="23.0" y="466.5" type="curve"/>
      <point x="97.5" y="470.0"/>
      <point x="180.5" y="471.5"/>
      <point x="270.25" y="471.5" type="curve" smooth="yes"/>
      <point x="434.5" y="471.5"/>
      <point x="620.75" y="470.75"/>
      <point x="807.75" y="463.25" type="curve" smooth="yes"/>
      <point x="1016.75" y="455.0"/>
      <point x="1226.5" y="446.5"/>
    </contour>
    <contour>
      <point x="423.25" y="1.5" type="curve"/>
      <point x="462.0" y="1.5"/>
      <point x="550.25" y="7.5"/>
      <point x="581.25" y="13.5" type="curve"/>
      <point x="581.25" y="479.75"/>
      <point x="591.5" y="1112.0"/>
      <point x="610.75" y="1476.5" type="curve"/>
      <point x="563.0" y="1476.5"/>
      <point x="501.0" y="1475.0"/>
      <point x="470.75" y="1468.75" type="curve"/>
      <point x="437.75" y="1041.25"/>
      <point x="423.25" y="414.5"/>
    </contour>
    <contour>
      <point x="954.0" y="75.75" type="curve"/>
      <point x="991.75" y="75.75"/>
      <point x="1079.5" y="88.75"/>
      <point x="1109.25" y="94.25" type="curve"/>
      <point x="1085.75" y="378.25"/>
      <point x="1075.0" y="717.75"/>
      <point x="1075.0" y="1022.5" type="curve" smooth="yes"/>
      <point x="1075.0" y="1192.0"/>
      <point x="1077.25" y="1351.25"/>
      <point x="1082.75" y="1483.5" type="curve"/>
      <point x="1041.75" y="1483.5"/>
      <point x="969.75" y="1478.25"/>
      <point x="940.75" y="1473.25" type="curve"/>
      <point x="929.75" y="1290.25"/>
      <point x="924.5" y="1090.0"/>
      <point x="924.5" y="883.25" type="curve" smooth="yes"/>
      <point x="924.5" y="617.25"/>
      <point x="933.25" y="338.0"/>
    </contour>
  </outline>
</glyph>
<glyph name="dollar" format="2">
  <advance width="1027.0"/>
  <unicode hex="0024"/>
  <anchor x="512.0" y="90.0" name="bottom"/>
  <anchor x="527.0" y="1253.25" name="top"/>
  <outline>
    <contour>
      <point x="564.5" y="-82.0" type="line"/>
      <point x="566.75" y="-27.25"/>
      <point x="573.5" y="91.75"/>
      <point x="577.5" y="135.75" type="curve"/>
      <point x="439.0" y="144.25" type="line"/>
      <point x="432.75" y="110.25"/>
      <point x="414.5" y="-47.25"/>
      <point x="413.0" y="-76.75" type="curve"/>
    </contour>
    <contour>
      <point x="455.25" y="1216.0" type="curve"/>
      <point x="586.75" y="1216.5" type="line"/>
      <point x="589.0" y="1257.5"/>
      <point x="589.75" y="1365.0"/>
      <point x="589.25" y="1413.0" type="curve"/>
      <point x="462.0" y="1408.25" type="line"/>
      <point x="461.0" y="1374.0"/>
      <point x="457.25" y="1249.0"/>
    </contour>
    <component base="s" xOffset="12.5" yOffset="152.5"/>
  </outline>
</glyph>
<glyph name="percent" format="2">
  <advance width="1385.0"/>
  <unicode hex="0025"/>
  <outline>
    <contour>
      <point x="190.0" y="-15.75" type="curve"/>
      <point x="380.25" y="200.5"/>
      <point x="1019.25" y="1075.25"/>
      <point x="1189.25" y="1348.0" type="curve"/>
      <point x="1168.0" y="1373.75"/>
      <point x="1125.75" y="1408.75"/>
      <point x="1090.75" y="1423.75" type="curve"/>
      <point x="913.5" y="1125.25"/>
      <point x="370.25" y="388.0"/>
      <point x="100.5" y="48.75" type="curve"/>
      <point x="121.5" y="29.75"/>
      <point x="166.75" y="-0.75"/>
    </contour>
    <contour>
      <point x="982.5" y="220.25" type="curve" smooth="yes"/>
      <point x="882.75" y="220.25"/>
      <point x="836.5" y="286.5"/>
      <point x="836.5" y="379.0" type="curve" smooth="yes"/>
      <point x="836.5" y="457.0"/>
      <point x="900.25" y="518.75"/>
      <point x="976.5" y="518.75" type="curve" smooth="yes"/>
      <point x="1066.5" y="518.75"/>
      <point x="1122.0" y="464.25"/>
      <point x="1122.0" y="375.5" type="curve" smooth="yes"/>
      <point x="1122.0" y="272.75"/>
      <point x="1067.75" y="220.25"/>
    </contour>
    <contour>
      <point x="979.0" y="124.0" type="curve" smooth="yes"/>
      <point x="1115.0" y="124.0"/>
      <point x="1226.25" y="215.0"/>
      <point x="1226.25" y="368.75" type="curve" smooth="yes"/>
      <point x="1226.25" y="510.5"/>
      <point x="1141.75" y="619.5"/>
      <point x="979.5" y="619.5" type="curve" smooth="yes"/>
      <point x="844.5" y="619.5"/>
      <point x="733.5" y="508.5"/>
      <point x="733.5" y="365.75" type="curve" smooth="yes"/>
      <point x="733.5" y="207.25"/>
      <point x="832.25" y="124.0"/>
    </contour>
    <contour>
      <point x="380.5" y="797.25" type="curve" smooth="yes"/>
      <point x="508.0" y="797.25"/>
      <point x="634.75" y="879.75"/>
      <point x="634.75" y="1041.0" type="curve" smooth="yes"/>
      <point x="634.75" y="1189.5"/>
      <point x="542.0" y="1281.5"/>
      <point x="395.25" y="1281.5" type="curve" smooth="yes"/>
      <point x="255.5" y="1281.5"/>
      <point x="136.5" y="1193.0"/>
      <point x="136.5" y="1038.25" type="curve" smooth="yes"/>
      <point x="136.5" y="899.75"/>
      <point x="233.0" y="797.25"/>
    </contour>
    <contour>
      <point x="390.0" y="902.75" type="curve" smooth="yes"/>
      <point x="297.5" y="902.75"/>
      <point x="246.5" y="952.5"/>
      <point x="246.5" y="1048.25" type="curve" smooth="yes"/>
      <point x="246.5" y="1138.25"/>
      <point x="313.5" y="1186.75"/>
      <point x="400.75" y="1186.75" type="curve" smooth="yes"/>
      <point x="474.5" y="1186.75"/>
      <point x="526.75" y="1130.5"/>
      <point x="526.75" y="1040.0" type="curve" smooth="yes"/>
      <point x="526.75" y="950.5"/>
      <point x="470.75" y="902.75"/>
    </contour>
  </outline>
</glyph>
<glyph name="ampersand" format="2">
  <advance width="1395.0"/>
  <unicode hex="0026"/>
  <outline>
    <contour>
      <point x="529.75" y="-97.5" type="curve" smooth="yes"/>
      <point x="821.75" y="-97.5"/>
      <point x="987.25" y="83.75"/>
      <point x="1026.5" y="133.75" type="curve"/>
      <point x="1059.75" y="93.0"/>
      <point x="1142.75" y="-7.25"/>
      <point x="1184.0" y="-54.0" type="curve"/>
      <point x="1211.5" y="-38.0"/>
      <point x="1271.0" y="21.0"/>
      <point x="1293.25" y="50.5" type="curve"/>
      <point x="1244.25" y="105.25"/>
      <point x="1162.25" y="194.75"/>
      <point x="1110.75" y="249.0" type="curve"/>
      <point x="1171.5" y="333.75"/>
      <point x="1256.5" y="471.0"/>
      <point x="1270.25" y="505.0" type="curve"/>
      <point x="1239.75" y="535.0"/>
      <point x="1188.5" y="573.25"/>
      <point x="1156.5" y="590.25" type="curve"/>
      <point x="1143.25" y="562.75"/>
      <point x="1054.5" y="404.25"/>
      <point x="1016.5" y="353.5" type="curve"/>
      <point x="910.0" y="472.75"/>
      <point x="700.5" y="708.25"/>
      <point x="611.5" y="808.5" type="curve"/>
      <point x="741.25" y="921.0"/>
      <point x="831.5" y="1006.75"/>
      <point x="831.5" y="1166.5" type="curve" smooth="yes"/>
      <point x="831.5" y="1295.0"/>
      <point x="740.25" y="1419.5"/>
      <point x="554.0" y="1419.5" type="curve" smooth="yes"/>
      <point x="391.0" y="1419.5"/>
      <point x="244.25" y="1342.5"/>
      <point x="244.25" y="1149.25" type="curve" smooth="yes"/>
      <point x="244.25" y="1011.5"/>
      <point x="356.75" y="878.25"/>
      <point x="405.0" y="832.25" type="curve"/>
      <point x="252.5" y="734.5"/>
      <point x="54.0" y="569.0"/>
      <point x="54.0" y="323.0" type="curve" smooth="yes"/>
      <point x="54.0" y="65.75"/>
      <point x="234.5" y="-97.5"/>
    </contour>
    <contour>
      <point x="550.25" y="33.25" type="curve" smooth="yes"/>
      <point x="359.75" y="33.25"/>
      <point x="204.0" y="146.5"/>
      <point x="204.0" y="320.5" type="curve" smooth="yes"/>
      <point x="204.0" y="532.5"/>
      <point x="370.75" y="659.25"/>
      <point x="495.5" y="742.5" type="curve"/>
      <point x="584.5" y="636.5"/>
      <point x="819.0" y="363.5"/>
      <point x="935.5" y="241.75" type="curve"/>
      <point x="901.5" y="195.0"/>
      <point x="769.0" y="33.25"/>
    </contour>
    <contour>
      <point x="520.25" y="893.5" type="curve"/>
      <point x="455.25" y="961.5"/>
      <point x="383.75" y="1057.5"/>
      <point x="383.75" y="1153.5" type="curve" smooth="yes"/>
      <point x="383.75" y="1241.75"/>
      <point x="453.5" y="1304.5"/>
      <point x="545.25" y="1304.5" type="curve" smooth="yes"/>
      <point x="654.75" y="1304.5"/>
      <point x="694.0" y="1239.25"/>
      <point x="694.0" y="1166.25" type="curve" smooth="yes"/>
      <point x="694.0" y="1053.75"/>
      <point x="617.5" y="959.75"/>
    </contour>
  </outline>
</glyph>
<glyph name="quotesingle" format="2">
  <advance width="462.0"/>
  <unicode hex="0027"/>
  <outline>
    <contour>
      <point x="298.5" y="1383.5" type="curve" smooth="yes"/>
      <point x="298.5" y="1411.75"/>
      <point x="298.25" y="1437.0"/>
      <point x="296.75" y="1457.75" type="curve"/>
      <point x="280.25" y="1459.75"/>
      <point x="261.0" y="1461.0"/>
      <point x="241.25" y="1461.0" type="curve" smooth="yes"/>
      <point x="209.5" y="1461.0"/>
      <point x="176.25" y="1458.0"/>
      <point x="146.25" y="1453.0" type="curve"/>
      <point x="146.25" y="1373.5"/>
      <point x="168.5" y="1148.75"/>
      <point x="183.5" y="1025.25" type="curve"/>
      <point x="198.0" y="1023.5"/>
      <point x="216.5" y="1021.25"/>
      <point x="235.0" y="1021.25" type="curve" smooth="yes"/>
      <point x="248.0" y="1021.25"/>
      <point x="261.25" y="1021.75"/>
      <point x="275.0" y="1023.5" type="curve"/>
      <point x="289.5" y="1127.5"/>
      <point x="298.5" y="1274.0"/>
    </contour>
  </outline>
</glyph>
<glyph name="parenleft" format="2">
  <advance width="677.0"/>
  <unicode hex="0028"/>
  <outline>
    <contour>
      <point x="363.75" y="-489.5" type="curve"/>
      <point x="390.0" y="-477.0"/>
      <point x="459.75" y="-425.75"/>
      <point x="487.25" y="-402.5" type="curve"/>
      <point x="352.0" y="-238.75"/>
      <point x="253.25" y="105.75"/>
      <point x="253.25" y="493.5" type="curve" smooth="yes"/>
      <point x="253.25" y="830.75"/>
      <point x="331.25" y="1191.25"/>
      <point x="481.25" y="1472.5" type="curve"/>
      <point x="451.75" y="1488.75"/>
      <point x="378.75" y="1513.75"/>
      <point x="333.25" y="1521.75" type="curve"/>
      <point x="186.25" y="1264.25"/>
      <point x="100.0" y="875.25"/>
      <point x="100.0" y="504.25" type="curve" smooth="yes"/>
      <point x="100.0" y="98.25"/>
      <point x="199.5" y="-286.25"/>
    </contour>
  </outline>
</glyph>
<glyph name="parenright" format="2">
  <advance width="651.0"/>
  <unicode hex="0029"/>
  <outline>
    <contour>
      <point x="318.25" y="604.75" type="curve" smooth="yes"/>
      <point x="318.25" y="194.5"/>
      <point x="237.75" y="-129.25"/>
      <point x="83.25" y="-373.75" type="curve"/>
      <point x="108.0" y="-392.25"/>
      <point x="180.5" y="-426.5"/>
      <point x="213.25" y="-436.25" type="curve"/>
      <point x="384.75" y="-182.5"/>
      <point x="478.25" y="273.75"/>
      <point x="478.25" y="592.5" type="curve" smooth="yes"/>
      <point x="478.25" y="919.0"/>
      <point x="388.25" y="1279.25"/>
      <point x="209.0" y="1525.25" type="curve"/>
      <point x="161.0" y="1514.0"/>
      <point x="97.5" y="1493.0"/>
      <point x="62.5" y="1472.25" type="curve"/>
      <point x="192.75" y="1316.75"/>
      <point x="318.25" y="970.75"/>
    </contour>
  </outline>
</glyph>
<glyph name="asterisk" format="2">
  <advance width="935.25"/>
  <unicode hex="002A"/>
  <outline>
    <contour>
      <point x="751.25" y="1002.0" type="curve"/>
      <point x="773.5" y="1034.0"/>
      <point x="806.5" y="1086.5"/>
      <point x="817.75" y="1119.5" type="curve"/>
      <point x="721.75" y="1172.5"/>
      <point x="569.75" y="1242.25"/>
      <point x="469.75" y="1286.25" type="curve"/>
      <point x="377.75" y="1349.25"/>
      <point x="233.25" y="1438.5"/>
      <point x="148.25" y="1490.0" type="curve"/>
      <point x="127.0" y="1457.25"/>
      <point x="96.0" y="1403.5"/>
      <point x="79.0" y="1365.75" type="curve"/>
      <point x="173.75" y="1313.0"/>
      <point x="312.5" y="1249.75"/>
      <point x="411.25" y="1207.75" type="curve"/>
      <point x="505.0" y="1144.25"/>
      <point x="652.75" y="1056.0"/>
    </contour>
    <contour>
      <point x="461.75" y="878.0" type="curve" smooth="yes"/>
      <point x="489.5" y="878.0"/>
      <point x="516.25" y="880.75"/>
      <point x="530.5" y="883.25" type="curve"/>
      <point x="529.75" y="970.75"/>
      <point x="519.75" y="1142.75"/>
      <point x="513.5" y="1248.5" type="curve"/>
      <point x="522.25" y="1344.75"/>
      <point x="528.0" y="1460.25"/>
      <point x="528.0" y="1567.5" type="curve"/>
      <point x="513.5" y="1570.75"/>
      <point x="487.0" y="1573.0"/>
      <point x="460.25" y="1573.0" type="curve" smooth="yes"/>
      <point x="433.5" y="1573.0"/>
      <point x="406.5" y="1570.75"/>
      <point x="389.75" y="1567.5" type="curve"/>
      <point x="391.25" y="1471.5"/>
      <point x="396.25" y="1357.5"/>
      <point x="408.25" y="1248.5" type="curve"/>
      <point x="401.5" y="1127.0"/>
      <point x="393.0" y="988.0"/>
      <point x="389.25" y="883.25" type="curve"/>
      <point x="404.25" y="880.0"/>
      <point x="433.5" y="878.0"/>
    </contour>
    <contour>
      <point x="149.0" y="997.5" type="curve"/>
      <point x="253.0" y="1055.5"/>
      <point x="392.0" y="1136.5"/>
      <point x="491.0" y="1198.25" type="curve"/>
      <point x="589.0" y="1243.0"/>
      <point x="732.5" y="1313.75"/>
      <point x="824.75" y="1363.75" type="curve"/>
      <point x="810.5" y="1400.75"/>
      <point x="778.5" y="1460.25"/>
      <point x="756.5" y="1489.25" type="curve"/>
      <point x="670.75" y="1439.25"/>
      <point x="531.25" y="1352.25"/>
      <point x="441.5" y="1288.5" type="curve"/>
      <point x="337.75" y="1241.0"/>
      <point x="178.75" y="1168.25"/>
      <point x="82.75" y="1115.25" type="curve"/>
      <point x="94.75" y="1086.75"/>
      <point x="133.0" y="1020.0"/>
    </contour>
  </outline>
</glyph>
<glyph name="plus" format="2">
  <advance width="1050.0"/>
  <unicode hex="002B"/>
  <outline>
    <contour>
      <point x="947.25" y="679.25" type="curve"/>
      <point x="948.5" y="698.5"/>
      <point x="952.25" y="767.0"/>
      <point x="950.75" y="813.25" type="curve"/>
      <point x="834.5" y="794.0"/>
      <point x="593.25" y="779.5"/>
      <point x="348.25" y="779.5" type="curve" smooth="yes"/>
      <point x="233.25" y="779.5"/>
      <point x="131.0" y="782.75"/>
      <point x="80.75" y="788.25" type="curve"/>
      <point x="80.75" y="766.5"/>
      <point x="86.5" y="685.25"/>
      <point x="94.0" y="657.5" type="curve"/>
      <point x="180.0" y="647.25"/>
      <point x="319.75" y="641.25"/>
      <point x="450.5" y="641.25" type="curve" smooth="yes"/>
      <point x="680.25" y="641.25"/>
      <point x="853.25" y="657.25"/>
    </contour>
    <contour>
      <point x="549.75" y="1179.25" type="curve"/>
      <point x="534.75" y="1180.0"/>
      <point x="427.25" y="1178.0"/>
      <point x="408.0" y="1177.25" type="curve"/>
      <point x="431.0" y="1027.75"/>
      <point x="449.0" y="799.0"/>
      <point x="449.0" y="601.75" type="curve" smooth="yes"/>
      <point x="449.0" y="477.5"/>
      <point x="443.25" y="360.0"/>
      <point x="432.25" y="267.25" type="curve"/>
      <point x="460.0" y="266.0"/>
      <point x="545.75" y="263.75"/>
      <point x="565.5" y="266.0" type="curve"/>
      <point x="582.75" y="395.5"/>
      <point x="591.0" y="540.75"/>
      <point x="591.0" y="679.5" type="curve" smooth="yes"/>
      <point x="591.0" y="865.0"/>
      <point x="576.75" y="1045.0"/>
    </contour>
  </outline>
</glyph>
<glyph name="comma" format="2">
  <advance width="667.0"/>
  <unicode hex="002C"/>
  <outline>
    <contour>
      <point x="302.25" y="-235.0" type="curve"/>
      <point x="397.0" y="-153.25"/>
      <point x="469.0" y="-22.5"/>
      <point x="469.0" y="111.75" type="curve" smooth="yes"/>
      <point x="469.0" y="225.5"/>
      <point x="391.25" y="283.25"/>
      <point x="283.75" y="283.25" type="curve" smooth="yes"/>
      <point x="184.0" y="283.25"/>
      <point x="122.5" y="222.0"/>
      <point x="122.5" y="148.5" type="curve" smooth="yes"/>
      <point x="122.5" y="88.75"/>
      <point x="149.25" y="19.0"/>
      <point x="245.0" y="19.0" type="curve" smooth="yes"/>
      <point x="317.75" y="19.0"/>
      <point x="339.0" y="55.5"/>
      <point x="348.0" y="90.5" type="curve"/>
      <point x="350.5" y="85.75"/>
      <point x="353.0" y="77.5"/>
      <point x="353.0" y="67.0" type="curve" smooth="yes"/>
      <point x="352.75" y="0.0"/>
      <point x="280.0" y="-119.5"/>
      <point x="228.25" y="-167.25" type="curve"/>
      <point x="243.25" y="-189.75"/>
      <point x="290.5" y="-231.75"/>
    </contour>
  </outline>
</glyph>
<glyph name="hyphen" format="2">
  <advance width="881.25"/>
  <unicode hex="002D"/>
  <outline>
    <contour>
      <point x="826.5" y="758.5" type="curve"/>
      <point x="762.25" y="763.5"/>
      <point x="652.25" y="764.75"/>
      <point x="517.5" y="764.75" type="curve" smooth="yes"/>
      <point x="330.0" y="764.75"/>
      <point x="172.5" y="752.75"/>
      <point x="57.25" y="741.5" type="curve"/>
      <point x="54.25" y="713.0"/>
      <point x="51.5" y="643.25"/>
      <point x="53.75" y="607.25" type="curve"/>
      <point x="224.25" y="618.5"/>
      <point x="612.5" y="628.25"/>
      <point x="829.75" y="628.25" type="curve"/>
      <point x="831.25" y="662.5"/>
      <point x="831.0" y="718.25"/>
    </contour>
  </outline>
</glyph>
<glyph name="period" format="2">
  <advance width="632.0"/>
  <unicode hex="002E"/>
  <outline>
    <contour>
      <point x="231.0" y="243.0" type="curve" smooth="yes"/>
      <point x="149.25" y="243.0"/>
      <point x="80.0" y="180.0"/>
      <point x="80.0" y="103.0" type="curve" smooth="yes"/>
      <point x="80.0" y="21.25"/>
      <point x="160.0" y="-38.0"/>
      <point x="238.5" y="-38.0" type="curve" smooth="yes"/>
      <point x="311.0" y="-38.0"/>
      <point x="371.0" y="12.75"/>
      <point x="371.0" y="92.0" type="curve" smooth="yes"/>
      <point x="371.0" y="179.25"/>
      <point x="313.5" y="243.0"/>
    </contour>
  </outline>
</glyph>
<glyph name="slash" format="2">
  <advance width="969.0"/>
  <unicode hex="002F"/>
  <outline>
    <contour>
      <point x="790.75" y="1488.5" type="curve"/>
      <point x="599.75" y="995.75"/>
      <point x="256.0" y="297.5"/>
      <point x="2.5" y="-94.25" type="curve"/>
      <point x="29.75" y="-116.25"/>
      <point x="88.0" y="-145.75"/>
      <point x="130.75" y="-156.5" type="curve"/>
      <point x="344.25" y="156.25"/>
      <point x="678.25" y="798.0"/>
      <point x="926.75" y="1429.75" type="curve"/>
      <point x="902.75" y="1454.25"/>
      <point x="855.75" y="1474.75"/>
    </contour>
  </outline>
</glyph>
<glyph name="zero" format="2">
  <advance width="1087.0"/>
  <unicode hex="0030"/>
  <outline>
    <contour>
      <point x="511.25" y="-32.0" type="curve" smooth="yes"/>
      <point x="798.75" y="-32.0"/>
      <point x="890.25" y="276.75"/>
      <point x="890.25" y="631.0" type="curve" smooth="yes"/>
      <point x="890.25" y="1020.75"/>
      <point x="803.0" y="1338.0"/>
      <point x="511.25" y="1338.0" type="curve" smooth="yes"/>
      <point x="218.25" y="1338.0"/>
      <point x="116.5" y="1035.0"/>
      <point x="116.5" y="648.5" type="curve" smooth="yes"/>
      <point x="116.5" y="308.5"/>
      <point x="224.75" y="-32.0"/>
    </contour>
    <contour>
      <point x="509.75" y="117.75" type="curve" smooth="yes"/>
      <point x="341.75" y="117.75"/>
      <point x="268.0" y="332.5"/>
      <point x="268.0" y="679.75" type="curve" smooth="yes"/>
      <point x="268.0" y="904.5"/>
      <point x="336.0" y="1198.5"/>
      <point x="507.5" y="1198.5" type="curve" smooth="yes"/>
      <point x="680.0" y="1198.5"/>
      <point x="745.5" y="937.25"/>
      <point x="745.5" y="676.75" type="curve" smooth="yes"/>
      <point x="745.5" y="409.75"/>
      <point x="716.5" y="117.75"/>
    </contour>
  </outline>
</glyph>
<glyph name="one" format="2">
  <advance width="809.0"/>
  <unicode hex="0031"/>
  <outline>
    <contour>
      <point x="460.75" y="147.75" type="curve"/>
      <point x="464.75" y="248.5"/>
      <point x="465.75" y="352.25"/>
      <point x="465.75" y="454.0" type="curve" smooth="yes"/>
      <point x="465.75" y="865.25"/>
      <point x="449.75" y="1282.5"/>
      <point x="446.5" y="1309.75" type="curve"/>
      <point x="421.75" y="1313.25"/>
      <point x="366.25" y="1316.25"/>
      <point x="329.0" y="1316.25" type="curve"/>
      <point x="253.5" y="1253.0"/>
      <point x="59.5" y="1059.75"/>
      <point x="25.5" y="1024.75" type="curve"/>
      <point x="42.75" y="989.0"/>
      <point x="79.5" y="924.75"/>
      <point x="97.0" y="902.75" type="curve"/>
      <point x="120.0" y="928.5"/>
      <point x="291.0" y="1109.5"/>
      <point x="320.0" y="1135.75" type="curve"/>
      <point x="317.5" y="1006.25"/>
      <point x="321.75" y="225.75"/>
      <point x="322.5" y="144.0" type="curve"/>
      <point x="287.25" y="142.25"/>
      <point x="132.0" y="129.5"/>
      <point x="89.75" y="121.75" type="curve"/>
      <point x="88.75" y="90.0"/>
      <point x="91.5" y="18.75"/>
      <point x="93.75" y="-12.0" type="curve"/>
      <point x="166.75" y="-6.0"/>
      <point x="610.0" y="9.0"/>
      <point x="684.25" y="9.0" type="curve"/>
      <point x="690.25" y="39.5"/>
      <point x="695.5" y="113.75"/>
      <point x="696.25" y="139.5" type="curve"/>
      <point x="658.5" y="143.0"/>
      <point x="527.75" y="147.75"/>
    </contour>
  </outline>
</glyph>
<glyph name="two" format="2">
  <advance width="995.0"/>
  <unicode hex="0032"/>
  <outline>
    <contour>
      <point x="872.5" y="183.0" type="curve"/>
      <point x="735.0" y="177.0"/>
      <point x="363.5" y="149.25"/>
      <point x="275.75" y="139.0" type="curve"/>
      <point x="310.0" y="177.5"/>
      <point x="493.0" y="408.0"/>
      <point x="614.25" y="573.0" type="curve" smooth="yes"/>
      <point x="743.75" y="750.75"/>
      <point x="839.0" y="927.0"/>
      <point x="839.0" y="1084.75" type="curve" smooth="yes"/>
      <point x="839.0" y="1253.5"/>
      <point x="711.5" y="1364.0"/>
      <point x="530.5" y="1364.0" type="curve" smooth="yes"/>
      <point x="306.25" y="1364.0"/>
      <point x="124.5" y="1222.5"/>
      <point x="38.5" y="1018.25" type="curve"/>
      <point x="65.75" y="992.25"/>
      <point x="129.75" y="947.0"/>
      <point x="158.75" y="933.5" type="curve"/>
      <point x="224.5" y="1100.25"/>
      <point x="336.25" y="1222.0"/>
      <point x="514.0" y="1222.0" type="curve" smooth="yes"/>
      <point x="610.0" y="1222.0"/>
      <point x="695.75" y="1175.75"/>
      <point x="695.75" y="1061.25" type="curve" smooth="yes"/>
      <point x="695.75" y="913.0"/>
      <point x="530.5" y="685.0"/>
      <point x="402.25" y="522.0" type="curve" smooth="yes"/>
      <point x="278.0" y="363.25"/>
      <point x="138.0" y="191.25"/>
      <point x="69.25" y="117.25" type="curve"/>
      <point x="72.5" y="68.0"/>
      <point x="86.25" y="5.0"/>
      <point x="91.25" y="-17.0" type="curve"/>
      <point x="874.5" y="27.0" type="line"/>
      <point x="879.0" y="52.0"/>
      <point x="880.0" y="150.25"/>
    </contour>
  </outline>
</glyph>
<glyph name="three" format="2">
  <advance width="1032.0"/>
  <unicode hex="0033"/>
  <outline>
    <contour>
      <point x="477.0" y="-3.0" type="curve" smooth="yes"/>
      <point x="729.0" y="-3.0"/>
      <point x="915.25" y="149.0"/>
      <point x="915.25" y="398.0" type="curve" smooth="yes"/>
      <point x="915.25" y="613.75"/>
      <point x="748.5" y="707.75"/>
      <point x="565.5" y="723.25" type="curve"/>
      <point x="688.25" y="749.0"/>
      <point x="845.75" y="852.25"/>
      <point x="845.75" y="1021.5" type="curve" smooth="yes"/>
      <point x="845.75" y="1223.5"/>
      <point x="695.5" y="1335.0"/>
      <point x="494.0" y="1335.0" type="curve" smooth="yes"/>
      <point x="264.75" y="1335.0"/>
      <point x="102.75" y="1204.25"/>
      <point x="26.0" y="1124.25" type="curve"/>
      <point x="43.0" y="1104.25"/>
      <point x="95.5" y="1055.25"/>
      <point x="132.75" y="1027.75" type="curve"/>
      <point x="203.75" y="1119.0"/>
      <point x="332.0" y="1198.0"/>
      <point x="483.0" y="1198.0" type="curve" smooth="yes"/>
      <point x="625.5" y="1198.0"/>
      <point x="693.75" y="1114.5"/>
      <point x="693.75" y="1006.5" type="curve" smooth="yes"/>
      <point x="693.75" y="842.5"/>
      <point x="473.75" y="757.0"/>
      <point x="256.0" y="757.0" type="curve"/>
      <point x="256.0" y="714.0"/>
      <point x="263.25" y="654.0"/>
      <point x="270.25" y="631.0" type="curve"/>
      <point x="581.75" y="631.0"/>
      <point x="772.0" y="605.0"/>
      <point x="772.0" y="382.75" type="curve" smooth="yes"/>
      <point x="772.0" y="222.75"/>
      <point x="648.0" y="128.5"/>
      <point x="472.75" y="128.5" type="curve" smooth="yes"/>
      <point x="323.0" y="128.5"/>
      <point x="213.0" y="205.5"/>
      <point x="182.75" y="323.0" type="curve"/>
      <point x="138.25" y="305.5"/>
      <point x="77.5" y="270.75"/>
      <point x="44.0" y="243.0" type="curve"/>
      <point x="89.25" y="96.0"/>
      <point x="270.25" y="-3.0"/>
    </contour>
  </outline>
</glyph>
<glyph name="four" format="2">
  <advance width="1104.0"/>
  <unicode hex="0034"/>
  <outline>
    <contour>
      <point x="979.5" y="396.25" type="curve"/>
      <point x="979.5" y="450.25"/>
      <point x="972.0" y="521.5"/>
      <point x="967.25" y="539.75" type="curve"/>
      <point x="950.25" y="540.0"/>
      <point x="806.0" y="535.25"/>
      <point x="728.75" y="531.5" type="curve"/>
      <point x="728.75" y="825.0"/>
      <point x="752.0" y="1272.25"/>
      <point x="757.5" y="1341.25" type="curve"/>
      <point x="728.0" y="1342.0"/>
      <point x="655.5" y="1340.25"/>
      <point x="629.25" y="1338.25" type="curve"/>
      <point x="557.25" y="1256.5"/>
      <point x="183.0" y="664.5"/>
      <point x="91.25" y="472.75" type="curve"/>
      <point x="94.75" y="434.5"/>
      <point x="103.75" y="370.25"/>
      <point x="112.5" y="329.5" type="curve"/>
      <point x="162.0" y="336.25"/>
      <point x="397.5" y="366.5"/>
      <point x="584.25" y="381.0" type="curve"/>
      <point x="579.5" y="307.0"/>
      <point x="575.0" y="166.5"/>
      <point x="575.0" y="-11.5" type="curve"/>
      <point x="597.5" y="-10.75"/>
      <point x="694.25" y="-4.0"/>
      <point x="737.0" y="1.75" type="curve"/>
      <point x="734.75" y="36.25"/>
      <point x="730.0" y="176.5"/>
      <point x="730.0" y="391.25" type="curve"/>
      <point x="801.75" y="394.0"/>
      <point x="915.0" y="396.25"/>
    </contour>
    <contour>
      <point x="632.5" y="1141.5" type="curve"/>
      <point x="616.5" y="1043.0"/>
      <point x="597.25" y="625.5"/>
      <point x="596.75" y="522.75" type="curve"/>
      <point x="528.75" y="519.75"/>
      <point x="272.25" y="492.25"/>
      <point x="243.0" y="487.5" type="curve"/>
      <point x="263.5" y="552.0"/>
      <point x="542.25" y="1009.25"/>
    </contour>
  </outline>
</glyph>
<glyph name="five" format="2">
  <advance width="1137.0"/>
  <unicode hex="0035"/>
  <outline>
    <contour>
      <point x="85.5" y="180.25" type="curve"/>
      <point x="199.5" y="58.75"/>
      <point x="362.5" y="10.75"/>
      <point x="541.5" y="10.75" type="curve" smooth="yes"/>
      <point x="840.25" y="10.75"/>
      <point x="1021.25" y="206.0"/>
      <point x="1021.25" y="506.0" type="curve" smooth="yes"/>
      <point x="1021.25" y="742.0"/>
      <point x="890.0" y="953.25"/>
      <point x="655.5" y="953.25" type="curve" smooth="yes"/>
      <point x="482.5" y="953.25"/>
      <point x="369.25" y="816.75"/>
      <point x="348.75" y="748.25" type="curve"/>
      <point x="348.75" y="792.25"/>
      <point x="332.25" y="1016.75"/>
      <point x="317.75" y="1129.0" type="curve"/>
      <point x="376.75" y="1142.0"/>
      <point x="601.0" y="1169.25"/>
      <point x="886.0" y="1189.5" type="curve"/>
      <point x="886.0" y="1238.5"/>
      <point x="868.0" y="1304.5"/>
      <point x="861.75" y="1323.25" type="curve"/>
      <point x="722.0" y="1312.25"/>
      <point x="312.25" y="1259.75"/>
      <point x="153.5" y="1224.25" type="curve"/>
      <point x="186.0" y="989.75"/>
      <point x="203.75" y="779.5"/>
      <point x="203.75" y="575.75" type="curve"/>
      <point x="221.75" y="574.5"/>
      <point x="252.75" y="574.25"/>
      <point x="277.0" y="574.25" type="curve" smooth="yes"/>
      <point x="302.75" y="574.25"/>
      <point x="334.25" y="576.25"/>
      <point x="351.5" y="579.25" type="curve"/>
      <point x="356.5" y="647.75"/>
      <point x="450.5" y="823.25"/>
      <point x="633.75" y="823.25" type="curve" smooth="yes"/>
      <point x="795.5" y="823.25"/>
      <point x="878.5" y="673.25"/>
      <point x="878.5" y="507.5" type="curve" smooth="yes"/>
      <point x="878.5" y="298.25"/>
      <point x="749.25" y="153.0"/>
      <point x="545.5" y="153.0" type="curve" smooth="yes"/>
      <point x="341.5" y="153.0"/>
      <point x="240.5" y="241.75"/>
      <point x="194.25" y="299.0" type="curve"/>
      <point x="170.5" y="279.75"/>
      <point x="103.25" y="213.75"/>
    </contour>
  </outline>
</glyph>
<glyph name="six" format="2">
  <advance width="1154.0"/>
  <unicode hex="0036"/>
  <outline>
    <contour>
      <point x="798.25" y="1227.75" type="curve"/>
      <point x="789.75" y="1268.0"/>
      <point x="753.25" y="1330.25"/>
      <point x="728.0" y="1352.75" type="curve"/>
      <point x="264.5" y="1139.75"/>
      <point x="111.75" y="781.5"/>
      <point x="111.75" y="466.75" type="curve" smooth="yes"/>
      <point x="111.75" y="185.5"/>
      <point x="252.75" y="-9.0"/>
      <point x="528.5" y="-9.0" type="curve" smooth="yes"/>
      <point x="805.25" y="-9.0"/>
      <point x="987.75" y="197.0"/>
      <point x="987.75" y="485.0" type="curve" smooth="yes"/>
      <point x="987.75" y="731.0"/>
      <point x="838.75" y="832.75"/>
      <point x="651.75" y="832.75" type="curve" smooth="yes"/>
      <point x="507.5" y="832.75"/>
      <point x="340.0" y="757.25"/>
      <point x="268.0" y="645.5" type="curve"/>
      <point x="304.75" y="795.5"/>
      <point x="471.75" y="1095.25"/>
    </contour>
    <contour>
      <point x="324.75" y="563.5" type="curve" smooth="yes"/>
      <point x="393.75" y="644.0"/>
      <point x="511.25" y="703.0"/>
      <point x="636.0" y="703.0" type="curve" smooth="yes"/>
      <point x="777.5" y="703.0"/>
      <point x="847.0" y="616.5"/>
      <point x="847.0" y="469.0" type="curve" smooth="yes"/>
      <point x="847.0" y="295.75"/>
      <point x="728.0" y="133.0"/>
      <point x="540.5" y="133.0" type="curve" smooth="yes"/>
      <point x="366.5" y="133.0"/>
      <point x="265.75" y="243.25"/>
      <point x="265.75" y="412.75" type="curve" smooth="yes"/>
      <point x="265.75" y="470.5"/>
      <point x="286.75" y="519.0"/>
    </contour>
  </outline>
</glyph>
<glyph name="seven" format="2">
  <advance width="1012.0"/>
  <unicode hex="0037"/>
  <outline>
    <contour>
      <point x="285.5" y="-11.5" type="curve"/>
      <point x="423.0" y="373.25"/>
      <point x="559.0" y="702.75"/>
      <point x="938.75" y="1239.0" type="curve"/>
      <point x="935.75" y="1260.0"/>
      <point x="920.5" y="1342.5"/>
      <point x="913.25" y="1365.5" type="curve"/>
      <point x="741.0" y="1365.5"/>
      <point x="336.25" y="1292.75"/>
      <point x="59.25" y="1229.75" type="curve"/>
      <point x="59.25" y="1202.5"/>
      <point x="70.0" y="1095.5"/>
      <point x="75.75" y="1070.5" type="curve"/>
      <point x="106.5" y="1080.25"/>
      <point x="448.25" y="1166.0"/>
      <point x="764.5" y="1210.0" type="curve"/>
      <point x="541.25" y="962.5"/>
      <point x="234.75" y="371.25"/>
      <point x="119.5" y="37.25" type="curve"/>
      <point x="135.5" y="30.0"/>
      <point x="245.75" y="-2.25"/>
    </contour>
  </outline>
</glyph>
<glyph name="eight" format="2">
  <advance width="1243.0"/>
  <unicode hex="0038"/>
  <outline>
    <contour>
      <point x="600.25" y="-9.5" type="curve" smooth="yes"/>
      <point x="887.5" y="-9.5"/>
      <point x="1056.0" y="146.75"/>
      <point x="1056.0" y="393.5" type="curve" smooth="yes"/>
      <point x="1056.0" y="591.75"/>
      <point x="917.75" y="690.5"/>
      <point x="801.0" y="709.25" type="curve"/>
      <point x="925.75" y="753.75"/>
      <point x="1011.0" y="865.0"/>
      <point x="1011.0" y="1038.75" type="curve" smooth="yes"/>
      <point x="1011.0" y="1264.25"/>
      <point x="835.25" y="1372.75"/>
      <point x="598.0" y="1372.75" type="curve" smooth="yes"/>
      <point x="339.25" y="1372.75"/>
      <point x="148.25" y="1251.0"/>
      <point x="148.25" y="1008.5" type="curve" smooth="yes"/>
      <point x="148.25" y="845.75"/>
      <point x="233.25" y="754.0"/>
      <point x="325.0" y="711.75" type="curve"/>
      <point x="199.25" y="665.0"/>
      <point x="96.0" y="535.25"/>
      <point x="96.0" y="377.0" type="curve" smooth="yes"/>
      <point x="96.0" y="133.75"/>
      <point x="266.75" y="-9.5"/>
    </contour>
    <contour>
      <point x="584.25" y="122.0" type="curve" smooth="yes"/>
      <point x="424.25" y="122.0"/>
      <point x="251.25" y="174.25"/>
      <point x="251.25" y="386.75" type="curve" smooth="yes"/>
      <point x="251.25" y="598.5"/>
      <point x="444.5" y="644.25"/>
      <point x="581.5" y="644.25" type="curve" smooth="yes"/>
      <point x="775.25" y="644.25"/>
      <point x="909.0" y="579.0"/>
      <point x="909.0" y="386.75" type="curve" smooth="yes"/>
      <point x="909.0" y="204.25"/>
      <point x="759.25" y="122.0"/>
    </contour>
    <contour>
      <point x="586.75" y="776.25" type="curve" smooth="yes"/>
      <point x="422.0" y="776.25"/>
      <point x="301.25" y="819.0"/>
      <point x="301.25" y="995.75" type="curve" smooth="yes"/>
      <point x="301.25" y="1141.75"/>
      <point x="396.0" y="1247.75"/>
      <point x="580.25" y="1247.75" type="curve" smooth="yes"/>
      <point x="752.75" y="1247.75"/>
      <point x="865.25" y="1185.75"/>
      <point x="865.25" y="1023.25" type="curve" smooth="yes"/>
      <point x="865.25" y="867.25"/>
      <point x="743.0" y="776.25"/>
    </contour>
  </outline>
</glyph>
<glyph name="nine" format="2">
  <advance width="1067.0"/>
  <unicode hex="0039"/>
  <outline>
    <contour>
      <point x="802.75" y="9.75" type="curve"/>
      <point x="887.25" y="257.0"/>
      <point x="940.5" y="532.25"/>
      <point x="940.5" y="866.25" type="curve" smooth="yes"/>
      <point x="940.5" y="1184.25"/>
      <point x="824.75" y="1364.0"/>
      <point x="538.25" y="1364.0" type="curve" smooth="yes"/>
      <point x="284.25" y="1364.0"/>
      <point x="92.25" y="1172.75"/>
      <point x="92.25" y="902.75" type="curve" smooth="yes"/>
      <point x="92.25" y="658.5"/>
      <point x="212.75" y="476.25"/>
      <point x="460.0" y="476.25" type="curve" smooth="yes"/>
      <point x="645.25" y="476.25"/>
      <point x="749.5" y="567.75"/>
      <point x="783.0" y="626.25" type="curve"/>
      <point x="778.75" y="387.25"/>
      <point x="660.5" y="84.0"/>
      <point x="623.25" y="-1.5" type="curve"/>
      <point x="685.0" y="-1.5"/>
      <point x="770.75" y="3.0"/>
    </contour>
    <contour>
      <point x="545.75" y="1244.25" type="curve" smooth="yes"/>
      <point x="710.5" y="1244.25"/>
      <point x="790.5" y="1128.5"/>
      <point x="790.5" y="935.25" type="curve" smooth="yes"/>
      <point x="790.5" y="747.5"/>
      <point x="674.25" y="611.25"/>
      <point x="482.0" y="611.25" type="curve" smooth="yes"/>
      <point x="321.75" y="611.25"/>
      <point x="238.25" y="725.75"/>
      <point x="238.25" y="907.25" type="curve" smooth="yes"/>
      <point x="238.25" y="1107.25"/>
      <point x="348.5" y="1244.25"/>
    </contour>
  </outline>
</glyph>
<glyph name="colon" format="2">
  <advance width="564.0"/>
  <unicode hex="003A"/>
  <outline>
    <contour>
      <point x="244.75" y="-9.25" type="curve" smooth="yes"/>
      <point x="323.75" y="-9.25"/>
      <point x="388.25" y="43.75"/>
      <point x="388.25" y="117.75" type="curve" smooth="yes"/>
      <point x="388.25" y="195.0"/>
      <point x="330.25" y="261.25"/>
      <point x="242.75" y="261.25" type="curve" smooth="yes"/>
      <point x="162.25" y="261.25"/>
      <point x="93.5" y="194.0"/>
      <point x="93.5" y="118.0" type="curve" smooth="yes"/>
      <point x="93.5" y="45.5"/>
      <point x="166.5" y="-9.25"/>
    </contour>
    <component base="period" xOffset="20.25" yOffset="743.75"/>
  </outline>
</glyph>
<glyph name="semicolon" format="2">
  <advance width="593.0"/>
  <unicode hex="003B"/>
  <outline>
    <contour>
      <point x="254.25" y="945.5" type="curve" smooth="yes"/>
      <point x="172.5" y="945.5"/>
      <point x="103.25" y="882.5"/>
      <point x="103.25" y="805.5" type="curve" smooth="yes"/>
      <point x="103.25" y="723.75"/>
      <point x="183.25" y="664.5"/>
      <point x="261.75" y="664.5" type="curve" smooth="yes"/>
      <point x="334.25" y="664.5"/>
      <point x="394.25" y="715.25"/>
      <point x="394.25" y="794.5" type="curve" smooth="yes"/>
      <point x="394.25" y="881.75"/>
      <point x="336.75" y="945.5"/>
    </contour>
    <contour>
      <point x="268.0" y="-303.0" type="curve"/>
      <point x="360.25" y="-222.75"/>
      <point x="430.75" y="-94.25"/>
      <point x="430.75" y="36.75" type="curve" smooth="yes"/>
      <point x="430.75" y="147.5"/>
      <point x="355.25" y="204.25"/>
      <point x="249.75" y="204.25" type="curve" smooth="yes"/>
      <point x="151.75" y="204.25"/>
      <point x="92.75" y="144.0"/>
      <point x="92.75" y="72.75" type="curve" smooth="yes"/>
      <point x="92.75" y="14.5"/>
      <point x="118.25" y="-53.75"/>
      <point x="212.5" y="-53.75" type="curve" smooth="yes"/>
      <point x="284.5" y="-53.75"/>
      <point x="305.5" y="-17.25"/>
      <point x="314.0" y="17.5" type="curve"/>
      <point x="316.5" y="12.75"/>
      <point x="319.0" y="4.5"/>
      <point x="319.0" y="-5.75" type="curve" smooth="yes"/>
      <point x="318.75" y="-72.25"/>
      <point x="247.5" y="-190.75"/>
      <point x="196.5" y="-238.25" type="curve"/>
      <point x="210.75" y="-259.5"/>
      <point x="256.5" y="-299.75"/>
    </contour>
  </outline>
</glyph>
<glyph name="less" format="2">
  <advance width="807.0"/>
  <unicode hex="003C"/>
  <outline>
    <contour>
      <point x="663.75" y="1106.25" type="curve"/>
      <point x="578.75" y="1049.25"/>
      <point x="247.25" y="786.5"/>
      <point x="21.0" y="601.5" type="curve"/>
      <point x="17.0" y="491.75" type="line"/>
      <point x="235.25" y="422.5"/>
      <point x="465.25" y="333.0"/>
      <point x="663.5" y="251.0" type="curve"/>
      <point x="672.25" y="278.25"/>
      <point x="686.5" y="334.0"/>
      <point x="688.0" y="361.75" type="curve"/>
      <point x="620.75" y="405.75"/>
      <point x="300.5" y="527.25"/>
      <point x="120.5" y="584.75" type="curve"/>
      <point x="117.5" y="535.25" type="line"/>
      <point x="325.5" y="706.25"/>
      <point x="516.0" y="852.0"/>
      <point x="731.5" y="1010.5" type="curve"/>
      <point x="721.0" y="1038.5"/>
      <point x="693.25" y="1085.75"/>
    </contour>
  </outline>
</glyph>
<glyph name="equal" format="2">
  <advance width="1050.0"/>
  <unicode hex="003D"/>
  <outline>
    <contour>
      <point x="56.25" y="1025.75" type="curve"/>
      <point x="48.0" y="1000.5"/>
      <point x="42.25" y="934.25"/>
      <point x="42.25" y="901.5" type="curve"/>
      <point x="206.5" y="917.25"/>
      <point x="825.25" y="943.5"/>
      <point x="1006.75" y="943.5" type="curve"/>
      <point x="1006.75" y="969.0"/>
      <point x="999.75" y="1055.25"/>
      <point x="995.5" y="1081.5" type="curve"/>
      <point x="760.5" y="1081.5"/>
      <point x="199.5" y="1054.75"/>
    </contour>
    <contour>
      <point x="38.5" y="582.5" type="curve"/>
      <point x="35.5" y="549.5"/>
      <point x="35.5" y="480.5"/>
      <point x="37.75" y="457.25" type="curve"/>
      <point x="270.5" y="470.25"/>
      <point x="827.5" y="470.25"/>
      <point x="1013.25" y="470.25" type="curve"/>
      <point x="1013.25" y="495.75"/>
      <point x="1005.75" y="576.75"/>
      <point x="1000.5" y="603.75" type="curve"/>
      <point x="920.5" y="608.5"/>
      <point x="798.5" y="612.0"/>
      <point x="665.0" y="612.0" type="curve" smooth="yes"/>
      <point x="457.5" y="612.0"/>
      <point x="216.75" y="603.25"/>
    </contour>
  </outline>
</glyph>
<glyph name="greater" format="2">
  <advance width="790.0"/>
  <unicode hex="003E"/>
  <outline>
    <contour>
      <point x="93.75" y="1011.5" type="curve"/>
      <point x="209.25" y="937.75"/>
      <point x="508.25" y="747.75"/>
      <point x="648.0" y="656.5" type="curve"/>
      <point x="664.0" y="708.75" type="line"/>
      <point x="436.75" y="583.0"/>
      <point x="86.5" y="390.75"/>
      <point x="29.5" y="367.5" type="curve"/>
      <point x="29.5" y="345.0"/>
      <point x="51.25" y="280.25"/>
      <point x="65.0" y="262.75" type="curve"/>
      <point x="104.25" y="272.75"/>
      <point x="484.25" y="461.5"/>
      <point x="758.5" y="606.0" type="curve"/>
      <point x="757.0" y="729.0" type="line"/>
      <point x="538.5" y="879.0"/>
      <point x="230.0" y="1075.5"/>
      <point x="177.0" y="1089.5" type="curve"/>
      <point x="151.5" y="1075.25"/>
      <point x="114.25" y="1036.75"/>
    </contour>
  </outline>
</glyph>
<glyph name="question" format="2">
  <advance width="1036.0"/>
  <unicode hex="003F"/>
  <outline>
    <contour>
      <point x="556.5" y="384.75" type="curve"/>
      <point x="558.0" y="600.75"/>
      <point x="642.75" y="712.0"/>
      <point x="727.75" y="784.5" type="curve" smooth="yes"/>
      <point x="806.0" y="851.5"/>
      <point x="895.0" y="956.75"/>
      <point x="895.0" y="1125.25" type="curve" smooth="yes"/>
      <point x="895.0" y="1353.25"/>
      <point x="743.25" y="1472.0"/>
      <point x="493.75" y="1472.0" type="curve" smooth="yes"/>
      <point x="267.0" y="1472.0"/>
      <point x="62.25" y="1361.75"/>
      <point x="22.75" y="1136.75" type="curve"/>
      <point x="153.5" y="1072.5" type="line"/>
      <point x="180.0" y="1184.75"/>
      <point x="251.25" y="1333.25"/>
      <point x="493.75" y="1333.25" type="curve" smooth="yes"/>
      <point x="655.25" y="1333.25"/>
      <point x="736.0" y="1251.75"/>
      <point x="736.0" y="1110.5" type="curve" smooth="yes"/>
      <point x="736.0" y="1020.0"/>
      <point x="689.0" y="934.25"/>
      <point x="594.5" y="855.25" type="curve" smooth="yes"/>
      <point x="451.25" y="734.75"/>
      <point x="392.0" y="564.0"/>
      <point x="392.0" y="394.0" type="curve"/>
      <point x="443.5" y="386.75"/>
      <point x="497.0" y="384.75"/>
    </contour>
    <contour>
      <point x="492.0" y="-10.0" type="curve" smooth="yes"/>
      <point x="562.5" y="-10.0"/>
      <point x="625.75" y="53.75"/>
      <point x="625.75" y="129.75" type="curve" smooth="yes"/>
      <point x="625.75" y="201.0"/>
      <point x="569.25" y="248.5"/>
      <point x="487.0" y="248.5" type="curve" smooth="yes"/>
      <point x="422.0" y="248.5"/>
      <point x="357.25" y="192.0"/>
      <point x="357.25" y="121.5" type="curve" smooth="yes"/>
      <point x="357.25" y="41.5"/>
      <point x="417.25" y="-10.0"/>
    </contour>
  </outline>
</glyph>
<glyph name="at" format="2">
  <advance width="1920.0"/>
  <unicode hex="0040"/>
  <outline>
    <contour>
      <point x="834.0" y="-41.0" type="curve" smooth="yes"/>
      <point x="1141.5" y="-41.0"/>
      <point x="1338.0" y="61.0"/>
      <point x="1408.0" y="178.0" type="curve"/>
      <point x="1301.5" y="269.5" type="line"/>
      <point x="1240.5" y="171.5"/>
      <point x="1103.75" y="84.0"/>
      <point x="842.75" y="84.0" type="curve" smooth="yes"/>
      <point x="443.5" y="84.0"/>
      <point x="204.5" y="294.25"/>
      <point x="204.5" y="626.5" type="curve" smooth="yes"/>
      <point x="204.5" y="1062.0"/>
      <point x="546.25" y="1367.5"/>
      <point x="971.25" y="1367.5" type="curve" smooth="yes"/>
      <point x="1366.0" y="1367.5"/>
      <point x="1624.0" y="1154.25"/>
      <point x="1624.0" y="768.0" type="curve" smooth="yes"/>
      <point x="1624.0" y="635.5"/>
      <point x="1576.0" y="482.75"/>
      <point x="1450.5" y="482.75" type="curve" smooth="yes"/>
      <point x="1367.0" y="482.75"/>
      <point x="1333.75" y="519.0"/>
      <point x="1312.0" y="607.5" type="curve" smooth="yes"/>
      <point x="1302.5" y="645.75"/>
      <point x="1242.75" y="923.0"/>
      <point x="1207.5" y="1121.25" type="curve"/>
      <point x="1181.0" y="1120.5"/>
      <point x="1114.25" y="1116.25"/>
      <point x="1084.75" y="1114.0" type="curve"/>
      <point x="1087.25" y="1092.5"/>
      <point x="1091.25" y="1055.25"/>
      <point x="1094.75" y="1028.0" type="curve"/>
      <point x="1057.75" y="1059.5"/>
      <point x="995.0" y="1089.75"/>
      <point x="889.25" y="1089.75" type="curve" smooth="yes"/>
      <point x="680.75" y="1089.75"/>
      <point x="519.0" y="910.5"/>
      <point x="519.0" y="695.5" type="curve" smooth="yes"/>
      <point x="519.0" y="491.25"/>
      <point x="651.5" y="354.5"/>
      <point x="865.25" y="354.5" type="curve" smooth="yes"/>
      <point x="1023.75" y="354.5"/>
      <point x="1170.25" y="427.75"/>
      <point x="1203.5" y="542.0" type="curve"/>
      <point x="1231.0" y="422.75"/>
      <point x="1329.0" y="361.0"/>
      <point x="1450.0" y="361.0" type="curve" smooth="yes"/>
      <point x="1658.5" y="361.0"/>
      <point x="1759.75" y="543.75"/>
      <point x="1759.75" y="756.0" type="curve" smooth="yes"/>
      <point x="1759.75" y="1214.25"/>
      <point x="1439.0" y="1497.0"/>
      <point x="978.5" y="1497.0" type="curve" smooth="yes"/>
      <point x="457.75" y="1497.0"/>
      <point x="56.0" y="1144.75"/>
      <point x="56.0" y="619.75" type="curve" smooth="yes"/>
      <point x="56.0" y="184.25"/>
      <point x="388.0" y="-41.0"/>
    </contour>
    <contour>
      <point x="874.25" y="484.0" type="curve" smooth="yes"/>
      <point x="762.75" y="484.0"/>
      <point x="666.25" y="558.75"/>
      <point x="666.25" y="699.5" type="curve" smooth="yes"/>
      <point x="666.25" y="857.0"/>
      <point x="765.25" y="968.25"/>
      <point x="917.5" y="968.25" type="curve" smooth="yes"/>
      <point x="990.25" y="968.25"/>
      <point x="1064.0" y="945.25"/>
      <point x="1108.25" y="908.25" type="curve"/>
      <point x="1160.25" y="667.0" type="line"/>
      <point x="1117.75" y="557.75"/>
      <point x="1024.0" y="484.0"/>
    </contour>
  </outline>
</glyph>
<glyph name="A" format="2">
  <advance width="1051.5"/>
  <unicode hex="0041"/>
  <anchor x="560.75" y="0.0" name="bottom"/>
  <anchor x="967.75" y="-2.0" name="ogonek"/>
  <anchor x="592.0" y="1324.0" name="top"/>
  <outline>
    <contour>
      <point x="249.25" y="-15.0" type="curve"/>
      <point x="263.25" y="82.5"/>
      <point x="300.0" y="283.0"/>
      <point x="338.75" y="466.5" type="curve"/>
      <point x="376.75" y="474.5"/>
      <point x="660.0" y="498.0"/>
      <point x="766.0" y="498.5" type="curve"/>
      <point x="774.25" y="397.75"/>
      <point x="791.0" y="80.0"/>
      <point x="796.25" y="-15.0" type="curve"/>
      <point x="849.75" y="-15.0"/>
      <point x="927.5" y="-10.0"/>
      <point x="967.75" y="-2.0" type="curve"/>
      <point x="921.75" y="661.5"/>
      <point x="872.75" y="1089.0"/>
      <point x="821.5" y="1323.0" type="curve"/>
      <point x="777.0" y="1328.5"/>
      <point x="723.5" y="1331.25"/>
      <point x="676.75" y="1331.25" type="curve" smooth="yes"/>
      <point x="557.75" y="1331.25"/>
      <point x="435.25" y="1315.0"/>
      <point x="371.5" y="1304.5" type="curve"/>
      <point x="285.25" y="982.0"/>
      <point x="113.5" y="191.5"/>
      <point x="79.25" y="-5.75" type="curve"/>
      <point x="118.5" y="-10.75"/>
      <point x="202.75" y="-15.0"/>
    </contour>
    <contour>
      <point x="361.75" y="603.0" type="curve"/>
      <point x="416.5" y="878.5"/>
      <point x="471.0" y="1107.5"/>
      <point x="487.25" y="1172.0" type="curve"/>
      <point x="523.0" y="1177.0"/>
      <point x="656.25" y="1188.0"/>
      <point x="706.75" y="1188.0" type="curve"/>
      <point x="728.5" y="1066.0"/>
      <point x="753.75" y="731.75"/>
      <point x="760.25" y="641.25" type="curve"/>
      <point x="639.5" y="636.75"/>
      <point x="442.75" y="619.75"/>
    </contour>
  </outline>
</glyph>
<glyph name="B" format="2">
  <advance width="1174.0"/>
  <unicode hex="0042"/>
  <anchor x="587.0" y="0.0" name="bottom"/>
  <anchor x="587.0" y="1291.0" name="top"/>
  <outline>
    <contour>
      <point x="167.25" y="15.75" type="curve"/>
      <point x="219.5" y="7.0"/>
      <point x="286.25" y="3.5"/>
      <point x="355.5" y="3.5" type="curve" smooth="yes"/>
      <point x="732.0" y="3.5"/>
      <point x="1049.75" y="67.25"/>
      <point x="1049.75" y="400.5" type="curve" smooth="yes"/>
      <point x="1049.75" y="569.0"/>
      <point x="905.5" y="679.75"/>
      <point x="735.5" y="683.5" type="curve" smooth="yes"/>
      <point x="726.5" y="683.75"/>
      <point x="719.5" y="683.75"/>
      <point x="713.25" y="683.0" type="curve"/>
      <point x="823.0" y="709.25"/>
      <point x="931.5" y="861.75"/>
      <point x="931.5" y="1007.5" type="curve" smooth="yes"/>
      <point x="931.5" y="1218.25"/>
      <point x="774.5" y="1306.0"/>
      <point x="563.0" y="1306.0" type="curve" smooth="yes"/>
      <point x="402.75" y="1306.0"/>
      <point x="260.0" y="1293.0"/>
      <point x="181.75" y="1285.0" type="curve"/>
      <point x="181.75" y="1256.0"/>
      <point x="167.25" y="197.0"/>
    </contour>
    <contour>
      <point x="336.25" y="153.25" type="curve"/>
      <point x="339.25" y="593.25" type="line"/>
      <point x="383.5" y="598.25"/>
      <point x="513.75" y="600.25"/>
      <point x="547.75" y="600.25" type="curve" smooth="yes"/>
      <point x="732.5" y="600.25"/>
      <point x="899.75" y="561.0"/>
      <point x="899.75" y="403.75" type="curve" smooth="yes"/>
      <point x="899.75" y="187.75"/>
      <point x="648.0" y="153.0"/>
      <point x="382.5" y="153.0" type="curve" smooth="yes"/>
      <point x="361.5" y="153.0"/>
      <point x="344.75" y="153.0"/>
    </contour>
    <contour>
      <point x="336.5" y="724.25" type="curve"/>
      <point x="334.0" y="1168.75" type="line"/>
      <point x="378.0" y="1175.25"/>
      <point x="465.5" y="1186.5"/>
      <point x="546.5" y="1186.5" type="curve" smooth="yes"/>
      <point x="694.25" y="1186.5"/>
      <point x="787.25" y="1136.25"/>
      <point x="787.25" y="988.5" type="curve" smooth="yes"/>
      <point x="787.25" y="891.5"/>
      <point x="727.0" y="801.5"/>
      <point x="649.5" y="767.0" type="curve" smooth="yes"/>
      <point x="589.75" y="733.25"/>
      <point x="508.75" y="725.75"/>
    </contour>
  </outline>
</glyph>
<glyph name="C" format="2">
  <advance width="1137.0"/>
  <unicode hex="0043"/>
  <anchor x="569.0" y="0.0" name="bottom"/>
  <anchor x="546.5" y="1298.5" name="top"/>
  <outline>
    <contour>
      <point x="1055.0" y="270.5" type="curve"/>
      <point x="1035.25" y="301.25"/>
      <point x="972.0" y="357.5"/>
      <point x="939.5" y="378.25" type="curve"/>
      <point x="871.5" y="287.25"/>
      <point x="755.75" y="151.5"/>
      <point x="569.0" y="151.5" type="curve" smooth="yes"/>
      <point x="390.0" y="151.5"/>
      <point x="232.0" y="375.75"/>
      <point x="232.0" y="670.25" type="curve" smooth="yes"/>
      <point x="232.0" y="1036.25"/>
      <point x="406.5" y="1176.25"/>
      <point x="567.25" y="1176.25" type="curve" smooth="yes"/>
      <point x="801.25" y="1176.25"/>
      <point x="874.25" y="1031.25"/>
      <point x="895.25" y="987.0" type="curve"/>
      <point x="928.5" y="1008.0"/>
      <point x="995.25" y="1058.0"/>
      <point x="1020.0" y="1087.25" type="curve"/>
      <point x="940.75" y="1234.0"/>
      <point x="766.0" y="1326.0"/>
      <point x="577.5" y="1326.0" type="curve" smooth="yes"/>
      <point x="237.25" y="1326.0"/>
      <point x="55.0" y="1037.75"/>
      <point x="55.0" y="671.75" type="curve" smooth="yes"/>
      <point x="55.0" y="298.75"/>
      <point x="248.0" y="-8.75"/>
      <point x="572.25" y="-8.75" type="curve" smooth="yes"/>
      <point x="796.0" y="-8.75"/>
      <point x="954.0" y="121.0"/>
    </contour>
  </outline>
</glyph>
<glyph name="D" format="2">
  <advance width="1198.0"/>
  <unicode hex="0044"/>
  <anchor x="599.0" y="0.0" name="bottom"/>
  <anchor x="346.0" y="646.0" name="center"/>
  <anchor x="509.75" y="1291.0" name="top"/>
  <outline>
    <contour>
      <point x="227.75" y="-28.75" type="curve"/>
      <point x="789.25" y="-14.5"/>
      <point x="1015.0" y="158.0"/>
      <point x="1015.0" y="640.5" type="curve" smooth="yes"/>
      <point x="1015.0" y="1048.5"/>
      <point x="876.5" y="1325.0"/>
      <point x="407.5" y="1325.0" type="curve" smooth="yes"/>
      <point x="315.25" y="1325.0"/>
      <point x="161.5" y="1308.25"/>
      <point x="110.75" y="1299.0" type="curve"/>
      <point x="114.0" y="1239.0"/>
      <point x="201.0" y="208.75"/>
    </contour>
    <contour>
      <point x="374.75" y="135.0" type="curve"/>
      <point x="341.5" y="458.75"/>
      <point x="312.5" y="853.5"/>
      <point x="290.25" y="1182.75" type="curve"/>
      <point x="326.5" y="1185.25"/>
      <point x="364.5" y="1186.75"/>
      <point x="398.75" y="1186.75" type="curve" smooth="yes"/>
      <point x="746.25" y="1186.75"/>
      <point x="857.5" y="972.75"/>
      <point x="857.5" y="644.0" type="curve" smooth="yes"/>
      <point x="857.5" y="316.75"/>
      <point x="732.75" y="159.75"/>
    </contour>
  </outline>
</glyph>
<glyph name="E" format="2">
  <advance width="957.0"/>
  <unicode hex="0045"/>
  <anchor x="484.0" y="0.0" name="bottom"/>
  <anchor x="689.25" y="0.75" name="ogonek"/>
  <anchor x="484.0" y="1313.5" name="top"/>
  <anchor x="25.0" y="1291.0" name="topleft"/>
  <outline>
    <contour>
      <point x="819.5" y="-10.5" type="curve"/>
      <point x="826.25" y="12.25"/>
      <point x="837.5" y="96.0"/>
      <point x="839.0" y="150.25" type="curve"/>
      <point x="769.75" y="155.75"/>
      <point x="610.25" y="162.5"/>
      <point x="470.5" y="162.5" type="curve" smooth="yes"/>
      <point x="408.75" y="162.5"/>
      <point x="320.75" y="161.75"/>
      <point x="288.25" y="160.25" type="curve"/>
      <point x="288.25" y="275.25"/>
      <point x="289.0" y="609.5"/>
      <point x="289.5" y="656.75" type="curve"/>
      <point x="362.75" y="659.0"/>
      <point x="659.75" y="656.25"/>
      <point x="708.25" y="655.5" type="curve"/>
      <point x="704.0" y="794.0" type="line"/>
      <point x="613.25" y="793.5"/>
      <point x="367.75" y="783.75"/>
      <point x="293.25" y="781.5" type="curve"/>
      <point x="293.25" y="850.0"/>
      <point x="295.5" y="1072.0"/>
      <point x="300.0" y="1142.25" type="curve"/>
      <point x="836.5" y="1185.25" type="line"/>
      <point x="841.25" y="1234.0"/>
      <point x="844.0" y="1269.5"/>
      <point x="844.0" y="1321.0" type="curve"/>
      <point x="789.0" y="1321.0"/>
      <point x="489.75" y="1306.25"/>
      <point x="138.25" y="1251.0" type="curve"/>
      <point x="132.5" y="1172.5"/>
      <point x="127.5" y="945.75"/>
      <point x="127.5" y="602.5" type="curve" smooth="yes"/>
      <point x="127.5" y="419.25"/>
      <point x="130.75" y="214.25"/>
      <point x="138.25" y="9.25" type="curve"/>
      <point x="216.0" y="8.75"/>
      <point x="308.25" y="7.5"/>
      <point x="386.0" y="5.75" type="curve" smooth="yes"/>
      <point x="536.5" y="4.0"/>
      <point x="671.25" y="-1.75"/>
    </contour>
  </outline>
</glyph>
<glyph name="F" format="2">
  <advance width="949.0"/>
  <unicode hex="0046"/>
  <anchor x="475.0" y="0.0" name="bottom"/>
  <anchor x="475.0" y="1291.0" name="top"/>
  <outline>
    <contour>
      <point x="354.25" y="-19.5" type="line"/>
      <point x="351.75" y="190.25"/>
      <point x="338.75" y="450.25"/>
      <point x="326.0" y="622.75" type="curve"/>
      <point x="450.5" y="622.75"/>
      <point x="646.5" y="612.5"/>
      <point x="763.25" y="600.0" type="curve"/>
      <point x="766.25" y="638.5"/>
      <point x="768.5" y="689.75"/>
      <point x="768.5" y="730.5" type="curve"/>
      <point x="739.5" y="735.0"/>
      <point x="551.0" y="755.75"/>
      <point x="317.75" y="755.75" type="curve"/>
      <point x="312.5" y="881.25"/>
      <point x="303.75" y="1070.0"/>
      <point x="295.25" y="1156.25" type="curve"/>
      <point x="568.0" y="1156.25"/>
      <point x="749.0" y="1140.0"/>
      <point x="824.75" y="1131.75" type="curve"/>
      <point x="824.75" y="1168.75"/>
      <point x="822.5" y="1233.25"/>
      <point x="817.25" y="1280.0" type="curve"/>
      <point x="714.25" y="1293.75"/>
      <point x="620.25" y="1302.75"/>
      <point x="491.75" y="1305.75" type="curve" smooth="yes"/>
      <point x="394.25" y="1308.0"/>
      <point x="278.75" y="1308.25"/>
      <point x="131.0" y="1305.5" type="curve"/>
      <point x="151.75" y="910.25"/>
      <point x="176.25" y="427.75"/>
      <point x="178.75" y="-4.75" type="curve"/>
    </contour>
  </outline>
</glyph>
<glyph name="G" format="2">
  <advance width="1275.0"/>
  <unicode hex="0047"/>
  <anchor x="668.0" y="0.0" name="bottom"/>
  <anchor x="668.0" y="1291.0" name="top"/>
  <outline>
    <contour>
      <point x="707.0" y="-48.0" type="curve" smooth="yes"/>
      <point x="1042.0" y="-48.0"/>
      <point x="1182.25" y="170.75"/>
      <point x="1182.25" y="484.25" type="curve" smooth="yes"/>
      <point x="1182.25" y="539.25"/>
      <point x="1178.0" y="601.25"/>
      <point x="1169.0" y="659.5" type="curve"/>
      <point x="997.75" y="696.25"/>
      <point x="719.25" y="723.75"/>
      <point x="567.0" y="731.25" type="curve"/>
      <point x="564.75" y="698.0"/>
      <point x="565.5" y="632.5"/>
      <point x="567.0" y="602.25" type="curve"/>
      <point x="680.0" y="596.25"/>
      <point x="961.75" y="559.25"/>
      <point x="1026.25" y="546.75" type="curve"/>
      <point x="1028.25" y="523.0"/>
      <point x="1029.25" y="492.0"/>
      <point x="1029.25" y="466.75" type="curve" smooth="yes"/>
      <point x="1029.25" y="276.5"/>
      <point x="954.25" y="101.75"/>
      <point x="706.75" y="101.75" type="curve" smooth="yes"/>
      <point x="392.0" y="101.75"/>
      <point x="245.0" y="309.5"/>
      <point x="245.0" y="658.0" type="curve" smooth="yes"/>
      <point x="245.0" y="1026.5"/>
      <point x="462.75" y="1182.0"/>
      <point x="632.0" y="1182.0" type="curve" smooth="yes"/>
      <point x="779.0" y="1182.0"/>
      <point x="873.25" y="1148.0"/>
      <point x="966.5" y="1001.25" type="curve"/>
      <point x="1008.75" y="1028.25"/>
      <point x="1068.0" y="1086.25"/>
      <point x="1086.0" y="1111.25" type="curve"/>
      <point x="1026.0" y="1213.0"/>
      <point x="882.5" y="1338.0"/>
      <point x="643.5" y="1338.0" type="curve" smooth="yes"/>
      <point x="278.25" y="1338.0"/>
      <point x="78.5" y="1051.0"/>
      <point x="78.5" y="646.0" type="curve" smooth="yes"/>
      <point x="78.5" y="213.0"/>
      <point x="289.0" y="-48.0"/>
    </contour>
  </outline>
</glyph>
<glyph name="H" format="2">
  <advance width="1094.0"/>
  <unicode hex="0048"/>
  <anchor x="547.0" y="0.0" name="bottom"/>
  <anchor x="519.25" y="1063.0" name="center"/>
  <anchor x="547.0" y="1291.0" name="top"/>
  <anchor x="20.0" y="1291.0" name="topleft"/>
  <outline>
    <contour>
      <point x="165.25" y="-0.25" type="curve"/>
      <point x="212.5" y="-0.25"/>
      <point x="307.0" y="4.5"/>
      <point x="335.75" y="8.5" type="curve"/>
      <point x="334.0" y="40.75"/>
      <point x="313.0" y="385.75"/>
      <point x="303.0" y="597.75" type="curve"/>
      <point x="372.25" y="597.75"/>
      <point x="664.75" y="605.25"/>
      <point x="734.25" y="607.25" type="curve"/>
      <point x="734.25" y="479.0"/>
      <point x="736.5" y="164.25"/>
      <point x="736.5" y="-1.0" type="curve"/>
      <point x="787.25" y="-1.0"/>
      <point x="857.25" y="1.0"/>
      <point x="887.75" y="4.5" type="curve"/>
      <point x="885.25" y="72.0"/>
      <point x="886.0" y="197.0"/>
      <point x="888.5" y="334.0" type="curve" smooth="yes"/>
      <point x="891.5" y="663.75"/>
      <point x="910.75" y="1145.5"/>
      <point x="932.75" y="1299.0" type="curve"/>
      <point x="909.0" y="1303.25"/>
      <point x="857.5" y="1305.5"/>
      <point x="813.75" y="1305.5" type="curve" smooth="yes"/>
      <point x="793.75" y="1305.5"/>
      <point x="773.25" y="1305.25"/>
      <point x="760.25" y="1304.0" type="curve"/>
      <point x="748.5" y="1149.5"/>
      <point x="740.75" y="885.5"/>
      <point x="736.25" y="761.75" type="curve"/>
      <point x="659.5" y="759.5"/>
      <point x="370.0" y="747.0"/>
      <point x="296.25" y="739.0" type="curve"/>
      <point x="294.75" y="768.0"/>
      <point x="291.5" y="895.75"/>
      <point x="291.5" y="1024.75" type="curve" smooth="yes"/>
      <point x="291.5" y="1115.0"/>
      <point x="293.5" y="1215.5"/>
      <point x="299.5" y="1291.0" type="curve"/>
      <point x="256.25" y="1291.0"/>
      <point x="155.5" y="1285.0"/>
      <point x="131.0" y="1282.0" type="curve"/>
      <point x="127.0" y="1236.25"/>
      <point x="125.75" y="1165.25"/>
      <point x="125.75" y="1079.0" type="curve" smooth="yes"/>
      <point x="125.75" y="735.25"/>
      <point x="150.25" y="148.5"/>
    </contour>
  </outline>
</glyph>
<glyph name="I" format="2">
  <advance width="559.5"/>
  <unicode hex="0049"/>
  <anchor x="300.5" y="0.0" name="bottom"/>
  <anchor x="354.0" y="-6.0" name="ogonek"/>
  <anchor x="300.5" y="1291.0" name="top"/>
  <anchor x="68.75" y="1291.0" name="topleft"/>
  <outline>
    <contour>
      <point x="354.0" y="-6.0" type="curve"/>
      <point x="359.25" y="58.0"/>
      <point x="360.75" y="432.0"/>
      <point x="360.75" y="574.25" type="curve" smooth="yes"/>
      <point x="360.75" y="772.0"/>
      <point x="354.0" y="1064.25"/>
      <point x="346.75" y="1320.75" type="curve"/>
      <point x="305.0" y="1320.75"/>
      <point x="220.5" y="1318.5"/>
      <point x="197.0" y="1316.5" type="curve"/>
      <point x="193.75" y="1051.0"/>
      <point x="192.75" y="813.25"/>
      <point x="192.75" y="631.75" type="curve" smooth="yes"/>
      <point x="192.75" y="438.0"/>
      <point x="196.25" y="151.5"/>
      <point x="201.0" y="1.0" type="curve"/>
      <point x="237.75" y="-4.25"/>
      <point x="319.75" y="-6.0"/>
    </contour>
  </outline>
</glyph>
<glyph name="J" format="2">
  <advance width="1178.0"/>
  <unicode hex="004A"/>
  <anchor x="589.0" y="0.0" name="bottom"/>
  <anchor x="820.5" y="1311.25" name="top"/>
  <outline>
    <contour>
      <point x="524.25" y="-19.0" type="curve" smooth="yes"/>
      <point x="826.5" y="-19.0"/>
      <point x="973.5" y="213.75"/>
      <point x="973.5" y="592.25" type="curve" smooth="yes"/>
      <point x="973.5" y="787.25"/>
      <point x="945.75" y="1130.0"/>
      <point x="930.0" y="1305.5" type="curve"/>
      <point x="908.75" y="1308.25"/>
      <point x="879.25" y="1310.25"/>
      <point x="847.25" y="1310.25" type="curve" smooth="yes"/>
      <point x="815.75" y="1310.25"/>
      <point x="779.5" y="1306.5"/>
      <point x="755.0" y="1301.0" type="curve"/>
      <point x="758.75" y="1279.0"/>
      <point x="807.0" y="786.5"/>
      <point x="807.0" y="580.25" type="curve" smooth="yes"/>
      <point x="807.0" y="318.5"/>
      <point x="728.75" y="138.25"/>
      <point x="535.75" y="138.25" type="curve" smooth="yes"/>
      <point x="345.0" y="138.25"/>
      <point x="238.5" y="302.25"/>
      <point x="194.0" y="481.25" type="curve"/>
      <point x="150.0" y="464.0"/>
      <point x="67.75" y="425.0"/>
      <point x="36.5" y="403.75" type="curve"/>
      <point x="105.0" y="164.0"/>
      <point x="260.0" y="-19.0"/>
    </contour>
  </outline>
</glyph>
<glyph name="K" format="2">
  <advance width="1074.5"/>
  <unicode hex="004B"/>
  <anchor x="558.0" y="0.0" name="bottom"/>
  <anchor x="558.0" y="1291.0" name="top"/>
  <outline>
    <contour>
      <point x="183.25" y="-32.0" type="curve"/>
      <point x="247.75" y="-27.0"/>
      <point x="328.5" y="-18.25"/>
      <point x="353.75" y="-15.5" type="curve"/>
      <point x="353.75" y="11.75"/>
      <point x="339.0" y="353.75"/>
      <point x="325.75" y="568.0" type="curve"/>
      <point x="344.75" y="578.0"/>
      <point x="381.5" y="603.75"/>
      <point x="403.5" y="620.75" type="curve"/>
      <point x="606.25" y="408.25"/>
      <point x="814.0" y="39.75"/>
      <point x="831.0" y="0.25" type="curve"/>
      <point x="873.5" y="15.25"/>
      <point x="949.0" y="54.25"/>
      <point x="978.75" y="76.5" type="curve"/>
      <point x="942.25" y="149.75"/>
      <point x="700.25" y="527.0"/>
      <point x="513.25" y="713.25" type="curve"/>
      <point x="761.5" y="902.0"/>
      <point x="937.5" y="1123.25"/>
      <point x="985.75" y="1197.5" type="curve"/>
      <point x="961.0" y="1209.75"/>
      <point x="902.0" y="1249.0"/>
      <point x="856.75" y="1285.5" type="curve"/>
      <point x="720.0" y="1059.5"/>
      <point x="463.0" y="840.25"/>
      <point x="315.0" y="733.25" type="curve"/>
      <point x="302.5" y="954.5"/>
      <point x="285.5" y="1235.75"/>
      <point x="280.0" y="1297.0" type="curve"/>
      <point x="265.0" y="1300.25"/>
      <point x="236.0" y="1302.75"/>
      <point x="205.5" y="1302.75" type="curve" smooth="yes"/>
      <point x="176.75" y="1302.75"/>
      <point x="142.5" y="1300.75"/>
      <point x="122.0" y="1296.0" type="curve"/>
      <point x="146.5" y="907.0"/>
      <point x="183.25" y="111.75"/>
    </contour>
  </outline>
</glyph>
<glyph name="L" format="2">
  <advance width="961.0"/>
  <unicode hex="004C"/>
  <anchor x="496.0" y="0.0" name="bottom"/>
  <anchor x="496.0" y="646.0" name="center"/>
  <anchor x="257.25" y="1297.5" name="top"/>
  <anchor x="540.5" y="896.75" name="topright"/>
  <outline>
    <contour>
      <point x="166.5" y="9.25" type="curve"/>
      <point x="271.25" y="6.5"/>
      <point x="372.5" y="6.25"/>
      <point x="483.0" y="10.0" type="curve" smooth="yes"/>
      <point x="597.25" y="13.75"/>
      <point x="724.5" y="21.0"/>
      <point x="870.5" y="35.25" type="curve"/>
      <point x="873.5" y="79.75"/>
      <point x="873.5" y="154.0"/>
      <point x="872.0" y="189.25" type="curve"/>
      <point x="694.25" y="189.25"/>
      <point x="470.25" y="178.0"/>
      <point x="338.0" y="170.25" type="curve"/>
      <point x="341.0" y="217.5"/>
      <point x="343.5" y="307.0"/>
      <point x="344.5" y="414.5" type="curve" smooth="yes"/>
      <point x="349.25" y="701.25"/>
      <point x="347.75" y="1084.0"/>
      <point x="335.75" y="1292.0" type="curve"/>
      <point x="324.0" y="1294.0"/>
      <point x="285.75" y="1297.0"/>
      <point x="258.0" y="1297.0" type="curve" smooth="yes"/>
      <point x="223.0" y="1297.0"/>
      <point x="184.0" y="1293.5"/>
      <point x="166.5" y="1291.0" type="curve"/>
      <point x="172.0" y="1149.0"/>
      <point x="175.75" y="883.5"/>
      <point x="175.75" y="626.25" type="curve" smooth="yes"/>
      <point x="175.75" y="368.75"/>
      <point x="172.0" y="119.25"/>
    </contour>
  </outline>
</glyph>
<glyph name="M" format="2">
  <advance width="1407.25"/>
  <unicode hex="004D"/>
  <anchor x="727.5" y="0.0" name="bottom"/>
  <anchor x="727.5" y="1291.0" name="top"/>
  <outline>
    <contour>
      <point x="150.25" y="-14.75" type="curve"/>
      <point x="205.75" y="-14.75"/>
      <point x="279.75" y="-12.0"/>
      <point x="317.75" y="-9.75" type="curve"/>
      <point x="317.75" y="73.25"/>
      <point x="319.25" y="705.0"/>
      <point x="320.0" y="1043.75" type="curve"/>
      <point x="380.5" y="853.5"/>
      <point x="619.0" y="57.75"/>
      <point x="626.5" y="25.75" type="curve"/>
      <point x="660.5" y="19.25"/>
      <point x="711.5" y="18.5"/>
      <point x="758.0" y="18.5" type="curve"/>
      <point x="802.5" y="99.25"/>
      <point x="1047.75" y="805.75"/>
      <point x="1100.5" y="1010.25" type="curve"/>
      <point x="1101.75" y="925.5"/>
      <point x="1104.0" y="700.25"/>
      <point x="1102.75" y="527.0" type="curve" smooth="yes"/>
      <point x="1101.5" y="339.25"/>
      <point x="1096.0" y="150.5"/>
      <point x="1082.25" y="2.25" type="curve"/>
      <point x="1119.75" y="-1.25"/>
      <point x="1191.0" y="-5.25"/>
      <point x="1241.75" y="-5.25" type="curve"/>
      <point x="1252.75" y="126.25"/>
      <point x="1257.5" y="411.25"/>
      <point x="1257.5" y="661.25" type="curve" smooth="yes"/>
      <point x="1257.5" y="896.75"/>
      <point x="1249.75" y="1125.25"/>
      <point x="1223.5" y="1252.75" type="curve"/>
      <point x="1182.5" y="1259.0"/>
      <point x="1083.25" y="1264.0"/>
      <point x="1036.5" y="1264.0" type="curve"/>
      <point x="997.5" y="1088.5"/>
      <point x="772.5" y="406.5"/>
      <point x="705.75" y="207.0" type="curve"/>
      <point x="666.25" y="408.0"/>
      <point x="396.25" y="1245.0"/>
      <point x="390.0" y="1262.0" type="curve"/>
      <point x="376.25" y="1262.0"/>
      <point x="243.0" y="1260.75"/>
      <point x="175.5" y="1253.0" type="curve"/>
      <point x="166.0" y="1043.5"/>
      <point x="150.25" y="331.5"/>
    </contour>
  </outline>
</glyph>
<glyph name="N" format="2">
  <advance width="1282.0"/>
  <unicode hex="004E"/>
  <anchor x="641.0" y="0.0" name="bottom"/>
  <anchor x="641.0" y="1291.0" name="top"/>
  <outline>
    <contour>
      <point x="352.5" y="-5.5" type="curve"/>
      <point x="352.5" y="129.25"/>
      <point x="339.25" y="900.0"/>
      <point x="331.25" y="1023.5" type="curve"/>
      <point x="441.75" y="835.0"/>
      <point x="849.5" y="114.0"/>
      <point x="911.5" y="2.0" type="curve"/>
      <point x="932.25" y="-1.0"/>
      <point x="960.0" y="-1.75"/>
      <point x="989.0" y="-1.75" type="curve" smooth="yes"/>
      <point x="1011.25" y="-1.75"/>
      <point x="1034.75" y="-1.5"/>
      <point x="1060.5" y="-0.25" type="curve"/>
      <point x="1067.75" y="30.75"/>
      <point x="1073.25" y="169.0"/>
      <point x="1073.25" y="320.0" type="curve" smooth="yes"/>
      <point x="1073.25" y="581.0"/>
      <point x="1062.75" y="1031.75"/>
      <point x="1053.25" y="1236.25" type="curve"/>
      <point x="1018.5" y="1248.5"/>
      <point x="938.0" y="1259.5"/>
      <point x="883.0" y="1259.5" type="curve"/>
      <point x="928.5" y="253.25" type="line"/>
      <point x="794.0" y="516.0"/>
      <point x="561.5" y="941.0"/>
      <point x="350.5" y="1257.75" type="curve"/>
      <point x="310.75" y="1265.0"/>
      <point x="205.75" y="1271.5"/>
      <point x="168.5" y="1271.5" type="curve"/>
      <point x="170.5" y="1212.25"/>
      <point x="171.25" y="1090.5"/>
      <point x="171.25" y="959.75" type="curve" smooth="yes"/>
      <point x="171.25" y="632.75"/>
      <point x="175.0" y="65.25"/>
      <point x="177.5" y="-1.5" type="curve"/>
      <point x="215.0" y="-4.0"/>
      <point x="300.75" y="-7.0"/>
    </contour>
  </outline>
</glyph>
<glyph name="O" format="2">
  <advance width="1354.0"/>
  <unicode hex="004F"/>
  <anchor x="677.0" y="0.0" name="bottom"/>
  <anchor x="617.5" y="646.0" name="center"/>
  <anchor x="881.0" y="0.0" name="ogonek"/>
  <anchor x="677.0" y="1291.0" name="top"/>
  <anchor x="20.0" y="1291.0" name="topleft"/>
  <anchor x="995.0" y="1177.25" name="topright"/>
  <outline>
    <contour>
      <point x="656.75" y="-51.0" type="curve" smooth="yes"/>
      <point x="1036.75" y="-51.0"/>
      <point x="1202.75" y="252.75"/>
      <point x="1202.75" y="612.0" type="curve" smooth="yes"/>
      <point x="1202.75" y="981.5"/>
      <point x="1057.0" y="1320.0"/>
      <point x="656.75" y="1320.0" type="curve" smooth="yes"/>
      <point x="291.25" y="1320.0"/>
      <point x="113.0" y="1032.0"/>
      <point x="113.0" y="619.5" type="curve" smooth="yes"/>
      <point x="113.0" y="246.75"/>
      <point x="282.75" y="-51.0"/>
    </contour>
    <contour>
      <point x="651.75" y="107.75" type="curve" smooth="yes"/>
      <point x="399.5" y="107.75"/>
      <point x="278.0" y="339.0"/>
      <point x="278.0" y="614.0" type="curve" smooth="yes"/>
      <point x="278.0" y="936.25"/>
      <point x="387.25" y="1178.0"/>
      <point x="668.0" y="1178.0" type="curve" smooth="yes"/>
      <point x="962.75" y="1178.0"/>
      <point x="1051.25" y="895.0"/>
      <point x="1051.25" y="614.25" type="curve" smooth="yes"/>
      <point x="1051.25" y="342.0"/>
      <point x="938.25" y="107.75"/>
    </contour>
  </outline>
</glyph>
<glyph name="P" format="2">
  <advance width="1010.0"/>
  <unicode hex="0050"/>
  <anchor x="505.0" y="0.0" name="bottom"/>
  <anchor x="505.0" y="1291.0" name="top"/>
  <outline>
    <contour>
      <point x="110.25" y="-20.5" type="curve"/>
      <point x="147.25" y="-22.75"/>
      <point x="237.5" y="-24.5"/>
      <point x="277.5" y="-24.5" type="curve"/>
      <point x="278.25" y="230.25"/>
      <point x="288.75" y="539.5"/>
      <point x="292.5" y="623.75" type="curve"/>
      <point x="347.25" y="615.5"/>
      <point x="412.75" y="611.25"/>
      <point x="466.0" y="611.25" type="curve" smooth="yes"/>
      <point x="739.75" y="611.25"/>
      <point x="893.25" y="721.25"/>
      <point x="893.25" y="977.75" type="curve" smooth="yes"/>
      <point x="893.25" y="1191.75"/>
      <point x="745.25" y="1286.0"/>
      <point x="500.5" y="1286.0" type="curve" smooth="yes"/>
      <point x="354.5" y="1286.0"/>
      <point x="246.25" y="1269.5"/>
      <point x="151.75" y="1250.0" type="curve"/>
      <point x="134.5" y="965.5"/>
      <point x="110.25" y="276.25"/>
    </contour>
    <contour>
      <point x="293.25" y="763.0" type="curve"/>
      <point x="294.75" y="801.0"/>
      <point x="302.75" y="1122.5"/>
      <point x="302.5" y="1145.5" type="curve"/>
      <point x="387.75" y="1156.75"/>
      <point x="456.25" y="1162.0"/>
      <point x="512.5" y="1162.0" type="curve" smooth="yes"/>
      <point x="656.5" y="1162.0"/>
      <point x="753.25" y="1115.25"/>
      <point x="753.25" y="969.75" type="curve" smooth="yes"/>
      <point x="753.25" y="795.75"/>
      <point x="610.75" y="748.5"/>
      <point x="468.5" y="748.5" type="curve" smooth="yes"/>
      <point x="405.75" y="748.5"/>
      <point x="342.5" y="755.25"/>
    </contour>
  </outline>
</glyph>
<glyph name="Q" format="2">
  <advance width="1291.0"/>
  <unicode hex="0051"/>
  <anchor x="646.0" y="0.0" name="bottom"/>
  <anchor x="646.0" y="1291.0" name="top"/>
  <outline>
    <contour>
      <point x="1109.25" y="-70.0" type="curve"/>
      <point x="1137.0" y="-38.0"/>
      <point x="1168.0" y="13.25"/>
      <point x="1185.5" y="50.75" type="curve"/>
      <point x="1107.25" y="74.75"/>
      <point x="1024.5" y="118.25"/>
      <point x="970.5" y="170.25" type="curve"/>
      <point x="1069.0" y="272.75"/>
      <point x="1116.5" y="441.25"/>
      <point x="1116.5" y="627.25" type="curve" smooth="yes"/>
      <point x="1116.5" y="1019.75"/>
      <point x="956.5" y="1299.0"/>
      <point x="593.25" y="1299.0" type="curve" smooth="yes"/>
      <point x="264.75" y="1299.0"/>
      <point x="102.75" y="994.5"/>
      <point x="102.75" y="643.5" type="curve" smooth="yes"/>
      <point x="102.75" y="303.0"/>
      <point x="261.25" y="0.75"/>
      <point x="592.0" y="0.75" type="curve" smooth="yes"/>
      <point x="753.25" y="0.75"/>
      <point x="835.25" y="65.0"/>
      <point x="862.25" y="92.0" type="curve"/>
      <point x="898.0" y="57.0"/>
      <point x="1050.25" y="-47.75"/>
    </contour>
    <contour>
      <point x="776.75" y="202.0" type="curve"/>
      <point x="759.25" y="182.75"/>
      <point x="707.75" y="140.75"/>
      <point x="604.75" y="140.75" type="curve" smooth="yes"/>
      <point x="351.25" y="140.75"/>
      <point x="263.5" y="379.75"/>
      <point x="263.5" y="655.25" type="curve" smooth="yes"/>
      <point x="263.5" y="937.25"/>
      <point x="374.5" y="1166.0"/>
      <point x="598.75" y="1166.0" type="curve" smooth="yes"/>
      <point x="859.75" y="1166.0"/>
      <point x="969.5" y="928.0"/>
      <point x="969.5" y="623.75" type="curve" smooth="yes"/>
      <point x="969.5" y="469.75"/>
      <point x="932.0" y="346.75"/>
      <point x="874.75" y="264.25" type="curve"/>
      <point x="797.75" y="337.75"/>
      <point x="731.25" y="459.5"/>
      <point x="694.0" y="538.0" type="curve"/>
      <point x="666.75" y="521.25"/>
      <point x="612.5" y="480.0"/>
      <point x="593.25" y="462.25" type="curve"/>
      <point x="635.5" y="377.0"/>
      <point x="715.0" y="255.75"/>
    </contour>
  </outline>
</glyph>
<glyph name="R" format="2">
  <advance width="1094.0"/>
  <unicode hex="0052"/>
  <anchor x="547.0" y="0.0" name="bottom"/>
  <anchor x="492.75" y="1320.5" name="top"/>
  <outline>
    <contour>
      <point x="189.5" y="-27.75" type="curve"/>
      <point x="246.75" y="-27.75"/>
      <point x="328.25" y="-25.25"/>
      <point x="368.25" y="-17.5" type="curve"/>
      <point x="357.0" y="144.25"/>
      <point x="330.5" y="556.75"/>
      <point x="325.75" y="606.75" type="curve"/>
      <point x="367.0" y="607.0"/>
      <point x="492.0" y="619.5"/>
      <point x="578.25" y="643.25" type="curve"/>
      <point x="625.75" y="544.75"/>
      <point x="763.5" y="190.25"/>
      <point x="800.25" y="-16.5" type="curve"/>
      <point x="820.25" y="-15.25"/>
      <point x="919.25" y="12.75"/>
      <point x="958.0" y="38.75" type="curve"/>
      <point x="925.25" y="180.5"/>
      <point x="785.25" y="562.5"/>
      <point x="708.25" y="684.5" type="curve"/>
      <point x="847.0" y="737.0"/>
      <point x="909.0" y="865.5"/>
      <point x="909.0" y="1002.75" type="curve" smooth="yes"/>
      <point x="909.0" y="1265.75"/>
      <point x="715.75" y="1323.5"/>
      <point x="518.5" y="1323.5" type="curve" smooth="yes"/>
      <point x="394.75" y="1323.5"/>
      <point x="214.75" y="1311.5"/>
      <point x="122.5" y="1303.0" type="curve"/>
      <point x="145.75" y="886.25"/>
      <point x="175.5" y="268.75"/>
    </contour>
    <contour>
      <point x="314.5" y="738.75" type="curve"/>
      <point x="310.75" y="786.75"/>
      <point x="283.25" y="1128.75"/>
      <point x="278.5" y="1186.5" type="curve"/>
      <point x="305.0" y="1189.5"/>
      <point x="456.25" y="1201.5"/>
      <point x="499.25" y="1201.5" type="curve" smooth="yes"/>
      <point x="637.0" y="1201.5"/>
      <point x="761.75" y="1181.0"/>
      <point x="761.75" y="999.0" type="curve" smooth="yes"/>
      <point x="761.75" y="877.75"/>
      <point x="725.25" y="806.0"/>
      <point x="515.0" y="759.5" type="curve" smooth="yes"/>
      <point x="437.0" y="742.75"/>
      <point x="378.25" y="738.75"/>
    </contour>
  </outline>
</glyph>
<glyph name="S" format="2">
  <advance width="1152.0"/>
  <unicode hex="0053"/>
  <anchor x="576.0" y="0.0" name="bottom"/>
  <anchor x="521.0" y="1324.0" name="top"/>
  <outline>
    <contour>
      <point x="568.75" y="-11.25" type="curve" smooth="yes"/>
      <point x="864.75" y="-11.25"/>
      <point x="1029.25" y="196.5"/>
      <point x="1029.25" y="401.5" type="curve" smooth="yes"/>
      <point x="1029.25" y="662.25"/>
      <point x="779.25" y="737.5"/>
      <point x="518.5" y="813.75" type="curve" smooth="yes"/>
      <point x="405.0" y="846.0"/>
      <point x="261.5" y="893.25"/>
      <point x="261.5" y="1023.0" type="curve" smooth="yes"/>
      <point x="261.5" y="1142.5"/>
      <point x="354.25" y="1220.25"/>
      <point x="503.5" y="1220.25" type="curve" smooth="yes"/>
      <point x="708.75" y="1220.25"/>
      <point x="836.75" y="1113.0"/>
      <point x="883.25" y="1059.25" type="curve"/>
      <point x="907.25" y="1080.75"/>
      <point x="955.0" y="1142.5"/>
      <point x="968.5" y="1168.5" type="curve"/>
      <point x="916.75" y="1239.5"/>
      <point x="734.5" y="1349.0"/>
      <point x="518.25" y="1349.0" type="curve" smooth="yes"/>
      <point x="294.0" y="1349.0"/>
      <point x="102.5" y="1246.75"/>
      <point x="102.5" y="1037.75" type="curve" smooth="yes"/>
      <point x="102.5" y="829.25"/>
      <point x="258.5" y="739.25"/>
      <point x="493.0" y="670.0" type="curve" smooth="yes"/>
      <point x="686.75" y="615.25"/>
      <point x="868.0" y="542.75"/>
      <point x="868.0" y="390.25" type="curve" smooth="yes"/>
      <point x="868.0" y="269.5"/>
      <point x="781.0" y="125.75"/>
      <point x="565.75" y="125.75" type="curve" smooth="yes"/>
      <point x="343.75" y="125.75"/>
      <point x="199.0" y="320.0"/>
      <point x="151.5" y="397.0" type="curve"/>
      <point x="119.75" y="378.0"/>
      <point x="51.0" y="319.0"/>
      <point x="34.0" y="298.5" type="curve"/>
      <point x="96.75" y="178.0"/>
      <point x="302.75" y="-11.25"/>
    </contour>
  </outline>
</glyph>
<glyph name="T" format="2">
  <advance width="1039.0"/>
  <unicode hex="0054"/>
  <anchor x="549.5" y="0.0" name="bottom"/>
  <anchor x="520.0" y="646.0" name="center"/>
  <anchor x="520.0" y="1291.0" name="top"/>
  <outline>
    <contour>
      <point x="45.25" y="1174.25" type="curve"/>
      <point x="139.0" y="1178.0"/>
      <point x="336.5" y="1184.75"/>
      <point x="446.0" y="1188.0" type="curve"/>
      <point x="445.75" y="1150.5"/>
      <point x="445.5" y="1100.5"/>
      <point x="445.5" y="1042.0" type="curve" smooth="yes"/>
      <point x="445.5" y="737.0"/>
      <point x="455.25" y="186.5"/>
      <point x="465.25" y="-14.0" type="curve"/>
      <point x="503.5" y="-14.0"/>
      <point x="599.5" y="-9.5"/>
      <point x="637.75" y="-3.25" type="curve"/>
      <point x="635.0" y="72.75"/>
      <point x="607.75" y="1016.5"/>
      <point x="604.25" y="1188.5" type="curve"/>
      <point x="721.5" y="1187.75"/>
      <point x="933.0" y="1184.75"/>
      <point x="991.25" y="1182.5" type="curve"/>
      <point x="995.0" y="1214.5"/>
      <point x="998.0" y="1271.25"/>
      <point x="995.0" y="1320.75" type="curve"/>
      <point x="881.5" y="1334.75"/>
      <point x="741.25" y="1339.25"/>
      <point x="596.75" y="1339.25" type="curve" smooth="yes"/>
      <point x="395.5" y="1339.25"/>
      <point x="186.5" y="1330.0"/>
      <point x="34.0" y="1321.75" type="curve"/>
      <point x="34.0" y="1292.25"/>
      <point x="38.5" y="1209.75"/>
    </contour>
  </outline>
</glyph>
<glyph name="U" format="2">
  <advance width="1212.0"/>
  <unicode hex="0055"/>
  <anchor x="606.0" y="0.0" name="bottom"/>
  <anchor x="776.75" y="0.0" name="ogonek"/>
  <anchor x="606.0" y="1328.5" name="top"/>
  <anchor x="1007.25" y="1174.0" name="topright"/>
  <outline>
    <contour>
      <point x="594.5" y="-39.0" type="curve" smooth="yes"/>
      <point x="982.0" y="-39.0"/>
      <point x="1054.0" y="332.5"/>
      <point x="1054.0" y="852.75" type="curve" smooth="yes"/>
      <point x="1054.0" y="1010.5"/>
      <point x="1043.0" y="1192.75"/>
      <point x="1025.0" y="1311.0" type="curve"/>
      <point x="996.0" y="1319.75"/>
      <point x="905.25" y="1329.5"/>
      <point x="849.25" y="1329.5" type="curve"/>
      <point x="871.5" y="1169.25"/>
      <point x="881.5" y="877.25"/>
      <point x="881.5" y="723.5" type="curve" smooth="yes"/>
      <point x="881.5" y="348.75"/>
      <point x="801.5" y="138.5"/>
      <point x="611.25" y="138.5" type="curve" smooth="yes"/>
      <point x="472.5" y="138.5"/>
      <point x="384.75" y="224.75"/>
      <point x="341.5" y="409.25" type="curve" smooth="yes"/>
      <point x="319.0" y="503.75"/>
      <point x="308.75" y="626.5"/>
      <point x="308.75" y="778.75" type="curve" smooth="yes"/>
      <point x="308.75" y="952.25"/>
      <point x="318.0" y="1187.0"/>
      <point x="333.75" y="1355.25" type="curve"/>
      <point x="308.75" y="1359.25"/>
      <point x="270.0" y="1362.75"/>
      <point x="231.0" y="1362.75" type="curve" smooth="yes"/>
      <point x="204.0" y="1362.75"/>
      <point x="174.75" y="1360.0"/>
      <point x="150.0" y="1356.75" type="curve"/>
      <point x="144.75" y="1246.25"/>
      <point x="135.25" y="1018.0"/>
      <point x="135.25" y="863.75" type="curve" smooth="yes"/>
      <point x="135.25" y="642.0"/>
      <point x="145.75" y="454.25"/>
      <point x="187.0" y="310.25" type="curve" smooth="yes"/>
      <point x="246.25" y="91.75"/>
      <point x="368.0" y="-39.0"/>
    </contour>
  </outline>
</glyph>
<glyph name="V" format="2">
  <advance width="1170.25"/>
  <unicode hex="0056"/>
  <anchor x="588.5" y="0.0" name="bottom"/>
  <anchor x="588.5" y="1291.0" name="top"/>
  <outline>
    <contour>
      <point x="596.75" y="-19.75" type="curve" smooth="yes"/>
      <point x="637.5" y="-19.75"/>
      <point x="672.75" y="-18.75"/>
      <point x="695.5" y="-16.0" type="curve"/>
      <point x="708.75" y="22.75"/>
      <point x="889.5" y="516.5"/>
      <point x="1072.75" y="1319.75" type="curve"/>
      <point x="1024.75" y="1343.5"/>
      <point x="953.25" y="1357.0"/>
      <point x="896.25" y="1360.75" type="curve"/>
      <point x="891.75" y="1325.5"/>
      <point x="767.0" y="648.0"/>
      <point x="592.0" y="143.75" type="curve"/>
      <point x="465.75" y="473.25"/>
      <point x="281.75" y="1211.0"/>
      <point x="264.0" y="1360.5" type="curve"/>
      <point x="221.0" y="1360.5"/>
      <point x="123.5" y="1349.0"/>
      <point x="81.75" y="1335.5" type="curve"/>
      <point x="118.25" y="1129.5"/>
      <point x="301.75" y="383.75"/>
      <point x="483.75" y="-10.0" type="curve"/>
      <point x="508.0" y="-16.0"/>
      <point x="555.25" y="-19.75"/>
    </contour>
  </outline>
</glyph>
<glyph name="W" format="2">
  <advance width="1344.0"/>
  <unicode hex="0057"/>
  <anchor x="672.0" y="0.0" name="bottom"/>
  <anchor x="672.0" y="1291.0" name="top"/>
  <outline>
    <contour>
      <point x="869.25" y="-16.5" type="curve"/>
      <point x="1032.5" y="-2.25" type="line"/>
      <point x="1055.5" y="66.25"/>
      <point x="1178.5" y="742.75"/>
      <point x="1178.5" y="1361.75" type="curve"/>
      <point x="1011.75" y="1345.5" type="line"/>
      <point x="1011.75" y="1038.25"/>
      <point x="982.5" y="509.0"/>
      <point x="931.25" y="202.5" type="curve"/>
      <point x="893.5" y="364.25"/>
      <point x="755.25" y="843.25"/>
      <point x="747.75" y="873.25" type="curve"/>
      <point x="614.0" y="869.25" type="line"/>
      <point x="594.75" y="830.0"/>
      <point x="385.0" y="408.75"/>
      <point x="334.0" y="242.0" type="curve"/>
      <point x="311.75" y="612.5"/>
      <point x="310.5" y="970.75"/>
      <point x="310.5" y="1340.0" type="curve"/>
      <point x="137.25" y="1347.0" type="line"/>
      <point x="137.25" y="894.0"/>
      <point x="166.75" y="491.75"/>
      <point x="212.0" y="-0.75" type="curve"/>
      <point x="368.75" y="-5.25" type="line"/>
      <point x="393.0" y="50.5"/>
      <point x="635.5" y="576.75"/>
      <point x="668.5" y="660.5" type="curve"/>
      <point x="697.75" y="567.25"/>
      <point x="819.5" y="157.75"/>
    </contour>
  </outline>
</glyph>
<glyph name="X" format="2">
  <advance width="1148.0"/>
  <unicode hex="0058"/>
  <anchor x="588.0" y="0.0" name="bottom"/>
  <anchor x="588.0" y="1291.0" name="top"/>
  <outline>
    <contour>
      <point x="516.25" y="644.25" type="curve"/>
      <point x="460.75" y="547.75"/>
      <point x="256.75" y="268.0"/>
      <point x="81.5" y="43.25" type="curve"/>
      <point x="144.0" y="16.75"/>
      <point x="191.25" y="-0.75"/>
      <point x="249.5" y="-7.0" type="curve"/>
      <point x="264.75" y="12.0"/>
      <point x="570.0" y="448.0"/>
      <point x="607.25" y="518.0" type="curve"/>
      <point x="730.25" y="321.25"/>
      <point x="842.5" y="102.75"/>
      <point x="900.75" y="-24.75" type="curve"/>
      <point x="947.75" y="-19.0"/>
      <point x="1015.0" y="-2.25"/>
      <point x="1061.75" y="27.75" type="curve"/>
      <point x="982.5" y="177.75"/>
      <point x="770.5" y="544.5"/>
      <point x="691.25" y="655.0" type="curve"/>
      <point x="744.75" y="728.0"/>
      <point x="961.5" y="1031.25"/>
      <point x="1053.75" y="1252.25" type="curve"/>
      <point x="1023.25" y="1274.0"/>
      <point x="961.75" y="1299.5"/>
      <point x="892.75" y="1313.0" type="curve"/>
      <point x="868.0" y="1240.5"/>
      <point x="746.25" y="968.25"/>
      <point x="611.0" y="775.75" type="curve"/>
      <point x="466.5" y="1034.0"/>
      <point x="323.5" y="1254.25"/>
      <point x="265.0" y="1332.75" type="curve"/>
      <point x="217.0" y="1325.25"/>
      <point x="136.5" y="1297.75"/>
      <point x="87.5" y="1274.5" type="curve"/>
      <point x="139.0" y="1213.5"/>
      <point x="361.75" y="925.0"/>
    </contour>
  </outline>
</glyph>
<glyph name="Y" format="2">
  <advance width="1065.0"/>
  <unicode hex="0059"/>
  <anchor x="575.5" y="0.0" name="bottom"/>
  <anchor x="575.5" y="1291.0" name="top"/>
  <anchor x="62.5" y="1291.0" name="topleft"/>
  <outline>
    <contour>
      <point x="475.0" y="512.5" type="curve"/>
      <point x="467.0" y="353.5"/>
      <point x="456.75" y="95.75"/>
      <point x="456.75" y="-1.5" type="curve"/>
      <point x="486.5" y="-6.25"/>
      <point x="521.25" y="-8.75"/>
      <point x="553.5" y="-8.75" type="curve" smooth="yes"/>
      <point x="582.5" y="-8.75"/>
      <point x="611.5" y="-6.25"/>
      <point x="627.0" y="-3.5" type="curve"/>
      <point x="625.25" y="25.0"/>
      <point x="625.5" y="160.5"/>
      <point x="625.5" y="249.5" type="curve" smooth="yes"/>
      <point x="625.5" y="320.25"/>
      <point x="624.25" y="462.0"/>
      <point x="622.75" y="521.25" type="curve"/>
      <point x="797.25" y="870.5"/>
      <point x="930.0" y="1109.25"/>
      <point x="1014.0" y="1228.75" type="curve"/>
      <point x="976.25" y="1255.5"/>
      <point x="916.5" y="1289.75"/>
      <point x="854.5" y="1304.5" type="curve"/>
      <point x="797.0" y="1195.0"/>
      <point x="588.25" y="778.25"/>
      <point x="542.25" y="686.25" type="curve"/>
      <point x="465.5" y="836.5"/>
      <point x="288.0" y="1251.5"/>
      <point x="266.75" y="1319.75" type="curve"/>
      <point x="218.5" y="1316.0"/>
      <point x="156.75" y="1304.25"/>
      <point x="96.5" y="1281.5" type="curve"/>
      <point x="141.25" y="1173.5"/>
      <point x="412.75" y="604.5"/>
    </contour>
  </outline>
</glyph>
<glyph name="Z" format="2">
  <advance width="1044.0"/>
  <unicode hex="005A"/>
  <anchor x="522.0" y="0.0" name="bottom"/>
  <anchor x="522.0" y="646.0" name="center"/>
  <anchor x="522.0" y="1291.0" name="top"/>
  <outline>
    <contour>
      <point x="891.75" y="-14.0" type="curve"/>
      <point x="895.25" y="2.25"/>
      <point x="900.0" y="40.25"/>
      <point x="901.5" y="78.25" type="curve" smooth="yes"/>
      <point x="903.0" y="109.75"/>
      <point x="902.75" y="142.25"/>
      <point x="901.75" y="163.0" type="curve"/>
      <point x="837.25" y="160.25"/>
      <point x="760.25" y="158.25"/>
      <point x="684.0" y="158.25" type="curve" smooth="yes"/>
      <point x="515.25" y="158.25"/>
      <point x="314.5" y="164.0"/>
      <point x="223.5" y="171.75" type="curve"/>
      <point x="319.75" y="281.75"/>
      <point x="747.0" y="876.75"/>
      <point x="911.0" y="1197.75" type="curve"/>
      <point x="913.5" y="1212.5"/>
      <point x="916.0" y="1242.25"/>
      <point x="916.0" y="1274.0" type="curve" smooth="yes"/>
      <point x="916.0" y="1293.25"/>
      <point x="915.25" y="1314.25"/>
      <point x="912.5" y="1330.0" type="curve"/>
      <point x="875.25" y="1331.0"/>
      <point x="748.25" y="1329.25"/>
      <point x="719.5" y="1328.5" type="curve" smooth="yes"/>
      <point x="537.25" y="1324.0"/>
      <point x="283.0" y="1306.75"/>
      <point x="105.25" y="1294.0" type="curve"/>
      <point x="103.5" y="1278.5"/>
      <point x="102.75" y="1251.25"/>
      <point x="102.75" y="1222.0" type="curve" smooth="yes"/>
      <point x="102.75" y="1195.5"/>
      <point x="103.75" y="1165.5"/>
      <point x="105.5" y="1149.0" type="curve"/>
      <point x="317.25" y="1166.0"/>
      <point x="672.75" y="1189.75"/>
      <point x="745.0" y="1189.75" type="curve"/>
      <point x="653.0" y="1021.5"/>
      <point x="226.75" y="380.25"/>
      <point x="43.75" y="169.0" type="curve"/>
      <point x="43.75" y="133.5"/>
      <point x="46.5" y="54.0"/>
      <point x="48.5" y="22.0" type="curve"/>
      <point x="376.25" y="-4.5"/>
      <point x="655.75" y="-14.0"/>
    </contour>
  </outline>
</glyph>
<glyph name="bracketleft" format="2">
  <advance width="735.0"/>
  <unicode hex="005B"/>
  <outline>
    <contour>
      <point x="330.0" y="-526.75" type="curve" smooth="yes"/>
      <point x="441.0" y="-526.75"/>
      <point x="544.25" y="-522.25"/>
      <point x="612.0" y="-515.75" type="curve"/>
      <point x="615.75" y="-491.75"/>
      <point x="621.5" y="-433.25"/>
      <point x="621.5" y="-395.75" type="curve"/>
      <point x="564.5" y="-397.25"/>
      <point x="476.0" y="-397.0"/>
      <point x="401.75" y="-396.5" type="curve" smooth="yes"/>
      <point x="323.25" y="-395.75"/>
      <point x="256.5" y="-395.0"/>
      <point x="238.75" y="-394.25" type="curve"/>
      <point x="223.5" y="-229.75"/>
      <point x="214.5" y="118.5"/>
      <point x="214.5" y="471.0" type="curve" smooth="yes"/>
      <point x="214.5" y="857.0"/>
      <point x="225.75" y="1252.5"/>
      <point x="253.5" y="1461.25" type="curve"/>
      <point x="400.75" y="1475.25"/>
      <point x="611.75" y="1489.0"/>
      <point x="680.75" y="1491.25" type="curve"/>
      <point x="683.25" y="1504.5"/>
      <point x="686.25" y="1525.5"/>
      <point x="688.5" y="1548.75" type="curve" smooth="yes"/>
      <point x="690.0" y="1570.0"/>
      <point x="690.5" y="1589.75"/>
      <point x="689.0" y="1607.0" type="curve"/>
      <point x="525.75" y="1606.5"/>
      <point x="245.0" y="1588.5"/>
      <point x="113.0" y="1563.0" type="curve"/>
      <point x="78.0" y="1322.25"/>
      <point x="59.0" y="941.5"/>
      <point x="59.0" y="534.75" type="curve" smooth="yes"/>
      <point x="59.0" y="174.0"/>
      <point x="72.75" y="-204.75"/>
      <point x="101.0" y="-520.5" type="curve"/>
      <point x="172.25" y="-524.5"/>
      <point x="252.25" y="-526.75"/>
    </contour>
  </outline>
</glyph>
<glyph name="backslash" format="2">
  <advance width="725.0"/>
  <unicode hex="005C"/>
  <outline>
    <contour>
      <point x="726.75" y="-22.25" type="curve"/>
      <point x="549.5" y="251.5"/>
      <point x="209.25" y="1187.0"/>
      <point x="151.75" y="1470.25" type="curve"/>
      <point x="102.5" y="1467.75"/>
      <point x="34.25" y="1450.0"/>
      <point x="14.5" y="1432.0" type="curve"/>
      <point x="154.75" y="890.0"/>
      <point x="342.5" y="390.0"/>
      <point x="590.75" y="-88.0" type="curve"/>
      <point x="627.0" y="-78.75"/>
      <point x="686.5" y="-52.75"/>
    </contour>
  </outline>
</glyph>
<glyph name="bracketright" format="2">
  <advance width="619.0"/>
  <unicode hex="005D"/>
  <outline>
    <contour>
      <point x="611.5" y="514.75" type="curve" smooth="yes"/>
      <point x="611.5" y="989.5"/>
      <point x="573.0" y="1367.5"/>
      <point x="528.0" y="1595.0" type="curve"/>
      <point x="399.75" y="1613.75"/>
      <point x="277.5" y="1620.0"/>
      <point x="144.0" y="1620.0" type="curve" smooth="yes"/>
      <point x="102.75" y="1620.0"/>
      <point x="44.5" y="1619.75"/>
      <point x="17.0" y="1619.25" type="curve"/>
      <point x="13.0" y="1591.5"/>
      <point x="10.75" y="1546.5"/>
      <point x="10.75" y="1515.75" type="curve"/>
      <point x="19.0" y="1510.5"/>
      <point x="37.75" y="1505.5"/>
      <point x="63.5" y="1501.0" type="curve" smooth="yes"/>
      <point x="156.0" y="1500.5"/>
      <point x="307.75" y="1499.0"/>
      <point x="397.0" y="1486.25" type="curve"/>
      <point x="431.75" y="1313.25"/>
      <point x="455.0" y="903.75"/>
      <point x="455.0" y="489.0" type="curve" smooth="yes"/>
      <point x="455.0" y="177.25"/>
      <point x="441.5" y="-139.25"/>
      <point x="410.5" y="-360.75" type="curve"/>
      <point x="369.5" y="-371.5"/>
      <point x="134.5" y="-390.75"/>
      <point x="35.25" y="-390.75" type="curve"/>
      <point x="33.75" y="-415.75"/>
      <point x="33.25" y="-481.5"/>
      <point x="34.5" y="-511.75" type="curve"/>
      <point x="158.0" y="-511.75"/>
      <point x="399.0" y="-502.0"/>
      <point x="554.0" y="-470.75" type="curve"/>
      <point x="591.5" y="-154.0"/>
      <point x="611.5" y="190.0"/>
    </contour>
  </outline>
</glyph>
<glyph name="asciicircum" format="2">
  <advance width="1032.0"/>
  <unicode hex="005E"/>
  <outline>
    <contour>
      <point x="618.25" y="1325.0" type="curve"/>
      <point x="605.5" y="1328.75"/>
      <point x="577.0" y="1332.5"/>
      <point x="546.25" y="1332.5" type="curve" smooth="yes"/>
      <point x="520.5" y="1332.5"/>
      <point x="492.75" y="1330.5"/>
      <point x="472.25" y="1326.0" type="curve"/>
      <point x="356.25" y="1217.0"/>
      <point x="138.0" y="976.0"/>
      <point x="17.0" y="812.0" type="curve"/>
      <point x="48.75" y="781.5"/>
      <point x="90.25" y="755.5"/>
      <point x="124.5" y="743.5" type="curve"/>
      <point x="199.25" y="848.75"/>
      <point x="449.5" y="1136.75"/>
      <point x="578.0" y="1252.25" type="curve"/>
      <point x="514.0" y="1250.5" type="line"/>
      <point x="597.75" y="1176.75"/>
      <point x="832.25" y="864.0"/>
      <point x="880.25" y="749.25" type="curve"/>
      <point x="928.25" y="761.75"/>
      <point x="968.5" y="780.75"/>
      <point x="993.0" y="805.0" type="curve"/>
      <point x="919.0" y="980.0"/>
      <point x="708.5" y="1236.0"/>
    </contour>
  </outline>
</glyph>
<glyph name="underscore" format="2">
  <advance width="1549.0"/>
  <unicode hex="005F"/>
  <outline>
    <contour>
      <point x="440.5" y="11.25" type="curve" smooth="yes"/>
      <point x="368.25" y="11.25"/>
      <point x="93.25" y="11.25"/>
      <point x="32.5" y="13.25" type="curve"/>
      <point x="34.25" y="-22.75"/>
      <point x="41.0" y="-99.5"/>
      <point x="44.0" y="-118.75" type="curve"/>
      <point x="248.5" y="-122.5"/>
      <point x="894.0" y="-127.75"/>
      <point x="1139.5" y="-127.75" type="curve" smooth="yes"/>
      <point x="1276.25" y="-127.75"/>
      <point x="1375.75" y="-126.0"/>
      <point x="1438.0" y="-123.0" type="curve"/>
      <point x="1443.5" y="-91.25"/>
      <point x="1448.0" y="-38.25"/>
      <point x="1448.0" y="30.5" type="curve"/>
      <point x="1241.0" y="23.25"/>
      <point x="874.25" y="11.25"/>
    </contour>
  </outline>
</glyph>
<glyph name="a" format="2">
  <advance width="1295.0"/>
  <unicode hex="0061"/>
  <anchor x="615.0" y="0.0" name="bottom"/>
  <anchor x="1170.0" y="5.25" name="ogonek"/>
  <anchor x="615.0" y="1063.0" name="top"/>
  <outline>
    <contour>
      <point x="536.75" y="-21.75" type="curve" smooth="yes"/>
      <point x="734.75" y="-21.75"/>
      <point x="901.5" y="71.25"/>
      <point x="945.0" y="143.5" type="curve"/>
      <point x="953.25" y="76.5"/>
      <point x="1018.75" y="-2.75"/>
      <point x="1128.0" y="-2.75" type="curve" smooth="yes"/>
      <point x="1219.5" y="-2.75"/>
      <point x="1304.0" y="61.5"/>
      <point x="1309.0" y="190.75" type="curve"/>
      <point x="1215.0" y="265.75" type="line"/>
      <point x="1212.25" y="188.0"/>
      <point x="1179.75" y="143.25"/>
      <point x="1134.5" y="143.25" type="curve" smooth="yes"/>
      <point x="1097.75" y="143.25"/>
      <point x="1078.0" y="158.0"/>
      <point x="1071.25" y="240.5" type="curve" smooth="yes"/>
      <point x="1065.25" y="304.5"/>
      <point x="1063.0" y="398.0"/>
      <point x="1061.25" y="543.0" type="curve" smooth="yes"/>
      <point x="1058.5" y="673.75"/>
      <point x="1037.5" y="750.75"/>
      <point x="1003.0" y="823.5" type="curve" smooth="yes"/>
      <point x="936.5" y="962.0"/>
      <point x="787.75" y="1060.25"/>
      <point x="567.0" y="1060.25" type="curve" smooth="yes"/>
      <point x="351.5" y="1060.25"/>
      <point x="174.25" y="965.0"/>
      <point x="89.0" y="833.75" type="curve"/>
      <point x="223.0" y="744.5" type="line"/>
      <point x="279.75" y="842.0"/>
      <point x="393.25" y="925.0"/>
      <point x="560.5" y="925.0" type="curve" smooth="yes"/>
      <point x="716.5" y="925.0"/>
      <point x="824.25" y="852.5"/>
      <point x="877.5" y="751.0" type="curve" smooth="yes"/>
      <point x="899.25" y="713.25"/>
      <point x="909.5" y="663.75"/>
      <point x="914.75" y="615.5" type="curve"/>
      <point x="882.75" y="628.75"/>
      <point x="734.5" y="667.5"/>
      <point x="593.0" y="667.5" type="curve" smooth="yes"/>
      <point x="303.75" y="667.5"/>
      <point x="88.5" y="552.0"/>
      <point x="88.5" y="316.5" type="curve" smooth="yes"/>
      <point x="88.5" y="70.25"/>
      <point x="286.25" y="-21.75"/>
    </contour>
    <contour>
      <point x="562.25" y="109.25" type="curve" smooth="yes"/>
      <point x="380.75" y="109.25"/>
      <point x="250.75" y="154.25"/>
      <point x="250.75" y="323.0" type="curve" smooth="yes"/>
      <point x="250.75" y="460.0"/>
      <point x="401.0" y="545.25"/>
      <point x="598.5" y="545.25" type="curve" smooth="yes"/>
      <point x="751.0" y="545.25"/>
      <point x="880.75" y="512.0"/>
      <point x="922.0" y="498.0" type="curve"/>
      <point x="918.25" y="435.0"/>
      <point x="916.25" y="366.5"/>
      <point x="917.25" y="271.25" type="curve"/>
      <point x="840.25" y="179.5"/>
      <point x="703.25" y="109.25"/>
    </contour>
  </outline>
</glyph>
<glyph name="b" format="2">
  <advance width="1200.0"/>
  <unicode hex="0062"/>
  <anchor x="605.0" y="0.0" name="bottom"/>
  <anchor x="605.0" y="1470.0" name="top"/>
  <outline>
    <contour>
      <point x="185.75" y="-17.0" type="curve"/>
      <point x="228.25" y="-20.25"/>
      <point x="311.0" y="-20.0"/>
      <point x="359.25" y="-19.0" type="curve"/>
      <point x="359.0" y="6.75"/>
      <point x="356.25" y="74.25"/>
      <point x="353.5" y="113.25" type="curve"/>
      <point x="393.5" y="75.25"/>
      <point x="488.25" y="4.5"/>
      <point x="647.0" y="4.5" type="curve" smooth="yes"/>
      <point x="902.25" y="4.5"/>
      <point x="1048.25" y="165.5"/>
      <point x="1048.25" y="432.0" type="curve" smooth="yes"/>
      <point x="1048.25" y="716.5"/>
      <point x="912.5" y="921.75"/>
      <point x="662.5" y="921.75" type="curve" smooth="yes"/>
      <point x="490.0" y="921.75"/>
      <point x="350.25" y="788.25"/>
      <point x="319.0" y="754.5" type="curve"/>
      <point x="306.75" y="998.0"/>
      <point x="297.5" y="1289.25"/>
      <point x="297.5" y="1441.0" type="curve"/>
      <point x="229.75" y="1433.0"/>
      <point x="160.75" y="1424.25"/>
      <point x="142.75" y="1421.0" type="curve"/>
      <point x="142.75" y="1209.0"/>
      <point x="173.75" y="147.0"/>
    </contour>
    <contour>
      <point x="349.25" y="258.75" type="curve"/>
      <point x="347.25" y="293.5"/>
      <point x="329.75" y="557.0"/>
      <point x="327.5" y="594.75" type="curve"/>
      <point x="385.5" y="666.5"/>
      <point x="487.25" y="783.75"/>
      <point x="639.0" y="783.75" type="curve" smooth="yes"/>
      <point x="815.5" y="783.75"/>
      <point x="897.0" y="622.75"/>
      <point x="897.0" y="434.0" type="curve" smooth="yes"/>
      <point x="897.0" y="260.75"/>
      <point x="813.0" y="151.5"/>
      <point x="627.75" y="151.5" type="curve" smooth="yes"/>
      <point x="482.0" y="151.5"/>
      <point x="380.25" y="227.5"/>
    </contour>
  </outline>
</glyph>
<glyph name="c" format="2">
  <advance width="1026.0"/>
  <unicode hex="0063"/>
  <anchor x="513.0" y="0.0" name="bottom"/>
  <anchor x="513.0" y="1063.0" name="top"/>
  <outline>
    <contour>
      <point x="942.75" y="206.0" type="curve"/>
      <point x="829.75" y="309.75" type="line"/>
      <point x="817.25" y="289.25"/>
      <point x="725.5" y="153.0"/>
      <point x="545.5" y="153.0" type="curve" smooth="yes"/>
      <point x="321.0" y="153.0"/>
      <point x="230.75" y="355.0"/>
      <point x="230.75" y="578.5" type="curve" smooth="yes"/>
      <point x="230.75" y="804.25"/>
      <point x="343.25" y="963.75"/>
      <point x="543.75" y="963.75" type="curve" smooth="yes"/>
      <point x="737.75" y="963.75"/>
      <point x="795.75" y="827.5"/>
      <point x="808.75" y="793.5" type="curve"/>
      <point x="921.25" y="873.75" type="line"/>
      <point x="865.75" y="987.75"/>
      <point x="732.5" y="1094.5"/>
      <point x="547.5" y="1094.5" type="curve" smooth="yes"/>
      <point x="235.5" y="1094.5"/>
      <point x="72.0" y="866.25"/>
      <point x="72.0" y="539.25" type="curve" smooth="yes"/>
      <point x="72.0" y="243.75"/>
      <point x="245.75" y="-6.0"/>
      <point x="537.0" y="-6.0" type="curve" smooth="yes"/>
      <point x="748.75" y="-6.0"/>
      <point x="897.25" y="111.0"/>
    </contour>
  </outline>
</glyph>
<glyph name="d" format="2">
  <advance width="1195.0"/>
  <unicode hex="0064"/>
  <anchor x="598.0" y="0.0" name="bottom"/>
  <anchor x="871.75" y="1212.75" name="center"/>
  <anchor x="598.0" y="1470.0" name="top"/>
  <anchor x="1085.0" y="1019.5" name="topright"/>
  <outline>
    <contour>
      <point x="877.5" y="3.0" type="curve"/>
      <point x="903.75" y="0.25"/>
      <point x="995.75" y="-1.25"/>
      <point x="1022.5" y="-1.25" type="curve"/>
      <point x="1022.5" y="476.0"/>
      <point x="1026.5" y="937.5"/>
      <point x="1064.0" y="1406.75" type="curve"/>
      <point x="1027.25" y="1413.75"/>
      <point x="966.75" y="1418.0"/>
      <point x="921.75" y="1418.0" type="curve"/>
      <point x="913.5" y="1341.75"/>
      <point x="887.5" y="973.0"/>
      <point x="882.75" y="841.25" type="curve"/>
      <point x="840.25" y="881.0"/>
      <point x="712.5" y="959.0"/>
      <point x="522.0" y="959.0" type="curve" smooth="yes"/>
      <point x="222.75" y="959.0"/>
      <point x="72.25" y="726.75"/>
      <point x="72.25" y="470.25" type="curve" smooth="yes"/>
      <point x="72.25" y="189.0"/>
      <point x="225.25" y="5.25"/>
      <point x="499.75" y="5.25" type="curve" smooth="yes"/>
      <point x="757.75" y="5.25"/>
      <point x="860.5" y="154.75"/>
      <point x="876.0" y="182.25" type="curve"/>
      <point x="876.0" y="151.5"/>
      <point x="876.5" y="39.0"/>
    </contour>
    <contour>
      <point x="536.0" y="153.5" type="curve" smooth="yes"/>
      <point x="336.0" y="153.5"/>
      <point x="225.25" y="262.75"/>
      <point x="225.25" y="476.5" type="curve" smooth="yes"/>
      <point x="225.25" y="687.25"/>
      <point x="337.0" y="819.25"/>
      <point x="548.25" y="819.25" type="curve" smooth="yes"/>
      <point x="701.75" y="819.25"/>
      <point x="829.25" y="745.75"/>
      <point x="876.5" y="704.75" type="curve"/>
      <point x="874.5" y="645.0"/>
      <point x="872.25" y="416.0"/>
      <point x="872.25" y="350.0" type="curve"/>
      <point x="847.5" y="306.25"/>
      <point x="745.75" y="153.5"/>
    </contour>
  </outline>
</glyph>
<glyph name="e" format="2">
  <advance width="1099.75"/>
  <unicode hex="0065"/>
  <anchor x="560.0" y="10.0" name="bottom"/>
  <anchor x="746.75" y="43.25" name="ogonek"/>
  <anchor x="605.75" y="1068.25" name="top"/>
  <outline>
    <contour>
      <point x="1036.5" y="237.0" type="curve"/>
      <point x="1018.5" y="278.25"/>
      <point x="946.75" y="346.5"/>
      <point x="929.75" y="360.25" type="curve"/>
      <point x="904.75" y="331.25"/>
      <point x="804.5" y="163.0"/>
      <point x="584.0" y="163.0" type="curve" smooth="yes"/>
      <point x="432.5" y="163.0"/>
      <point x="291.25" y="247.5"/>
      <point x="254.5" y="383.75" type="curve" smooth="yes"/>
      <point x="245.75" y="417.25"/>
      <point x="239.25" y="454.0"/>
      <point x="238.5" y="493.25" type="curve"/>
      <point x="360.25" y="511.25"/>
      <point x="523.0" y="528.25"/>
      <point x="664.25" y="528.25" type="curve" smooth="yes"/>
      <point x="782.0" y="528.25"/>
      <point x="974.75" y="519.5"/>
      <point x="1007.25" y="517.5" type="curve"/>
      <point x="1009.75" y="558.75"/>
      <point x="1009.25" y="596.25"/>
      <point x="1006.25" y="636.5" type="curve" smooth="yes"/>
      <point x="986.0" y="897.0"/>
      <point x="845.5" y="1068.25"/>
      <point x="595.75" y="1068.25" type="curve" smooth="yes"/>
      <point x="297.75" y="1068.25"/>
      <point x="78.5" y="865.75"/>
      <point x="78.5" y="547.25" type="curve" smooth="yes"/>
      <point x="78.5" y="208.25"/>
      <point x="272.75" y="16.25"/>
      <point x="573.25" y="16.25" type="curve" smooth="yes"/>
      <point x="834.5" y="16.25"/>
      <point x="988.0" y="167.25"/>
    </contour>
    <contour>
      <point x="238.25" y="609.5" type="curve"/>
      <point x="244.0" y="823.75"/>
      <point x="397.25" y="945.75"/>
      <point x="586.25" y="945.75" type="curve" smooth="yes"/>
      <point x="750.5" y="945.75"/>
      <point x="826.0" y="823.0"/>
      <point x="850.0" y="715.5" type="curve" smooth="yes"/>
      <point x="856.0" y="687.5"/>
      <point x="858.75" y="660.25"/>
      <point x="858.75" y="637.5" type="curve"/>
      <point x="832.0" y="639.25"/>
      <point x="767.0" y="642.75"/>
      <point x="672.25" y="642.75" type="curve" smooth="yes"/>
      <point x="489.0" y="642.75"/>
      <point x="345.75" y="626.75"/>
    </contour>
  </outline>
</glyph>
<glyph name="f" format="2">
  <advance width="896.0"/>
  <unicode hex="0066"/>
  <anchor x="448.0" y="0.0" name="bottom"/>
  <anchor x="448.0" y="1470.0" name="top"/>
  <outline>
    <contour>
      <point x="311.75" y="-2.25" type="curve"/>
      <point x="356.5" y="-1.5"/>
      <point x="442.5" y="6.0"/>
      <point x="485.75" y="15.25" type="curve"/>
      <point x="473.5" y="51.25"/>
      <point x="404.75" y="398.5"/>
      <point x="381.5" y="556.0" type="curve"/>
      <point x="489.5" y="569.75"/>
      <point x="657.75" y="581.0"/>
      <point x="676.75" y="581.0" type="curve"/>
      <point x="676.75" y="623.25"/>
      <point x="673.75" y="681.25"/>
      <point x="668.25" y="717.25" type="curve"/>
      <point x="603.75" y="718.75"/>
      <point x="429.0" y="704.75"/>
      <point x="362.25" y="697.25" type="curve"/>
      <point x="354.25" y="754.0"/>
      <point x="346.5" y="842.25"/>
      <point x="346.5" y="901.0" type="curve" smooth="yes"/>
      <point x="346.5" y="1063.5"/>
      <point x="389.5" y="1212.75"/>
      <point x="546.75" y="1212.75" type="curve" smooth="yes"/>
      <point x="693.0" y="1212.75"/>
      <point x="766.75" y="1047.0"/>
      <point x="785.25" y="1009.0" type="curve"/>
      <point x="806.0" y="1029.5"/>
      <point x="861.25" y="1097.75"/>
      <point x="882.75" y="1132.75" type="curve"/>
      <point x="857.25" y="1191.5"/>
      <point x="750.25" y="1365.25"/>
      <point x="535.75" y="1365.25" type="curve" smooth="yes"/>
      <point x="298.25" y="1365.25"/>
      <point x="190.0" y="1160.75"/>
      <point x="190.0" y="916.75" type="curve" smooth="yes"/>
      <point x="190.0" y="841.75"/>
      <point x="197.75" y="753.0"/>
      <point x="207.75" y="672.5" type="curve"/>
      <point x="181.25" y="667.5"/>
      <point x="44.75" y="634.75"/>
      <point x="20.0" y="625.0" type="curve"/>
      <point x="22.25" y="580.5"/>
      <point x="31.0" y="522.25"/>
      <point x="43.0" y="486.25" type="curve"/>
      <point x="84.0" y="501.25"/>
      <point x="169.0" y="522.75"/>
      <point x="220.5" y="532.5" type="curve"/>
      <point x="247.75" y="332.25"/>
      <point x="306.75" y="24.75"/>
    </contour>
  </outline>
</glyph>
<glyph name="g" format="2">
  <advance width="1231.0"/>
  <unicode hex="0067"/>
  <anchor x="616.0" y="-530.0" name="bottom"/>
  <anchor x="616.0" y="1063.0" name="top"/>
  <outline>
    <contour>
      <point x="636.0" y="222.25" type="curve" smooth="yes"/>
      <point x="884.5" y="222.25"/>
      <point x="1071.0" y="380.75"/>
      <point x="1071.0" y="651.5" type="curve" smooth="yes"/>
      <point x="1071.0" y="752.25"/>
      <point x="1044.0" y="836.5"/>
      <point x="994.0" y="900.75" type="curve"/>
      <point x="1039.25" y="951.5"/>
      <point x="1106.5" y="1013.25"/>
      <point x="1134.5" y="1031.75" type="curve"/>
      <point x="1113.5" y="1053.75"/>
      <point x="1060.5" y="1120.5"/>
      <point x="1044.5" y="1144.25" type="curve"/>
      <point x="999.75" y="1109.5"/>
      <point x="939.75" y="1044.75"/>
      <point x="899.0" y="982.25" type="curve"/>
      <point x="827.25" y="1030.0"/>
      <point x="731.5" y="1056.0"/>
      <point x="617.5" y="1056.0" type="curve" smooth="yes"/>
      <point x="360.0" y="1056.0"/>
      <point x="156.25" y="903.0"/>
      <point x="156.25" y="642.25" type="curve" smooth="yes"/>
      <point x="156.25" y="538.0"/>
      <point x="186.25" y="434.75"/>
      <point x="258.75" y="357.0" type="curve"/>
      <point x="199.75" y="329.5"/>
      <point x="158.25" y="271.75"/>
      <point x="158.25" y="209.75" type="curve" smooth="yes"/>
      <point x="158.25" y="156.5"/>
      <point x="189.75" y="101.5"/>
      <point x="256.25" y="64.5" type="curve"/>
      <point x="136.75" y="15.75"/>
      <point x="67.5" y="-80.0"/>
      <point x="67.5" y="-191.0" type="curve" smooth="yes"/>
      <point x="67.5" y="-430.0"/>
      <point x="289.0" y="-499.0"/>
      <point x="583.5" y="-499.0" type="curve" smooth="yes"/>
      <point x="900.5" y="-499.0"/>
      <point x="1099.25" y="-399.5"/>
      <point x="1099.25" y="-157.75" type="curve" smooth="yes"/>
      <point x="1099.25" y="24.5"/>
      <point x="943.25" y="105.75"/>
      <point x="731.25" y="105.75" type="curve" smooth="yes"/>
      <point x="637.25" y="105.75"/>
      <point x="531.75" y="104.75"/>
      <point x="434.25" y="103.25" type="curve"/>
      <point x="350.75" y="108.5"/>
      <point x="296.0" y="160.5"/>
      <point x="296.0" y="210.75" type="curve" smooth="yes"/>
      <point x="296.0" y="240.25"/>
      <point x="314.25" y="270.75"/>
      <point x="357.5" y="292.75" type="curve"/>
      <point x="426.0" y="248.75"/>
      <point x="517.25" y="222.25"/>
    </contour>
    <contour>
      <point x="598.75" y="-387.75" type="curve" smooth="yes"/>
      <point x="405.0" y="-387.75"/>
      <point x="233.75" y="-350.0"/>
      <point x="233.75" y="-195.75" type="curve" smooth="yes"/>
      <point x="233.75" y="-53.5"/>
      <point x="353.25" y="-15.5"/>
      <point x="441.25" y="-15.5" type="curve" smooth="yes"/>
      <point x="700.5" y="-15.5" type="line" smooth="yes"/>
      <point x="804.5" y="-15.5"/>
      <point x="941.25" y="-44.75"/>
      <point x="941.25" y="-180.75" type="curve" smooth="yes"/>
      <point x="941.25" y="-340.5"/>
      <point x="783.5" y="-387.75"/>
    </contour>
    <contour>
      <point x="616.25" y="353.0" type="curve" smooth="yes"/>
      <point x="438.5" y="353.0"/>
      <point x="321.0" y="470.25"/>
      <point x="321.0" y="648.25" type="curve" smooth="yes"/>
      <point x="321.0" y="845.5"/>
      <point x="452.0" y="924.0"/>
      <point x="634.0" y="924.0" type="curve" smooth="yes"/>
      <point x="805.75" y="924.0"/>
      <point x="922.5" y="809.0"/>
      <point x="922.5" y="656.25" type="curve" smooth="yes"/>
      <point x="922.5" y="483.5"/>
      <point x="833.0" y="353.0"/>
    </contour>
  </outline>
</glyph>
<glyph name="h" format="2">
  <advance width="1123.0"/>
  <unicode hex="0068"/>
  <anchor x="564.5" y="0.0" name="bottom"/>
  <anchor x="335.75" y="1246.0" name="center"/>
  <anchor x="202.0" y="1411.25" name="top"/>
  <outline>
    <contour>
      <point x="298.75" y="-23.0" type="curve"/>
      <point x="313.75" y="69.25"/>
      <point x="328.25" y="335.5"/>
      <point x="328.25" y="561.75" type="curve"/>
      <point x="343.5" y="592.5"/>
      <point x="482.0" y="765.25"/>
      <point x="645.5" y="765.25" type="curve" smooth="yes"/>
      <point x="792.0" y="765.25"/>
      <point x="822.75" y="647.5"/>
      <point x="822.75" y="476.0" type="curve" smooth="yes"/>
      <point x="822.75" y="326.0"/>
      <point x="796.25" y="125.5"/>
      <point x="777.25" y="-6.0" type="curve"/>
      <point x="797.75" y="-9.5"/>
      <point x="829.75" y="-12.5"/>
      <point x="860.5" y="-12.5" type="curve" smooth="yes"/>
      <point x="889.75" y="-12.5"/>
      <point x="919.25" y="-11.25"/>
      <point x="944.0" y="-8.75" type="curve"/>
      <point x="963.0" y="151.75"/>
      <point x="983.5" y="357.5"/>
      <point x="983.5" y="506.25" type="curve" smooth="yes"/>
      <point x="983.5" y="747.5"/>
      <point x="908.75" y="910.0"/>
      <point x="696.75" y="910.0" type="curve" smooth="yes"/>
      <point x="545.75" y="910.0"/>
      <point x="396.0" y="819.0"/>
      <point x="328.0" y="730.0" type="curve"/>
      <point x="325.75" y="1001.5"/>
      <point x="311.25" y="1292.0"/>
      <point x="281.0" y="1443.0" type="curve"/>
      <point x="251.0" y="1441.5"/>
      <point x="155.75" y="1424.5"/>
      <point x="136.5" y="1417.5" type="curve"/>
      <point x="149.0" y="1219.0"/>
      <point x="160.25" y="951.0"/>
      <point x="160.25" y="695.5" type="curve" smooth="yes"/>
      <point x="160.25" y="403.75"/>
      <point x="147.25" y="128.25"/>
      <point x="129.75" y="-18.75" type="curve"/>
      <point x="144.5" y="-23.0"/>
      <point x="181.5" y="-25.75"/>
      <point x="214.5" y="-25.75" type="curve" smooth="yes"/>
      <point x="246.25" y="-25.75"/>
      <point x="278.75" y="-24.75"/>
    </contour>
  </outline>
</glyph>
<glyph name="i" format="2">
  <advance width="610.0"/>
  <unicode hex="0069"/>
  <anchor x="282.25" y="0.0" name="bottom"/>
  <outline>
    <contour>
      <point x="356.25" y="-1.5" type="curve"/>
      <point x="369.25" y="90.5"/>
      <point x="378.75" y="489.0"/>
      <point x="378.75" y="738.75" type="curve" smooth="yes"/>
      <point x="378.75" y="824.5"/>
      <point x="376.5" y="896.5"/>
      <point x="373.5" y="931.25" type="curve"/>
      <point x="344.25" y="931.25"/>
      <point x="249.0" y="926.25"/>
      <point x="227.0" y="924.25" type="curve"/>
      <point x="227.0" y="720.0"/>
      <point x="199.75" y="86.75"/>
      <point x="184.75" y="-0.25" type="curve"/>
      <point x="209.0" y="-3.75"/>
      <point x="237.5" y="-6.0"/>
      <point x="270.0" y="-6.0" type="curve" smooth="yes"/>
      <point x="302.0" y="-6.0"/>
      <point x="336.75" y="-3.5"/>
    </contour>
    <contour>
      <point x="312.25" y="1096.25" type="curve" smooth="yes"/>
      <point x="382.5" y="1096.25"/>
      <point x="424.75" y="1152.0"/>
      <point x="424.75" y="1217.5" type="curve" smooth="yes"/>
      <point x="424.75" y="1293.25"/>
      <point x="380.25" y="1352.75"/>
      <point x="308.5" y="1352.75" type="curve" smooth="yes"/>
      <point x="241.75" y="1352.75"/>
      <point x="185.0" y="1307.75"/>
      <point x="185.0" y="1225.25" type="curve" smooth="yes"/>
      <point x="185.0" y="1153.0"/>
      <point x="231.5" y="1096.25"/>
    </contour>
  </outline>
</glyph>
<glyph name="j" format="2">
  <advance width="636.75"/>
  <unicode hex="006A"/>
  <outline>
    <contour>
      <point x="485.25" y="178.0" type="curve" smooth="yes"/>
      <point x="485.25" y="430.25"/>
      <point x="447.5" y="755.5"/>
      <point x="401.75" y="969.5" type="curve"/>
      <point x="239.25" y="958.75" type="line"/>
      <point x="283.75" y="707.5"/>
      <point x="317.5" y="412.25"/>
      <point x="317.5" y="180.75" type="curve" smooth="yes"/>
      <point x="317.5" y="-48.0"/>
      <point x="291.25" y="-330.75"/>
      <point x="124.5" y="-330.75" type="curve" smooth="yes"/>
      <point x="-4.75" y="-330.75"/>
      <point x="-92.5" y="-199.25"/>
      <point x="-131.25" y="-93.75" type="curve"/>
      <point x="-172.5" y="-112.75"/>
      <point x="-247.0" y="-148.5"/>
      <point x="-285.75" y="-180.0" type="curve"/>
      <point x="-221.5" y="-356.0"/>
      <point x="-60.25" y="-474.0"/>
      <point x="128.75" y="-474.0" type="curve" smooth="yes"/>
      <point x="412.75" y="-474.0"/>
      <point x="485.25" y="-197.75"/>
    </contour>
    <contour>
      <point x="286.0" y="1368.0" type="curve" smooth="yes"/>
      <point x="212.5" y="1368.0"/>
      <point x="158.0" y="1315.0"/>
      <point x="158.0" y="1243.75" type="curve" smooth="yes"/>
      <point x="158.0" y="1174.0"/>
      <point x="216.5" y="1131.25"/>
      <point x="281.0" y="1131.25" type="curve" smooth="yes"/>
      <point x="350.75" y="1131.25"/>
      <point x="407.25" y="1179.5"/>
      <point x="407.25" y="1248.0" type="curve" smooth="yes"/>
      <point x="407.25" y="1310.25"/>
      <point x="358.25" y="1368.0"/>
    </contour>
  </outline>
</glyph>
<glyph name="k" format="2">
  <advance width="1156.0"/>
  <unicode hex="006B"/>
  <anchor x="593.0" y="0.0" name="bottom"/>
  <anchor x="593.0" y="1470.0" name="top"/>
  <outline>
    <contour>
      <point x="922.75" y="-40.0" type="curve"/>
      <point x="952.5" y="-30.5"/>
      <point x="1049.0" y="9.5"/>
      <point x="1066.75" y="21.0" type="curve"/>
      <point x="932.5" y="237.75"/>
      <point x="665.75" y="557.5"/>
      <point x="598.25" y="613.0" type="curve"/>
      <point x="690.5" y="685.25"/>
      <point x="957.0" y="838.75"/>
      <point x="1044.25" y="885.0" type="curve"/>
      <point x="1029.5" y="911.25"/>
      <point x="985.75" y="973.0"/>
      <point x="957.75" y="1004.75" type="curve"/>
      <point x="831.5" y="934.25"/>
      <point x="494.25" y="743.5"/>
      <point x="332.5" y="579.0" type="curve"/>
      <point x="339.25" y="695.5"/>
      <point x="354.75" y="1195.25"/>
      <point x="354.75" y="1441.5" type="curve"/>
      <point x="333.0" y="1447.25"/>
      <point x="303.0" y="1450.0"/>
      <point x="271.25" y="1450.0" type="curve" smooth="yes"/>
      <point x="245.25" y="1450.0"/>
      <point x="218.75" y="1449.0"/>
      <point x="199.0" y="1447.75" type="curve"/>
      <point x="199.0" y="1243.5"/>
      <point x="151.25" y="82.0"/>
      <point x="143.0" y="-28.0" type="curve"/>
      <point x="167.75" y="-31.75"/>
      <point x="198.75" y="-34.75"/>
      <point x="229.75" y="-34.75" type="curve" smooth="yes"/>
      <point x="257.0" y="-34.75"/>
      <point x="283.25" y="-32.5"/>
      <point x="305.75" y="-29.25" type="curve"/>
      <point x="310.0" y="27.0"/>
      <point x="323.5" y="280.25"/>
      <point x="326.25" y="396.0" type="curve"/>
      <point x="343.25" y="414.25"/>
      <point x="442.5" y="494.5"/>
      <point x="484.5" y="527.0" type="curve"/>
      <point x="582.5" y="441.5"/>
      <point x="843.75" y="93.5"/>
    </contour>
  </outline>
</glyph>
<glyph name="l" format="2">
  <advance width="645.0"/>
  <unicode hex="006C"/>
  <anchor x="323.0" y="0.0" name="bottom"/>
  <anchor x="323.0" y="735.0" name="center"/>
  <anchor x="323.0" y="1470.0" name="top"/>
  <anchor x="387.0" y="1027.25" name="topright"/>
  <outline>
    <contour>
      <point x="611.0" y="70.25" type="curve"/>
      <point x="603.75" y="85.5"/>
      <point x="552.0" y="173.75"/>
      <point x="536.25" y="191.0" type="curve"/>
      <point x="514.5" y="146.0"/>
      <point x="488.5" y="114.0"/>
      <point x="432.5" y="114.0" type="curve" smooth="yes"/>
      <point x="317.75" y="114.0"/>
      <point x="301.5" y="283.25"/>
      <point x="301.5" y="442.25" type="curve" smooth="yes"/>
      <point x="301.5" y="688.0"/>
      <point x="326.25" y="1204.75"/>
      <point x="338.25" y="1426.0" type="curve"/>
      <point x="310.0" y="1429.75"/>
      <point x="281.75" y="1432.0"/>
      <point x="252.0" y="1432.0" type="curve" smooth="yes"/>
      <point x="232.25" y="1432.0"/>
      <point x="205.75" y="1430.75"/>
      <point x="183.5" y="1429.0" type="curve"/>
      <point x="172.75" y="1200.25"/>
      <point x="153.0" y="708.0"/>
      <point x="153.0" y="441.25" type="curve" smooth="yes"/>
      <point x="153.0" y="166.25"/>
      <point x="180.25" y="-34.75"/>
      <point x="404.75" y="-34.75" type="curve" smooth="yes"/>
      <point x="509.75" y="-34.75"/>
      <point x="583.0" y="24.5"/>
    </contour>
  </outline>
</glyph>
<glyph name="m" format="2">
  <advance width="1858.0"/>
  <unicode hex="006D"/>
  <anchor x="929.0" y="0.0" name="bottom"/>
  <anchor x="929.0" y="1063.0" name="top"/>
  <outline>
    <contour>
      <point x="196.0" y="-9.25" type="curve"/>
      <point x="219.0" y="-13.5"/>
      <point x="261.0" y="-16.25"/>
      <point x="301.25" y="-16.25" type="curve" smooth="yes"/>
      <point x="320.75" y="-16.25"/>
      <point x="352.75" y="-14.25"/>
      <point x="363.5" y="-13.25" type="curve"/>
      <point x="357.0" y="36.0"/>
      <point x="331.5" y="262.0"/>
      <point x="319.5" y="581.75" type="curve"/>
      <point x="326.5" y="684.5"/>
      <point x="466.0" y="888.0"/>
      <point x="631.25" y="888.0" type="curve" smooth="yes"/>
      <point x="846.75" y="888.0"/>
      <point x="873.5" y="558.0"/>
      <point x="873.5" y="247.25" type="curve" smooth="yes"/>
      <point x="873.5" y="164.5"/>
      <point x="872.0" y="81.5"/>
      <point x="870.5" y="-7.0" type="curve"/>
      <point x="888.5" y="-11.0"/>
      <point x="925.0" y="-13.0"/>
      <point x="956.0" y="-13.0" type="curve" smooth="yes"/>
      <point x="982.25" y="-13.0"/>
      <point x="1012.0" y="-11.0"/>
      <point x="1030.25" y="-9.0" type="curve"/>
      <point x="1030.25" y="62.25"/>
      <point x="1031.25" y="137.5"/>
      <point x="1032.25" y="206.5" type="curve" smooth="yes"/>
      <point x="1035.5" y="550.0"/>
      <point x="1072.5" y="898.75"/>
      <point x="1341.75" y="898.75" type="curve" smooth="yes"/>
      <point x="1491.25" y="898.75"/>
      <point x="1552.0" y="754.5"/>
      <point x="1552.0" y="481.5" type="curve" smooth="yes"/>
      <point x="1552.0" y="346.5"/>
      <point x="1536.25" y="177.5"/>
      <point x="1510.75" y="-19.25" type="curve"/>
      <point x="1540.0" y="-22.25"/>
      <point x="1570.0" y="-23.5"/>
      <point x="1595.75" y="-23.5" type="curve" smooth="yes"/>
      <point x="1623.25" y="-23.5"/>
      <point x="1650.5" y="-21.5"/>
      <point x="1676.0" y="-17.75" type="curve"/>
      <point x="1688.75" y="99.25"/>
      <point x="1703.5" y="292.0"/>
      <point x="1703.5" y="444.75" type="curve" smooth="yes"/>
      <point x="1703.5" y="787.0"/>
      <point x="1637.5" y="1046.25"/>
      <point x="1357.25" y="1046.25" type="curve" smooth="yes"/>
      <point x="1108.0" y="1046.25"/>
      <point x="989.75" y="845.5"/>
      <point x="959.5" y="638.75" type="curve"/>
      <point x="958.0" y="687.25"/>
      <point x="952.5" y="739.25"/>
      <point x="939.25" y="790.0" type="curve" smooth="yes"/>
      <point x="904.75" y="917.75"/>
      <point x="825.25" y="1032.25"/>
      <point x="667.75" y="1032.25" type="curve" smooth="yes"/>
      <point x="433.0" y="1032.25"/>
      <point x="331.5" y="861.25"/>
      <point x="310.0" y="801.75" type="curve"/>
      <point x="310.0" y="829.75"/>
      <point x="304.0" y="986.25"/>
      <point x="302.0" y="1027.0" type="curve"/>
      <point x="268.0" y="1026.25"/>
      <point x="185.0" y="1013.5"/>
      <point x="152.5" y="1002.5" type="curve"/>
      <point x="152.5" y="728.0"/>
      <point x="170.0" y="239.75"/>
    </contour>
  </outline>
</glyph>
<glyph name="n" format="2">
  <advance width="1330.0"/>
  <unicode hex="006E"/>
  <anchor x="677.5" y="0.0" name="bottom"/>
  <anchor x="677.5" y="1063.0" name="top"/>
  <outline>
    <contour>
      <point x="303.0" y="-12.5" type="curve"/>
      <point x="315.75" y="102.0"/>
      <point x="341.0" y="378.0"/>
      <point x="350.0" y="722.0" type="curve"/>
      <point x="421.0" y="787.25"/>
      <point x="570.0" y="911.25"/>
      <point x="774.0" y="911.25" type="curve" smooth="yes"/>
      <point x="959.75" y="911.25"/>
      <point x="996.25" y="763.25"/>
      <point x="996.25" y="541.0" type="curve" smooth="yes"/>
      <point x="996.25" y="383.75"/>
      <point x="975.75" y="186.75"/>
      <point x="948.0" y="-3.0" type="curve"/>
      <point x="969.0" y="-6.75"/>
      <point x="1003.0" y="-8.0"/>
      <point x="1036.25" y="-8.0" type="curve" smooth="yes"/>
      <point x="1071.5" y="-8.0"/>
      <point x="1106.0" y="-6.0"/>
      <point x="1122.0" y="-3.0" type="curve"/>
      <point x="1144.5" y="201.75"/>
      <point x="1156.75" y="394.0"/>
      <point x="1156.75" y="535.25" type="curve" smooth="yes"/>
      <point x="1156.75" y="876.5"/>
      <point x="1095.75" y="1060.0"/>
      <point x="792.25" y="1060.0" type="curve" smooth="yes"/>
      <point x="620.5" y="1060.0"/>
      <point x="434.5" y="954.75"/>
      <point x="352.0" y="872.25" type="curve"/>
      <point x="352.5" y="926.75"/>
      <point x="352.5" y="1018.5"/>
      <point x="350.25" y="1040.75" type="curve"/>
      <point x="332.5" y="1044.0"/>
      <point x="306.25" y="1044.75"/>
      <point x="282.5" y="1044.75" type="curve" smooth="yes"/>
      <point x="243.0" y="1044.75"/>
      <point x="205.75" y="1041.25"/>
      <point x="179.5" y="1037.0" type="curve"/>
      <point x="179.5" y="479.0"/>
      <point x="162.25" y="215.25"/>
      <point x="136.25" y="-8.25" type="curve"/>
      <point x="155.25" y="-11.25"/>
      <point x="195.25" y="-13.0"/>
      <point x="224.25" y="-13.5" type="curve" smooth="yes"/>
      <point x="252.5" y="-14.0"/>
      <point x="282.0" y="-13.25"/>
    </contour>
  </outline>
</glyph>
<glyph name="o" format="2">
  <advance width="1171.5"/>
  <unicode hex="006F"/>
  <anchor x="600.0" y="0.0" name="bottom"/>
  <anchor x="600.0" y="532.0" name="center"/>
  <anchor x="774.0" y="0.0" name="ogonek"/>
  <anchor x="600.0" y="1063.0" name="top"/>
  <anchor x="894.0" y="941.0" name="topright"/>
  <outline>
    <contour>
      <point x="600.75" y="-33.5" type="curve" smooth="yes"/>
      <point x="897.5" y="-33.5"/>
      <point x="1074.0" y="164.5"/>
      <point x="1074.0" y="470.5" type="curve" smooth="yes"/>
      <point x="1074.0" y="829.0"/>
      <point x="926.5" y="1072.25"/>
      <point x="600.25" y="1072.25" type="curve" smooth="yes"/>
      <point x="297.5" y="1072.25"/>
      <point x="96.25" y="879.75"/>
      <point x="96.25" y="537.0" type="curve" smooth="yes"/>
      <point x="96.25" y="169.25"/>
      <point x="252.25" y="-33.5"/>
    </contour>
    <contour>
      <point x="593.75" y="109.5" type="curve" smooth="yes"/>
      <point x="373.0" y="109.5"/>
      <point x="255.75" y="281.25"/>
      <point x="255.75" y="530.75" type="curve" smooth="yes"/>
      <point x="255.75" y="776.75"/>
      <point x="371.5" y="944.75"/>
      <point x="592.25" y="944.75" type="curve" smooth="yes"/>
      <point x="819.75" y="944.75"/>
      <point x="922.75" y="753.75"/>
      <point x="922.75" y="491.75" type="curve" smooth="yes"/>
      <point x="922.75" y="307.5"/>
      <point x="835.25" y="109.5"/>
    </contour>
  </outline>
</glyph>
<glyph name="p" format="2">
  <advance width="1206.5"/>
  <unicode hex="0070"/>
  <anchor x="600.0" y="0.0" name="bottom"/>
  <anchor x="600.0" y="1063.0" name="top"/>
  <outline>
    <contour>
      <point x="84.5" y="-435.5" type="curve"/>
      <point x="116.75" y="-435.5"/>
      <point x="196.75" y="-432.25"/>
      <point x="253.0" y="-420.5" type="curve"/>
      <point x="272.0" y="-296.25"/>
      <point x="301.25" y="138.75"/>
      <point x="304.25" y="210.0" type="curve"/>
      <point x="349.0" y="162.0"/>
      <point x="529.0" y="91.25"/>
      <point x="662.5" y="91.25" type="curve" smooth="yes"/>
      <point x="947.75" y="91.25"/>
      <point x="1103.5" y="296.5"/>
      <point x="1103.5" y="609.25" type="curve" smooth="yes"/>
      <point x="1103.5" y="904.25"/>
      <point x="957.0" y="1080.75"/>
      <point x="698.25" y="1080.75" type="curve" smooth="yes"/>
      <point x="519.5" y="1080.75"/>
      <point x="382.5" y="984.75"/>
      <point x="330.5" y="929.25" type="curve"/>
      <point x="330.5" y="977.25"/>
      <point x="330.75" y="1051.75"/>
      <point x="330.25" y="1083.0" type="curve"/>
      <point x="278.0" y="1083.0"/>
      <point x="212.0" y="1076.75"/>
      <point x="169.0" y="1064.75" type="curve"/>
      <point x="169.0" y="750.25"/>
      <point x="142.75" y="53.5"/>
    </contour>
    <contour>
      <point x="642.5" y="250.75" type="curve" smooth="yes"/>
      <point x="475.0" y="250.75"/>
      <point x="357.75" y="335.75"/>
      <point x="315.5" y="372.0" type="curve"/>
      <point x="316.0" y="460.25"/>
      <point x="326.25" y="736.0"/>
      <point x="327.75" y="782.0" type="curve"/>
      <point x="362.0" y="827.0"/>
      <point x="498.25" y="942.75"/>
      <point x="661.75" y="942.75" type="curve" smooth="yes"/>
      <point x="841.0" y="942.75"/>
      <point x="939.75" y="827.5"/>
      <point x="939.75" y="627.25" type="curve" smooth="yes"/>
      <point x="939.75" y="392.25"/>
      <point x="863.5" y="250.75"/>
    </contour>
  </outline>
</glyph>
<glyph name="q" format="2">
  <advance width="1207.0"/>
  <unicode hex="0071"/>
  <anchor x="604.0" y="0.0" name="bottom"/>
  <anchor x="604.0" y="1063.0" name="top"/>
  <outline>
    <contour>
      <point x="1005.25" y="-455.25" type="curve"/>
      <point x="992.0" y="-343.5"/>
      <point x="969.25" y="-119.5"/>
      <point x="969.25" y="108.25" type="curve" smooth="yes"/>
      <point x="969.25" y="403.5"/>
      <point x="997.75" y="775.25"/>
      <point x="1037.5" y="1064.75" type="curve"/>
      <point x="997.25" y="1076.5"/>
      <point x="939.25" y="1089.0"/>
      <point x="891.25" y="1090.5" type="curve"/>
      <point x="886.5" y="1072.0"/>
      <point x="875.75" y="996.0"/>
      <point x="874.25" y="967.5" type="curve"/>
      <point x="812.5" y="1023.25"/>
      <point x="682.5" y="1085.5"/>
      <point x="522.0" y="1085.5" type="curve" smooth="yes"/>
      <point x="218.0" y="1085.5"/>
      <point x="94.25" y="863.75"/>
      <point x="94.25" y="546.5" type="curve" smooth="yes"/>
      <point x="94.25" y="247.25"/>
      <point x="229.5" y="36.0"/>
      <point x="510.75" y="36.0" type="curve" smooth="yes"/>
      <point x="675.75" y="36.0"/>
      <point x="788.25" y="113.25"/>
      <point x="819.0" y="160.75" type="curve"/>
      <point x="819.0" y="-45.75"/>
      <point x="827.25" y="-291.75"/>
      <point x="845.0" y="-445.75" type="curve"/>
      <point x="889.5" y="-450.75"/>
      <point x="953.0" y="-455.25"/>
    </contour>
    <contour>
      <point x="523.5" y="192.0" type="curve" smooth="yes"/>
      <point x="336.25" y="192.0"/>
      <point x="248.75" y="362.5"/>
      <point x="248.75" y="561.25" type="curve" smooth="yes"/>
      <point x="248.75" y="777.75"/>
      <point x="329.5" y="938.0"/>
      <point x="553.0" y="938.0" type="curve" smooth="yes"/>
      <point x="704.5" y="938.0"/>
      <point x="833.75" y="854.5"/>
      <point x="858.75" y="835.25" type="curve"/>
      <point x="847.5" y="740.25"/>
      <point x="823.5" y="412.0"/>
      <point x="819.0" y="322.25" type="curve"/>
      <point x="784.25" y="278.0"/>
      <point x="669.0" y="192.0"/>
    </contour>
  </outline>
</glyph>
<glyph name="r" format="2">
  <advance width="853.0"/>
  <unicode hex="0072"/>
  <anchor x="427.0" y="0.0" name="bottom"/>
  <anchor x="427.0" y="1063.0" name="top"/>
  <outline>
    <contour>
      <point x="253.0" y="883.25" type="curve"/>
      <point x="247.75" y="926.5"/>
      <point x="224.75" y="1012.5"/>
      <point x="208.0" y="1059.0" type="curve"/>
      <point x="187.75" y="1057.75"/>
      <point x="106.75" y="1040.75"/>
      <point x="67.75" y="1027.75" type="curve"/>
      <point x="148.25" y="701.5"/>
      <point x="181.25" y="320.25"/>
      <point x="181.25" y="-0.5" type="curve"/>
      <point x="235.5" y="-2.75"/>
      <point x="314.25" y="-2.5"/>
      <point x="359.0" y="1.5" type="curve"/>
      <point x="359.0" y="124.5"/>
      <point x="320.5" y="534.0"/>
      <point x="281.25" y="731.75" type="curve"/>
      <point x="347.25" y="834.5"/>
      <point x="484.5" y="909.5"/>
      <point x="611.75" y="909.5" type="curve" smooth="yes"/>
      <point x="689.0" y="909.5"/>
      <point x="738.75" y="890.0"/>
      <point x="771.25" y="876.0" type="curve"/>
      <point x="804.0" y="1038.0" type="line"/>
      <point x="765.75" y="1058.25"/>
      <point x="693.5" y="1069.75"/>
      <point x="630.5" y="1069.75" type="curve" smooth="yes"/>
      <point x="483.25" y="1069.75"/>
      <point x="318.0" y="986.5"/>
    </contour>
  </outline>
</glyph>
<glyph name="s" format="2">
  <advance width="993.25"/>
  <unicode hex="0073"/>
  <anchor x="499.5" y="-62.5" name="bottom"/>
  <anchor x="514.5" y="1100.75" name="top"/>
  <outline>
    <contour>
      <point x="501.0" y="-82.25" type="curve" smooth="yes"/>
      <point x="746.0" y="-82.25"/>
      <point x="937.75" y="35.0"/>
      <point x="937.75" y="257.75" type="curve" smooth="yes"/>
      <point x="937.75" y="449.25"/>
      <point x="782.5" y="552.0"/>
      <point x="544.75" y="630.5" type="curve" smooth="yes"/>
      <point x="404.0" y="678.25"/>
      <point x="291.5" y="735.5"/>
      <point x="291.5" y="833.5" type="curve" smooth="yes"/>
      <point x="291.5" y="945.0"/>
      <point x="412.75" y="982.75"/>
      <point x="533.5" y="982.75" type="curve" smooth="yes"/>
      <point x="647.5" y="982.75"/>
      <point x="745.75" y="936.5"/>
      <point x="812.5" y="896.25" type="curve"/>
      <point x="839.0" y="930.75"/>
      <point x="868.25" y="990.25"/>
      <point x="878.25" y="1022.75" type="curve"/>
      <point x="814.25" y="1068.5"/>
      <point x="681.5" y="1117.25"/>
      <point x="521.5" y="1117.25" type="curve" smooth="yes"/>
      <point x="316.0" y="1117.25"/>
      <point x="137.0" y="1020.5"/>
      <point x="137.0" y="833.25" type="curve" smooth="yes"/>
      <point x="137.0" y="646.5"/>
      <point x="289.25" y="577.25"/>
      <point x="484.0" y="508.25" type="curve" smooth="yes"/>
      <point x="651.75" y="449.75"/>
      <point x="781.25" y="383.25"/>
      <point x="781.25" y="248.0" type="curve" smooth="yes"/>
      <point x="781.25" y="130.0"/>
      <point x="661.0" y="58.75"/>
      <point x="513.0" y="58.75" type="curve" smooth="yes"/>
      <point x="363.75" y="58.75"/>
      <point x="211.5" y="156.75"/>
      <point x="129.25" y="258.75" type="curve"/>
      <point x="98.75" y="232.5"/>
      <point x="47.25" y="153.0"/>
      <point x="28.75" y="118.75" type="curve"/>
      <point x="129.0" y="-0.5"/>
      <point x="331.75" y="-82.25"/>
    </contour>
  </outline>
</glyph>
<glyph name="t" format="2">
  <advance width="964.0"/>
  <unicode hex="0074"/>
  <anchor x="584.5" y="-13.25" name="bottom"/>
  <anchor x="457.0" y="532.0" name="center"/>
  <anchor x="395.0" y="1428.5" name="top"/>
  <anchor x="557.0" y="1233.5" name="topright"/>
  <outline>
    <contour>
      <point x="844.75" y="204.25" type="curve"/>
      <point x="832.5" y="213.75"/>
      <point x="753.75" y="268.25"/>
      <point x="735.5" y="287.0" type="curve"/>
      <point x="722.0" y="229.25"/>
      <point x="690.75" y="103.0"/>
      <point x="600.0" y="103.0" type="curve" smooth="yes"/>
      <point x="466.25" y="103.0"/>
      <point x="455.75" y="236.25"/>
      <point x="455.75" y="359.5" type="curve" smooth="yes"/>
      <point x="455.75" y="477.25"/>
      <point x="469.0" y="842.75"/>
      <point x="473.75" y="934.75" type="curve"/>
      <point x="523.25" y="938.5"/>
      <point x="597.75" y="942.0"/>
      <point x="654.0" y="942.75" type="curve" smooth="yes"/>
      <point x="732.75" y="943.75"/>
      <point x="828.0" y="941.25"/>
      <point x="841.75" y="939.75" type="curve"/>
      <point x="841.75" y="971.0"/>
      <point x="839.75" y="1035.75"/>
      <point x="835.5" y="1063.75" type="curve"/>
      <point x="819.75" y="1065.25"/>
      <point x="716.75" y="1068.25"/>
      <point x="620.0" y="1067.0" type="curve" smooth="yes"/>
      <point x="583.75" y="1066.5"/>
      <point x="514.75" y="1063.25"/>
      <point x="475.5" y="1061.25" type="curve"/>
      <point x="476.25" y="1101.5"/>
      <point x="476.75" y="1167.75"/>
      <point x="476.75" y="1208.25" type="curve" smooth="yes"/>
      <point x="476.75" y="1322.5"/>
      <point x="471.0" y="1409.75"/>
      <point x="468.25" y="1431.75" type="curve"/>
      <point x="315.0" y="1426.25" type="line"/>
      <point x="318.75" y="1387.0"/>
      <point x="323.5" y="1328.5"/>
      <point x="324.0" y="1269.25" type="curve" smooth="yes"/>
      <point x="324.5" y="1197.0"/>
      <point x="323.25" y="1110.5"/>
      <point x="321.75" y="1051.0" type="curve"/>
      <point x="224.75" y="1044.75"/>
      <point x="112.5" y="1029.0"/>
      <point x="38.75" y="1017.75" type="curve"/>
      <point x="38.75" y="998.75"/>
      <point x="42.25" y="926.75"/>
      <point x="51.0" y="880.25" type="curve"/>
      <point x="75.5" y="886.75"/>
      <point x="181.0" y="906.5"/>
      <point x="320.5" y="920.0" type="curve"/>
      <point x="316.25" y="836.0"/>
      <point x="303.25" y="466.5"/>
      <point x="303.25" y="307.0" type="curve" smooth="yes"/>
      <point x="303.25" y="126.0"/>
      <point x="366.75" y="-38.0"/>
      <point x="585.75" y="-38.0" type="curve" smooth="yes"/>
      <point x="757.0" y="-38.0"/>
      <point x="816.5" y="101.0"/>
    </contour>
  </outline>
</glyph>
<glyph name="u" format="2">
  <advance width="1178.0"/>
  <unicode hex="0075"/>
  <anchor x="584.0" y="0.0" name="bottom"/>
  <anchor x="763.5" y="0.0" name="ogonek"/>
  <anchor x="584.0" y="1063.0" name="top"/>
  <anchor x="952.25" y="930.5" name="topright"/>
  <outline>
    <contour>
      <point x="814.5" y="1006.75" type="curve"/>
      <point x="838.5" y="864.5"/>
      <point x="851.25" y="727.75"/>
      <point x="851.25" y="607.0" type="curve" smooth="yes"/>
      <point x="851.25" y="270.5"/>
      <point x="749.75" y="97.75"/>
      <point x="570.5" y="97.75" type="curve" smooth="yes"/>
      <point x="378.5" y="97.75"/>
      <point x="275.5" y="286.75"/>
      <point x="275.5" y="670.25" type="curve" smooth="yes"/>
      <point x="275.5" y="780.75"/>
      <point x="283.5" y="902.75"/>
      <point x="298.75" y="1031.75" type="curve"/>
      <point x="276.25" y="1038.25"/>
      <point x="242.25" y="1042.75"/>
      <point x="210.0" y="1045.0" type="curve" smooth="yes"/>
      <point x="185.0" y="1047.25"/>
      <point x="151.0" y="1048.5"/>
      <point x="132.5" y="1047.5" type="curve"/>
      <point x="122.0" y="921.5"/>
      <point x="111.5" y="787.0"/>
      <point x="111.5" y="658.75" type="curve" smooth="yes"/>
      <point x="111.5" y="275.75"/>
      <point x="196.75" y="-46.75"/>
      <point x="571.0" y="-46.75" type="curve" smooth="yes"/>
      <point x="910.5" y="-46.75"/>
      <point x="1014.75" y="243.5"/>
      <point x="1014.75" y="588.75" type="curve" smooth="yes"/>
      <point x="1014.75" y="727.0"/>
      <point x="997.25" y="873.25"/>
      <point x="973.75" y="1010.5" type="curve"/>
      <point x="955.75" y="1013.25"/>
      <point x="920.5" y="1014.75"/>
      <point x="894.0" y="1014.75" type="curve" smooth="yes"/>
      <point x="863.5" y="1014.75"/>
      <point x="829.5" y="1011.0"/>
    </contour>
  </outline>
</glyph>
<glyph name="v" format="2">
  <advance width="1007.0"/>
  <unicode hex="0076"/>
  <anchor x="504.0" y="0.0" name="bottom"/>
  <anchor x="504.0" y="1063.0" name="top"/>
  <outline>
    <contour>
      <point x="798.0" y="1091.0" type="curve"/>
      <point x="744.25" y="860.5"/>
      <point x="585.5" y="399.75"/>
      <point x="494.0" y="181.5" type="curve"/>
      <point x="411.5" y="372.25"/>
      <point x="227.5" y="879.0"/>
      <point x="175.5" y="1092.0" type="curve"/>
      <point x="136.75" y="1082.0"/>
      <point x="65.25" y="1064.25"/>
      <point x="28.75" y="1054.0" type="curve"/>
      <point x="122.0" y="745.5"/>
      <point x="268.0" y="306.5"/>
      <point x="423.0" y="-14.25" type="curve"/>
      <point x="440.75" y="-17.0"/>
      <point x="466.75" y="-19.25"/>
      <point x="493.5" y="-19.25" type="curve" smooth="yes"/>
      <point x="522.25" y="-19.25"/>
      <point x="551.0" y="-17.5"/>
      <point x="568.25" y="-14.25" type="curve"/>
      <point x="683.75" y="247.0"/>
      <point x="899.25" y="838.0"/>
      <point x="953.5" y="1047.75" type="curve"/>
      <point x="942.75" y="1053.25"/>
      <point x="872.5" y="1076.75"/>
    </contour>
  </outline>
</glyph>
<glyph name="w" format="2">
  <advance width="1520.0"/>
  <unicode hex="0077"/>
  <anchor x="760.0" y="0.0" name="bottom"/>
  <anchor x="760.0" y="1063.0" name="top"/>
  <outline>
    <contour>
      <point x="423.75" y="7.0" type="curve" smooth="yes"/>
      <point x="581.75" y="7.0"/>
      <point x="689.25" y="148.75"/>
      <point x="719.5" y="335.75" type="curve"/>
      <point x="744.25" y="149.75"/>
      <point x="808.5" y="14.25"/>
      <point x="986.5" y="14.25" type="curve" smooth="yes"/>
      <point x="1271.5" y="14.25"/>
      <point x="1358.0" y="442.5"/>
      <point x="1358.0" y="811.0" type="curve" smooth="yes"/>
      <point x="1358.0" y="877.75"/>
      <point x="1354.25" y="969.5"/>
      <point x="1349.5" y="1037.5" type="curve"/>
      <point x="1327.75" y="1039.75"/>
      <point x="1293.75" y="1041.75"/>
      <point x="1269.5" y="1041.75" type="curve" smooth="yes"/>
      <point x="1247.5" y="1041.75"/>
      <point x="1225.75" y="1041.75"/>
      <point x="1203.0" y="1041.0" type="curve"/>
      <point x="1205.5" y="983.0"/>
      <point x="1207.75" y="882.5"/>
      <point x="1207.75" y="828.25" type="curve" smooth="yes"/>
      <point x="1207.75" y="479.25"/>
      <point x="1150.75" y="150.25"/>
      <point x="982.25" y="150.25" type="curve" smooth="yes"/>
      <point x="811.75" y="150.25"/>
      <point x="798.75" y="447.25"/>
      <point x="798.75" y="827.75" type="curve" smooth="yes"/>
      <point x="798.75" y="1036.0" type="line"/>
      <point x="766.0" y="1039.0"/>
      <point x="686.0" y="1040.25"/>
      <point x="651.25" y="1040.25" type="curve"/>
      <point x="653.75" y="976.0"/>
      <point x="655.5" y="879.25"/>
      <point x="655.5" y="817.0" type="curve" smooth="yes"/>
      <point x="655.5" y="452.75"/>
      <point x="594.75" y="162.25"/>
      <point x="439.25" y="162.25" type="curve" smooth="yes"/>
      <point x="308.5" y="162.25"/>
      <point x="268.0" y="350.75"/>
      <point x="268.0" y="594.5" type="curve" smooth="yes"/>
      <point x="268.0" y="736.5"/>
      <point x="278.25" y="897.75"/>
      <point x="296.25" y="1053.0" type="curve"/>
      <point x="253.75" y="1056.5"/>
      <point x="181.25" y="1058.5"/>
      <point x="140.5" y="1058.5" type="curve"/>
      <point x="126.0" y="912.0"/>
      <point x="113.25" y="755.5"/>
      <point x="113.25" y="610.5" type="curve" smooth="yes"/>
      <point x="113.25" y="282.75"/>
      <point x="176.75" y="7.0"/>
    </contour>
  </outline>
</glyph>
<glyph name="x" format="2">
  <advance width="1142.0"/>
  <unicode hex="0078"/>
  <anchor x="586.0" y="0.0" name="bottom"/>
  <anchor x="586.0" y="1063.0" name="top"/>
  <outline>
    <contour>
      <point x="150.5" y="-27.0" type="curve"/>
      <point x="224.75" y="44.0"/>
      <point x="448.5" y="324.75"/>
      <point x="573.5" y="494.5" type="curve"/>
      <point x="667.75" y="386.0"/>
      <point x="837.5" y="89.5"/>
      <point x="898.5" y="-16.5" type="curve"/>
      <point x="940.5" y="4.75"/>
      <point x="1000.5" y="41.5"/>
      <point x="1027.5" y="66.0" type="curve"/>
      <point x="943.25" y="204.0"/>
      <point x="779.0" y="486.75"/>
      <point x="673.0" y="608.25" type="curve"/>
      <point x="796.5" y="748.5"/>
      <point x="943.5" y="969.5"/>
      <point x="1007.5" y="1088.75" type="curve"/>
      <point x="976.5" y="1108.5"/>
      <point x="908.25" y="1139.25"/>
      <point x="867.5" y="1155.0" type="curve"/>
      <point x="794.5" y="1019.25"/>
      <point x="692.75" y="853.5"/>
      <point x="583.5" y="711.25" type="curve"/>
      <point x="509.75" y="815.25"/>
      <point x="246.5" y="1065.5"/>
      <point x="152.5" y="1148.75" type="curve"/>
      <point x="117.5" y="1127.5"/>
      <point x="54.25" y="1076.25"/>
      <point x="36.75" y="1054.0" type="curve"/>
      <point x="142.75" y="962.5"/>
      <point x="346.5" y="784.25"/>
      <point x="494.0" y="606.25" type="curve"/>
      <point x="375.5" y="462.0"/>
      <point x="87.75" y="129.0"/>
      <point x="38.25" y="78.5" type="curve"/>
      <point x="57.5" y="50.75"/>
      <point x="112.25" y="2.25"/>
    </contour>
  </outline>
</glyph>
<glyph name="y" format="2">
  <advance width="1079.0"/>
  <unicode hex="0079"/>
  <anchor x="540.0" y="0.0" name="bottom"/>
  <anchor x="540.0" y="1063.0" name="top"/>
  <outline>
    <contour>
      <point x="403.25" y="-528.25" type="curve" smooth="yes"/>
      <point x="718.5" y="-528.25"/>
      <point x="872.0" y="-280.25"/>
      <point x="890.0" y="56.0" type="curve" smooth="yes"/>
      <point x="903.25" y="299.75"/>
      <point x="915.0" y="576.5"/>
      <point x="915.0" y="771.25" type="curve" smooth="yes"/>
      <point x="915.0" y="840.5"/>
      <point x="913.75" y="901.5"/>
      <point x="911.25" y="951.25" type="curve"/>
      <point x="885.5" y="957.75"/>
      <point x="855.25" y="960.5"/>
      <point x="824.0" y="960.5" type="curve" smooth="yes"/>
      <point x="803.75" y="960.5"/>
      <point x="783.25" y="959.25"/>
      <point x="766.25" y="957.0" type="curve"/>
      <point x="767.0" y="936.0"/>
      <point x="761.25" y="692.25"/>
      <point x="748.5" y="557.0" type="curve" smooth="yes"/>
      <point x="727.5" y="313.5"/>
      <point x="626.5" y="190.0"/>
      <point x="472.75" y="190.0" type="curve" smooth="yes"/>
      <point x="277.25" y="190.0"/>
      <point x="252.75" y="455.25"/>
      <point x="252.75" y="683.25" type="curve" smooth="yes"/>
      <point x="252.75" y="821.25"/>
      <point x="265.75" y="960.25"/>
      <point x="269.25" y="982.5" type="curve"/>
      <point x="256.75" y="985.75"/>
      <point x="221.75" y="987.25"/>
      <point x="188.0" y="987.25" type="curve" smooth="yes"/>
      <point x="157.0" y="987.25"/>
      <point x="124.5" y="985.75"/>
      <point x="109.5" y="982.75" type="curve"/>
      <point x="103.5" y="876.75"/>
      <point x="99.5" y="776.75"/>
      <point x="99.5" y="682.75" type="curve" smooth="yes"/>
      <point x="99.5" y="313.0"/>
      <point x="170.0" y="41.25"/>
      <point x="448.75" y="41.25" type="curve" smooth="yes"/>
      <point x="638.0" y="41.25"/>
      <point x="726.5" y="142.0"/>
      <point x="756.0" y="217.25" type="curve"/>
      <point x="754.5" y="-92.0"/>
      <point x="664.25" y="-383.0"/>
      <point x="410.0" y="-383.0" type="curve" smooth="yes"/>
      <point x="272.5" y="-383.0"/>
      <point x="128.75" y="-304.75"/>
      <point x="79.75" y="-267.5" type="curve"/>
      <point x="56.75" y="-296.75"/>
      <point x="13.25" y="-372.25"/>
      <point x="2.25" y="-402.25" type="curve"/>
      <point x="76.75" y="-455.25"/>
      <point x="222.75" y="-528.25"/>
    </contour>
  </outline>
</glyph>
<glyph name="z" format="2">
  <advance width="1074.0"/>
  <unicode hex="007A"/>
  <anchor x="537.0" y="0.0" name="bottom"/>
  <anchor x="537.0" y="532.0" name="center"/>
  <anchor x="537.0" y="1063.0" name="top"/>
  <outline>
    <contour>
      <point x="969.5" y="5.75" type="curve"/>
      <point x="975.75" y="27.25"/>
      <point x="980.5" y="137.75"/>
      <point x="980.5" y="161.5" type="curve"/>
      <point x="900.5" y="152.25"/>
      <point x="721.75" y="145.5"/>
      <point x="562.75" y="145.5" type="curve" smooth="yes"/>
      <point x="429.75" y="145.5"/>
      <point x="297.5" y="148.5"/>
      <point x="260.25" y="155.5" type="curve"/>
      <point x="346.5" y="270.5"/>
      <point x="836.5" y="797.75"/>
      <point x="966.0" y="914.75" type="curve"/>
      <point x="966.0" y="935.0"/>
      <point x="959.75" y="1027.5"/>
      <point x="957.0" y="1038.25" type="curve"/>
      <point x="832.75" y="1042.75"/>
      <point x="698.75" y="1044.25"/>
      <point x="581.5" y="1044.25" type="curve" smooth="yes"/>
      <point x="344.75" y="1044.25"/>
      <point x="146.5" y="1035.5"/>
      <point x="90.0" y="1033.0" type="curve"/>
      <point x="83.75" y="899.0" type="line"/>
      <point x="102.75" y="903.25"/>
      <point x="320.0" y="909.25"/>
      <point x="489.75" y="909.25" type="curve" smooth="yes"/>
      <point x="604.5" y="909.25"/>
      <point x="725.75" y="908.0"/>
      <point x="758.5" y="904.5" type="curve"/>
      <point x="680.75" y="829.0"/>
      <point x="169.25" y="286.25"/>
      <point x="68.0" y="156.25" type="curve"/>
      <point x="60.75" y="12.0" type="line"/>
      <point x="188.5" y="-0.5"/>
      <point x="366.25" y="-5.0"/>
      <point x="542.25" y="-5.0" type="curve" smooth="yes"/>
      <point x="698.25" y="-5.0"/>
      <point x="856.5" y="0.25"/>
    </contour>
  </outline>
</glyph>
<glyph name="braceleft" format="2">
  <advance width="665.0"/>
  <unicode hex="007B"/>
  <outline>
    <contour>
      <point x="516.25" y="-383.25" type="curve"/>
      <point x="539.5" y="-348.5"/>
      <point x="552.25" y="-310.75"/>
      <point x="563.75" y="-275.0" type="curve"/>
      <point x="441.25" y="-250.5"/>
      <point x="374.5" y="-105.5"/>
      <point x="374.5" y="34.25" type="curve" smooth="yes"/>
      <point x="374.5" y="85.75"/>
      <point x="382.25" y="124.5"/>
      <point x="393.0" y="165.0" type="curve" smooth="yes"/>
      <point x="404.5" y="208.25"/>
      <point x="413.75" y="251.75"/>
      <point x="413.75" y="313.25" type="curve" smooth="yes"/>
      <point x="413.75" y="517.0"/>
      <point x="254.25" y="591.0"/>
      <point x="125.75" y="605.25" type="curve"/>
      <point x="123.5" y="590.75" type="line"/>
      <point x="254.5" y="601.75"/>
      <point x="361.5" y="724.5"/>
      <point x="361.5" y="885.75" type="curve" smooth="yes"/>
      <point x="361.5" y="942.25"/>
      <point x="352.25" y="980.5"/>
      <point x="341.5" y="1018.75" type="curve" smooth="yes"/>
      <point x="331.5" y="1054.5"/>
      <point x="323.75" y="1090.5"/>
      <point x="323.75" y="1139.5" type="curve" smooth="yes"/>
      <point x="323.75" y="1279.0"/>
      <point x="404.0" y="1423.25"/>
      <point x="571.75" y="1441.5" type="curve"/>
      <point x="569.5" y="1480.25"/>
      <point x="547.25" y="1533.5"/>
      <point x="529.0" y="1551.5" type="curve"/>
      <point x="292.0" y="1534.75"/>
      <point x="180.0" y="1337.25"/>
      <point x="180.0" y="1141.5" type="curve" smooth="yes"/>
      <point x="180.0" y="1082.75"/>
      <point x="188.5" y="1043.75"/>
      <point x="200.0" y="1006.0" type="curve" smooth="yes"/>
      <point x="211.5" y="967.5"/>
      <point x="221.0" y="930.0"/>
      <point x="221.0" y="873.25" type="curve" smooth="yes"/>
      <point x="221.0" y="759.75"/>
      <point x="160.5" y="678.25"/>
      <point x="44.25" y="657.75" type="curve"/>
      <point x="41.0" y="644.25"/>
      <point x="39.5" y="621.5"/>
      <point x="39.5" y="600.0" type="curve" smooth="yes"/>
      <point x="39.5" y="577.0"/>
      <point x="41.25" y="550.75"/>
      <point x="46.25" y="534.25" type="curve"/>
      <point x="187.25" y="501.75"/>
      <point x="276.75" y="426.25"/>
      <point x="276.75" y="297.75" type="curve" smooth="yes"/>
      <point x="276.75" y="251.0"/>
      <point x="270.0" y="215.75"/>
      <point x="259.5" y="180.75" type="curve" smooth="yes"/>
      <point x="247.5" y="139.5"/>
      <point x="237.75" y="96.25"/>
      <point x="237.75" y="35.25" type="curve" smooth="yes"/>
      <point x="237.75" y="-164.25"/>
      <point x="344.25" y="-363.25"/>
    </contour>
  </outline>
</glyph>
<glyph name="bar" format="2">
  <advance width="487.0"/>
  <unicode hex="007C"/>
  <outline>
    <contour>
      <point x="284.25" y="-558.5" type="curve"/>
      <point x="297.25" y="-463.75"/>
      <point x="302.0" y="-236.75"/>
      <point x="302.0" y="39.5" type="curve" smooth="yes"/>
      <point x="302.0" y="511.5"/>
      <point x="291.0" y="1161.0"/>
      <point x="275.5" y="1532.5" type="curve"/>
      <point x="233.75" y="1532.5"/>
      <point x="168.75" y="1529.5"/>
      <point x="145.25" y="1526.5" type="curve"/>
      <point x="133.0" y="1171.75"/>
      <point x="131.0" y="749.75"/>
      <point x="131.0" y="431.0" type="curve" smooth="yes"/>
      <point x="131.0" y="6.75"/>
      <point x="138.25" y="-329.5"/>
      <point x="148.25" y="-548.75" type="curve"/>
      <point x="185.0" y="-555.75"/>
      <point x="250.0" y="-558.5"/>
    </contour>
  </outline>
</glyph>
<glyph name="braceright" format="2">
  <advance width="614.0"/>
  <unicode hex="007D"/>
  <outline>
    <contour>
      <point x="95.0" y="-384.5" type="curve"/>
      <point x="303.75" y="-361.25"/>
      <point x="411.25" y="-188.25"/>
      <point x="411.25" y="-1.0" type="curve" smooth="yes"/>
      <point x="411.25" y="60.0"/>
      <point x="401.75" y="104.0"/>
      <point x="389.75" y="147.5" type="curve" smooth="yes"/>
      <point x="377.75" y="190.5"/>
      <point x="368.5" y="232.5"/>
      <point x="368.5" y="290.75" type="curve" smooth="yes"/>
      <point x="368.5" y="413.75"/>
      <point x="427.25" y="520.25"/>
      <point x="540.25" y="536.75" type="curve"/>
      <point x="547.0" y="549.75"/>
      <point x="552.25" y="574.0"/>
      <point x="552.25" y="597.75" type="curve" smooth="yes"/>
      <point x="552.25" y="623.25"/>
      <point x="547.5" y="652.0"/>
      <point x="540.25" y="665.75" type="curve"/>
      <point x="414.25" y="683.0"/>
      <point x="316.25" y="736.25"/>
      <point x="316.25" y="858.75" type="curve" smooth="yes"/>
      <point x="316.25" y="899.75"/>
      <point x="325.25" y="952.25"/>
      <point x="339.75" y="1001.0" type="curve" smooth="yes"/>
      <point x="356.0" y="1057.0"/>
      <point x="368.5" y="1111.0"/>
      <point x="368.5" y="1172.5" type="curve" smooth="yes"/>
      <point x="368.5" y="1361.75"/>
      <point x="275.25" y="1549.0"/>
      <point x="92.25" y="1569.75" type="curve"/>
      <point x="74.25" y="1538.75"/>
      <point x="51.25" y="1496.5"/>
      <point x="38.25" y="1462.25" type="curve"/>
      <point x="177.5" y="1437.25"/>
      <point x="230.25" y="1296.0"/>
      <point x="230.25" y="1156.25" type="curve" smooth="yes"/>
      <point x="230.25" y="1088.75"/>
      <point x="218.75" y="1040.75"/>
      <point x="206.25" y="997.5" type="curve" smooth="yes"/>
      <point x="193.75" y="955.0"/>
      <point x="183.75" y="917.75"/>
      <point x="183.75" y="854.0" type="curve" smooth="yes"/>
      <point x="183.75" y="656.5"/>
      <point x="357.25" y="594.75"/>
      <point x="467.5" y="584.25" type="curve"/>
      <point x="470.5" y="600.5" type="line"/>
      <point x="343.0" y="596.75"/>
      <point x="234.5" y="462.25"/>
      <point x="234.5" y="293.25" type="curve" smooth="yes"/>
      <point x="234.5" y="232.0"/>
      <point x="245.5" y="186.0"/>
      <point x="258.0" y="140.75" type="curve" smooth="yes"/>
      <point x="270.25" y="96.75"/>
      <point x="281.25" y="53.75"/>
      <point x="281.25" y="-3.25" type="curve" smooth="yes"/>
      <point x="281.25" y="-140.5"/>
      <point x="194.5" y="-249.75"/>
      <point x="51.75" y="-278.25" type="curve"/>
      <point x="57.0" y="-318.25"/>
      <point x="76.75" y="-362.25"/>
    </contour>
  </outline>
</glyph>
<glyph name="asciitilde" format="2">
  <advance width="1050.0"/>
  <unicode hex="007E"/>
  <outline>
    <contour>
      <point x="121.0" y="730.0" type="curve"/>
      <point x="215.5" y="661.75" type="line"/>
      <point x="242.25" y="728.25"/>
      <point x="297.25" y="802.0"/>
      <point x="378.0" y="802.0" type="curve" smooth="yes"/>
      <point x="423.0" y="802.0"/>
      <point x="461.75" y="763.5"/>
      <point x="503.25" y="720.75" type="curve" smooth="yes"/>
      <point x="554.25" y="667.5"/>
      <point x="612.5" y="608.25"/>
      <point x="697.0" y="608.25" type="curve" smooth="yes"/>
      <point x="826.25" y="608.25"/>
      <point x="900.0" y="735.5"/>
      <point x="915.75" y="791.75" type="curve"/>
      <point x="812.75" y="843.0" type="line"/>
      <point x="792.75" y="777.75"/>
      <point x="752.5" y="722.75"/>
      <point x="691.5" y="722.75" type="curve" smooth="yes"/>
      <point x="630.75" y="722.75"/>
      <point x="588.5" y="765.75"/>
      <point x="546.5" y="811.25" type="curve" smooth="yes"/>
      <point x="500.25" y="861.25"/>
      <point x="449.25" y="911.0"/>
      <point x="370.25" y="911.0" type="curve" smooth="yes"/>
      <point x="247.75" y="911.0"/>
      <point x="149.75" y="810.5"/>
    </contour>
  </outline>
</glyph>
<glyph name="exclamdown" format="2">
  <advance width="708.0"/>
  <unicode hex="00A1"/>
  <outline>
    <contour>
      <point x="247.75" y="693.0" type="curve"/>
      <point x="245.0" y="418.0"/>
      <point x="220.0" y="-211.25"/>
      <point x="195.75" y="-397.75" type="curve"/>
      <point x="372.0" y="-406.25" type="line"/>
      <point x="388.5" y="-204.5"/>
      <point x="390.75" y="366.5"/>
      <point x="384.0" y="685.75" type="curve"/>
      <point x="357.5" y="689.75"/>
      <point x="275.5" y="693.0"/>
    </contour>
    <contour>
      <point x="307.5" y="1092.75" type="curve" smooth="yes"/>
      <point x="226.5" y="1092.75"/>
      <point x="163.5" y="1038.0"/>
      <point x="163.5" y="956.25" type="curve" smooth="yes"/>
      <point x="163.5" y="878.5"/>
      <point x="228.75" y="822.75"/>
      <point x="310.0" y="822.75" type="curve" smooth="yes"/>
      <point x="385.75" y="822.75"/>
      <point x="459.0" y="870.0"/>
      <point x="459.0" y="953.0" type="curve" smooth="yes"/>
      <point x="459.0" y="1033.75"/>
      <point x="401.25" y="1092.75"/>
    </contour>
  </outline>
</glyph>
<glyph name="cent" format="2">
  <advance width="1026.0"/>
  <unicode hex="00A2"/>
  <anchor x="513.0" y="142.25" name="bottom"/>
  <anchor x="513.0" y="1205.25" name="top"/>
  <outline>
    <contour>
      <point x="592.0" y="1339.75" type="curve"/>
      <point x="565.0" y="1016.75"/>
      <point x="428.75" y="378.5"/>
      <point x="336.75" y="20.5" type="curve"/>
      <point x="366.25" y="3.75"/>
      <point x="418.0" y="-10.5"/>
      <point x="456.5" y="-15.75" type="curve"/>
      <point x="520.25" y="212.0"/>
      <point x="662.25" y="1032.0"/>
      <point x="683.25" y="1320.0" type="curve"/>
      <point x="666.0" y="1332.0"/>
      <point x="629.75" y="1339.75"/>
    </contour>
    <component base="c" yOffset="142.25"/>
  </outline>
</glyph>
<glyph name="sterling" format="2">
  <advance width="1140.0"/>
  <unicode hex="00A3"/>
  <outline>
    <contour>
      <point x="168.75" y="586.25" type="curve" smooth="yes"/>
      <point x="349.25" y="586.25"/>
      <point x="665.25" y="604.75"/>
      <point x="753.0" y="630.75" type="curve"/>
      <point x="753.0" y="665.0"/>
      <point x="746.25" y="736.25"/>
      <point x="740.25" y="755.0" type="curve"/>
      <point x="649.25" y="735.5"/>
      <point x="338.5" y="716.0"/>
      <point x="153.25" y="716.0" type="curve" smooth="yes"/>
      <point x="109.5" y="716.0"/>
      <point x="73.25" y="717.0"/>
      <point x="46.25" y="719.25" type="curve"/>
      <point x="43.75" y="592.25" type="line"/>
      <point x="67.0" y="588.25"/>
      <point x="111.25" y="586.25"/>
    </contour>
    <component base="sterlira"/>
  </outline>
</glyph>
<glyph name="currency" format="2">
  <advance width="974.0"/>
  <unicode hex="00A4"/>
  <outline>
    <contour>
      <point x="134.25" y="88.0" type="curve"/>
      <point x="203.5" y="158.0"/>
      <point x="316.5" y="289.25"/>
      <point x="357.0" y="338.75" type="curve"/>
      <point x="257.5" y="410.0" type="line"/>
      <point x="185.0" y="341.0"/>
      <point x="97.75" y="256.75"/>
      <point x="25.75" y="186.75" type="curve"/>
      <point x="51.75" y="160.0"/>
      <point x="106.0" y="111.75"/>
    </contour>
    <contour>
      <point x="803.0" y="115.5" type="curve"/>
      <point x="828.25" y="137.25"/>
      <point x="871.25" y="181.75"/>
      <point x="884.5" y="207.0" type="curve"/>
      <point x="832.75" y="255.0"/>
      <point x="755.0" y="323.25"/>
      <point x="690.75" y="378.75" type="curve"/>
      <point x="604.75" y="311.75" type="line"/>
      <point x="645.0" y="276.25"/>
      <point x="731.0" y="187.5"/>
    </contour>
    <contour>
      <point x="252.75" y="687.5" type="curve"/>
      <point x="337.0" y="773.0" type="line"/>
      <point x="277.25" y="849.75"/>
      <point x="204.5" y="931.75"/>
      <point x="143.75" y="986.75" type="curve"/>
      <point x="104.0" y="960.75"/>
      <point x="54.75" y="915.75"/>
      <point x="39.0" y="899.75" type="curve"/>
      <point x="104.0" y="829.75"/>
      <point x="175.75" y="754.25"/>
    </contour>
    <contour>
      <point x="689.0" y="694.25" type="line"/>
      <point x="753.25" y="744.5"/>
      <point x="842.75" y="821.75"/>
      <point x="912.25" y="891.75" type="curve"/>
      <point x="887.0" y="917.5"/>
      <point x="838.5" y="964.5"/>
      <point x="815.0" y="990.5" type="curve"/>
      <point x="744.5" y="921.0"/>
      <point x="659.75" y="834.75"/>
      <point x="602.5" y="779.5" type="curve"/>
    </contour>
    <component base="degree" xOffset="106.0" yOffset="-656.0"/>
  </outline>
</glyph>
<glyph name="yen" format="2">
  <advance width="1065.0"/>
  <unicode hex="00A5"/>
  <anchor x="598.0" y="0.0" name="bottom"/>
  <anchor x="598.0" y="1291.0" name="top"/>
  <anchor x="85.0" y="1291.0" name="topleft"/>
  <outline>
    <contour>
      <point x="177.0" y="484.0" type="curve"/>
      <point x="290.0" y="486.75"/>
      <point x="864.25" y="495.75"/>
      <point x="958.25" y="495.75" type="curve"/>
      <point x="958.25" y="524.0"/>
      <point x="954.5" y="562.75"/>
      <point x="945.5" y="600.25" type="curve"/>
      <point x="868.25" y="610.25"/>
      <point x="750.75" y="614.5"/>
      <point x="621.0" y="614.5" type="curve" smooth="yes"/>
      <point x="445.5" y="614.5"/>
      <point x="337.5" y="609.5"/>
      <point x="194.5" y="599.25" type="curve"/>
      <point x="189.0" y="577.5"/>
      <point x="177.75" y="520.5"/>
    </contour>
    <contour>
      <point x="961.25" y="262.0" type="curve"/>
      <point x="963.5" y="293.0"/>
      <point x="960.25" y="335.5"/>
      <point x="958.25" y="366.5" type="curve"/>
      <point x="882.75" y="370.25"/>
      <point x="781.0" y="372.5"/>
      <point x="673.75" y="372.5" type="curve" smooth="yes"/>
      <point x="472.25" y="372.5"/>
      <point x="330.25" y="369.25"/>
      <point x="179.5" y="359.75" type="curve"/>
      <point x="171.25" y="327.75"/>
      <point x="165.0" y="292.25"/>
      <point x="165.0" y="260.5" type="curve"/>
      <point x="259.0" y="262.0"/>
      <point x="858.5" y="262.75"/>
    </contour>
    <component base="Y" xOffset="22.5"/>
  </outline>
</glyph>
<glyph name="brokenbar" format="2">
  <advance width="432.0"/>
  <unicode hex="00A6"/>
  <outline>
    <contour>
      <point x="120.0" y="269.75" type="curve"/>
      <point x="120.0" y="103.5"/>
      <point x="134.75" y="-369.25"/>
      <point x="141.5" y="-477.25" type="curve"/>
      <point x="173.75" y="-477.25"/>
      <point x="245.0" y="-473.0"/>
      <point x="267.0" y="-466.25" type="curve"/>
      <point x="262.75" y="-362.75"/>
      <point x="258.0" y="166.0"/>
      <point x="258.0" y="273.0" type="curve"/>
      <point x="218.25" y="273.0"/>
      <point x="161.75" y="272.25"/>
    </contour>
    <contour>
      <point x="125.5" y="698.75" type="curve"/>
      <point x="143.75" y="697.75"/>
      <point x="214.0" y="697.0"/>
      <point x="266.5" y="699.25" type="curve"/>
      <point x="265.5" y="838.0"/>
      <point x="271.25" y="1328.0"/>
      <point x="278.75" y="1488.5" type="curve"/>
      <point x="254.25" y="1498.75"/>
      <point x="197.75" y="1502.0"/>
      <point x="160.25" y="1502.0" type="curve"/>
      <point x="147.0" y="1356.0"/>
      <point x="125.5" y="975.0"/>
    </contour>
  </outline>
</glyph>
<glyph name="section" format="2">
  <advance width="1000.0"/>
  <unicode hex="00A7"/>
  <outline>
    <contour>
      <point x="492.0" y="747.75" type="curve"/>
      <point x="378.5" y="834.5" type="line"/>
      <point x="231.5" y="803.75"/>
      <point x="113.25" y="713.5"/>
      <point x="113.25" y="567.0" type="curve" smooth="yes"/>
      <point x="113.25" y="383.25"/>
      <point x="274.75" y="319.5"/>
      <point x="471.75" y="253.5" type="curve" smooth="yes"/>
      <point x="651.0" y="193.75"/>
      <point x="764.25" y="132.75"/>
      <point x="764.25" y="12.5" type="curve" smooth="yes"/>
      <point x="764.25" y="-123.0"/>
      <point x="648.75" y="-210.0"/>
      <point x="502.5" y="-210.0" type="curve" smooth="yes"/>
      <point x="352.0" y="-210.0"/>
      <point x="183.25" y="-124.5"/>
      <point x="97.0" y="-25.0" type="curve"/>
      <point x="67.75" y="-48.5"/>
      <point x="18.25" y="-113.0"/>
      <point x="-3.75" y="-152.5" type="curve"/>
      <point x="111.25" y="-271.75"/>
      <point x="317.25" y="-348.5"/>
      <point x="490.5" y="-348.5" type="curve" smooth="yes"/>
      <point x="731.5" y="-348.5"/>
      <point x="913.5" y="-211.25"/>
      <point x="913.5" y="19.0" type="curve" smooth="yes"/>
      <point x="913.5" y="195.5"/>
      <point x="775.5" y="290.75"/>
      <point x="536.0" y="369.25" type="curve" smooth="yes"/>
      <point x="393.5" y="417.0"/>
      <point x="265.25" y="472.5"/>
      <point x="265.25" y="573.0" type="curve" smooth="yes"/>
      <point x="265.25" y="685.75"/>
      <point x="384.25" y="741.0"/>
    </contour>
    <contour>
      <point x="630.0" y="305.25" type="curve"/>
      <point x="721.5" y="204.75" type="line"/>
      <point x="846.75" y="263.0"/>
      <point x="938.5" y="374.25"/>
      <point x="938.5" y="524.25" type="curve" smooth="yes"/>
      <point x="938.5" y="700.75"/>
      <point x="775.5" y="788.5"/>
      <point x="536.0" y="867.0" type="curve" smooth="yes"/>
      <point x="393.5" y="914.75"/>
      <point x="282.75" y="974.5"/>
      <point x="282.75" y="1072.5" type="curve" smooth="yes"/>
      <point x="282.75" y="1184.0"/>
      <point x="399.75" y="1221.75"/>
      <point x="521.0" y="1221.75" type="curve" smooth="yes"/>
      <point x="633.5" y="1221.75"/>
      <point x="740.75" y="1178.0"/>
      <point x="808.25" y="1137.75" type="curve"/>
      <point x="836.0" y="1172.5"/>
      <point x="863.25" y="1235.75"/>
      <point x="871.25" y="1261.75" type="curve"/>
      <point x="803.0" y="1307.5"/>
      <point x="670.25" y="1356.25"/>
      <point x="508.5" y="1356.25" type="curve" smooth="yes"/>
      <point x="307.25" y="1356.25"/>
      <point x="135.75" y="1259.5"/>
      <point x="135.75" y="1072.25" type="curve" smooth="yes"/>
      <point x="135.75" y="885.5"/>
      <point x="274.75" y="818.75"/>
      <point x="471.75" y="751.25" type="curve" smooth="yes"/>
      <point x="651.0" y="690.0"/>
      <point x="789.25" y="638.25"/>
      <point x="789.25" y="517.75" type="curve" smooth="yes"/>
      <point x="789.25" y="416.75"/>
      <point x="719.5" y="339.5"/>
    </contour>
  </outline>
</glyph>
<glyph name="copyright" format="2">
  <advance width="1745.0"/>
  <unicode hex="00A9"/>
  <outline>
    <contour>
      <point x="844.25" y="-68.0" type="curve" smooth="yes"/>
      <point x="1306.25" y="-68.0"/>
      <point x="1597.0" y="204.75"/>
      <point x="1597.0" y="643.25" type="curve" smooth="yes"/>
      <point x="1597.0" y="1092.5"/>
      <point x="1321.5" y="1350.0"/>
      <point x="869.5" y="1350.0" type="curve" smooth="yes"/>
      <point x="374.25" y="1350.0"/>
      <point x="68.25" y="1081.25"/>
      <point x="68.25" y="582.0" type="curve" smooth="yes"/>
      <point x="68.25" y="170.25"/>
      <point x="352.25" y="-68.0"/>
    </contour>
    <contour>
      <point x="833.5" y="56.75" type="curve" smooth="yes"/>
      <point x="495.25" y="56.75"/>
      <point x="224.0" y="234.25"/>
      <point x="224.0" y="606.5" type="curve" smooth="yes"/>
      <point x="224.0" y="980.5"/>
      <point x="475.5" y="1231.0"/>
      <point x="849.0" y="1231.0" type="curve" smooth="yes"/>
      <point x="1230.0" y="1231.0"/>
      <point x="1443.5" y="1026.25"/>
      <point x="1443.5" y="617.75" type="curve" smooth="yes"/>
      <point x="1443.5" y="266.25"/>
      <point x="1181.0" y="56.75"/>
    </contour>
    <contour>
      <point x="822.25" y="282.5" type="curve" smooth="yes"/>
      <point x="975.25" y="282.5"/>
      <point x="1135.25" y="356.5"/>
      <point x="1202.0" y="493.5" type="curve"/>
      <point x="1177.75" y="517.25"/>
      <point x="1131.75" y="550.75"/>
      <point x="1098.75" y="568.0" type="curve"/>
      <point x="1051.75" y="498.0"/>
      <point x="974.0" y="411.75"/>
      <point x="846.0" y="411.75" type="curve" smooth="yes"/>
      <point x="757.5" y="411.75"/>
      <point x="613.5" y="436.5"/>
      <point x="613.5" y="616.5" type="curve" smooth="yes"/>
      <point x="613.5" y="777.75"/>
      <point x="739.0" y="866.5"/>
      <point x="861.75" y="866.5" type="curve" smooth="yes"/>
      <point x="963.25" y="866.5"/>
      <point x="1040.25" y="832.75"/>
      <point x="1062.5" y="800.5" type="curve"/>
      <point x="1084.25" y="824.75"/>
      <point x="1114.75" y="862.75"/>
      <point x="1138.25" y="899.5" type="curve"/>
      <point x="1087.0" y="958.5"/>
      <point x="1005.0" y="987.5"/>
      <point x="892.25" y="987.5" type="curve" smooth="yes"/>
      <point x="654.0" y="987.5"/>
      <point x="484.0" y="825.75"/>
      <point x="484.0" y="605.75" type="curve" smooth="yes"/>
      <point x="484.0" y="406.0"/>
      <point x="612.0" y="282.5"/>
    </contour>
  </outline>
</glyph>
<glyph name="ordfeminine" format="2">
  <advance width="750.0"/>
  <unicode hex="00AA"/>
  <outline>
    <contour>
      <point x="562.0" y="712.5" type="curve"/>
      <point x="579.0" y="709.5"/>
      <point x="617.25" y="707.5"/>
      <point x="644.25" y="707.5" type="curve" smooth="yes"/>
      <point x="655.0" y="707.5"/>
      <point x="678.0" y="708.25"/>
      <point x="682.0" y="709.25" type="curve"/>
      <point x="695.0" y="808.25"/>
      <point x="704.25" y="910.75"/>
      <point x="704.25" y="1003.0" type="curve" smooth="yes"/>
      <point x="704.25" y="1258.75"/>
      <point x="618.5" y="1420.25"/>
      <point x="360.0" y="1420.25" type="curve" smooth="yes"/>
      <point x="214.0" y="1420.25"/>
      <point x="102.0" y="1363.75"/>
      <point x="40.75" y="1290.5" type="curve"/>
      <point x="123.0" y="1212.75" type="line"/>
      <point x="163.0" y="1267.75"/>
      <point x="245.5" y="1312.75"/>
      <point x="352.75" y="1312.75" type="curve" smooth="yes"/>
      <point x="454.25" y="1312.75"/>
      <point x="525.0" y="1272.0"/>
      <point x="559.0" y="1200.0" type="curve" smooth="yes"/>
      <point x="571.0" y="1177.0"/>
      <point x="579.5" y="1149.0"/>
      <point x="582.5" y="1120.5" type="curve"/>
      <point x="563.0" y="1130.75"/>
      <point x="425.25" y="1148.75"/>
      <point x="364.75" y="1148.75" type="curve" smooth="yes"/>
      <point x="191.75" y="1148.75"/>
      <point x="38.0" y="1078.25"/>
      <point x="38.0" y="928.25" type="curve" smooth="yes"/>
      <point x="38.0" y="779.25"/>
      <point x="163.25" y="719.25"/>
      <point x="330.25" y="719.25" type="curve" smooth="yes"/>
      <point x="420.75" y="719.25"/>
      <point x="538.5" y="763.75"/>
      <point x="576.25" y="803.25" type="curve"/>
      <point x="573.0" y="781.25"/>
      <point x="564.0" y="726.5"/>
    </contour>
    <contour>
      <point x="360.25" y="817.75" type="curve" smooth="yes"/>
      <point x="245.75" y="817.75"/>
      <point x="166.25" y="843.75"/>
      <point x="166.25" y="938.5" type="curve" smooth="yes"/>
      <point x="166.25" y="1016.25"/>
      <point x="268.5" y="1060.75"/>
      <point x="373.0" y="1060.75" type="curve" smooth="yes"/>
      <point x="451.25" y="1060.75"/>
      <point x="559.75" y="1044.75"/>
      <point x="583.75" y="1038.0" type="curve"/>
      <point x="585.5" y="1021.0"/>
      <point x="586.25" y="1002.5"/>
      <point x="586.25" y="985.75" type="curve" smooth="yes"/>
      <point x="586.25" y="964.25"/>
      <point x="584.75" y="941.0"/>
      <point x="582.5" y="908.0" type="curve"/>
      <point x="532.75" y="856.25"/>
      <point x="450.5" y="817.75"/>
    </contour>
  </outline>
</glyph>
<glyph name="guillemetleft" format="2">
  <advance width="1214.0"/>
  <unicode hex="00AB"/>
  <outline>
    <contour>
      <point x="1021.75" y="1135.0" type="curve"/>
      <point x="830.5" y="971.5"/>
      <point x="653.75" y="778.25"/>
      <point x="479.75" y="574.0" type="curve"/>
      <point x="1039.75" y="165.75" type="line"/>
      <point x="1056.5" y="203.0"/>
      <point x="1075.75" y="258.0"/>
      <point x="1076.5" y="295.5" type="curve"/>
      <point x="1022.75" y="340.5"/>
      <point x="798.0" y="493.0"/>
      <point x="643.75" y="596.0" type="curve"/>
      <point x="1108.0" y="1036.25" type="line"/>
      <point x="1093.0" y="1063.5"/>
      <point x="1058.75" y="1109.25"/>
    </contour>
    <contour>
      <point x="530.75" y="1120.0" type="curve"/>
      <point x="350.75" y="928.0"/>
      <point x="184.75" y="729.0"/>
      <point x="24.75" y="525.25" type="curve"/>
      <point x="217.75" y="330.25"/>
      <point x="428.5" y="157.5"/>
      <point x="651.75" y="0.0" type="curve"/>
      <point x="670.0" y="34.75"/>
      <point x="696.5" y="91.5"/>
      <point x="701.5" y="121.0" type="curve"/>
      <point x="671.5" y="138.0"/>
      <point x="386.75" y="367.0"/>
      <point x="180.5" y="535.25" type="curve"/>
      <point x="641.0" y="1037.0" type="line"/>
      <point x="609.5" y="1062.5"/>
      <point x="558.0" y="1102.0"/>
    </contour>
  </outline>
</glyph>
<glyph name="logicalnot" format="2">
  <advance width="1000.0"/>
  <unicode hex="00AC"/>
  <outline>
    <contour>
      <point x="880.5" y="776.25" type="curve"/>
      <point x="772.75" y="776.25"/>
      <point x="214.0" y="760.75"/>
      <point x="78.5" y="753.5" type="curve"/>
      <point x="78.5" y="718.75"/>
      <point x="80.75" y="661.75"/>
      <point x="83.0" y="629.0" type="curve"/>
      <point x="186.25" y="633.0"/>
      <point x="574.5" y="645.25"/>
      <point x="763.5" y="649.0" type="curve"/>
      <point x="762.0" y="591.0"/>
      <point x="753.0" y="372.75"/>
      <point x="747.0" y="300.0" type="curve"/>
      <point x="777.5" y="299.25"/>
      <point x="834.0" y="299.75"/>
      <point x="859.5" y="303.5" type="curve"/>
      <point x="870.0" y="482.75"/>
      <point x="877.0" y="722.0"/>
    </contour>
  </outline>
</glyph>
<glyph name="softhyphen" format="2">
  <advance width="698.75"/>
  <unicode hex="00AD"/>
  <outline>
    <contour>
      <point x="642.0" y="758.5" type="curve"/>
      <point x="592.0" y="763.5"/>
      <point x="508.0" y="764.75"/>
      <point x="405.0" y="764.75" type="curve" smooth="yes"/>
      <point x="265.25" y="764.75"/>
      <point x="144.75" y="752.75"/>
      <point x="56.25" y="741.5" type="curve"/>
      <point x="53.75" y="713.0"/>
      <point x="50.75" y="643.25"/>
      <point x="53.0" y="607.25" type="curve"/>
      <point x="182.75" y="618.5"/>
      <point x="485.25" y="628.25"/>
      <point x="645.5" y="628.25" type="curve"/>
      <point x="646.25" y="662.5"/>
      <point x="646.0" y="718.25"/>
    </contour>
  </outline>
</glyph>
<glyph name="registered" format="2">
  <advance width="1400.0"/>
  <unicode hex="00AE"/>
  <outline>
    <contour>
      <point x="732.25" y="268.0" type="curve" smooth="yes"/>
      <point x="1027.75" y="268.0"/>
      <point x="1271.25" y="403.5"/>
      <point x="1271.25" y="798.0" type="curve" smooth="yes"/>
      <point x="1271.25" y="1148.25"/>
      <point x="1050.25" y="1321.0"/>
      <point x="730.75" y="1321.0" type="curve" smooth="yes"/>
      <point x="399.75" y="1321.0"/>
      <point x="150.5" y="1116.25"/>
      <point x="150.5" y="764.25" type="curve" smooth="yes"/>
      <point x="150.5" y="480.5"/>
      <point x="341.75" y="268.0"/>
    </contour>
    <contour>
      <point x="723.0" y="370.5" type="curve" smooth="yes"/>
      <point x="490.5" y="370.5"/>
      <point x="279.0" y="487.5"/>
      <point x="279.0" y="774.0" type="curve" smooth="yes"/>
      <point x="279.0" y="1048.0"/>
      <point x="470.0" y="1220.75"/>
      <point x="726.25" y="1220.75" type="curve" smooth="yes"/>
      <point x="1028.5" y="1220.75"/>
      <point x="1142.75" y="1015.5"/>
      <point x="1142.75" y="787.75" type="curve" smooth="yes"/>
      <point x="1142.75" y="482.25"/>
      <point x="952.25" y="370.5"/>
    </contour>
    <contour>
      <point x="672.25" y="516.25" type="curve"/>
      <point x="672.25" y="565.5"/>
      <point x="672.0" y="740.25"/>
      <point x="671.5" y="778.0" type="curve"/>
      <point x="677.75" y="778.25"/>
      <point x="691.25" y="780.0"/>
      <point x="701.25" y="782.25" type="curve"/>
      <point x="750.0" y="691.75"/>
      <point x="793.75" y="600.0"/>
      <point x="844.75" y="516.25" type="curve"/>
      <point x="888.25" y="516.25"/>
      <point x="929.5" y="524.25"/>
      <point x="952.75" y="535.0" type="curve"/>
      <point x="929.5" y="576.0"/>
      <point x="835.0" y="738.0"/>
      <point x="790.5" y="803.25" type="curve"/>
      <point x="869.0" y="823.25"/>
      <point x="917.75" y="874.25"/>
      <point x="917.75" y="958.0" type="curve" smooth="yes"/>
      <point x="917.75" y="1056.25"/>
      <point x="813.5" y="1077.5"/>
      <point x="715.0" y="1077.5" type="curve" smooth="yes"/>
      <point x="648.25" y="1077.5"/>
      <point x="587.25" y="1064.75"/>
      <point x="560.5" y="1050.25" type="curve"/>
      <point x="561.75" y="947.0"/>
      <point x="562.5" y="656.5"/>
      <point x="562.5" y="533.25" type="curve"/>
      <point x="593.75" y="521.75"/>
      <point x="633.25" y="516.25"/>
    </contour>
    <contour>
      <point x="666.75" y="854.25" type="curve"/>
      <point x="666.75" y="871.5"/>
      <point x="660.5" y="974.75"/>
      <point x="658.75" y="990.0" type="curve"/>
      <point x="675.75" y="992.75"/>
      <point x="703.5" y="995.25"/>
      <point x="730.75" y="995.25" type="curve" smooth="yes"/>
      <point x="776.0" y="995.25"/>
      <point x="820.75" y="986.75"/>
      <point x="820.75" y="948.25" type="curve" smooth="yes"/>
      <point x="820.75" y="880.5"/>
      <point x="759.75" y="854.25"/>
    </contour>
  </outline>
</glyph>
<glyph name="degree" format="2">
  <advance width="814.0"/>
  <unicode hex="00B0"/>
  <outline>
    <contour>
      <point x="369.25" y="901.25" type="curve" smooth="yes"/>
      <point x="553.0" y="901.25"/>
      <point x="707.75" y="1046.5"/>
      <point x="707.75" y="1224.5" type="curve" smooth="yes"/>
      <point x="707.75" y="1384.25"/>
      <point x="563.25" y="1498.75"/>
      <point x="382.5" y="1498.75" type="curve" smooth="yes"/>
      <point x="205.0" y="1498.75"/>
      <point x="49.5" y="1373.5"/>
      <point x="49.5" y="1201.5" type="curve" smooth="yes"/>
      <point x="49.5" y="1034.25"/>
      <point x="189.0" y="901.25"/>
    </contour>
    <contour>
      <point x="369.5" y="1019.75" type="curve" smooth="yes"/>
      <point x="254.75" y="1019.75"/>
      <point x="186.25" y="1094.5"/>
      <point x="186.25" y="1212.25" type="curve" smooth="yes"/>
      <point x="186.25" y="1307.5"/>
      <point x="282.75" y="1380.25"/>
      <point x="370.75" y="1380.25" type="curve" smooth="yes"/>
      <point x="509.5" y="1380.25"/>
      <point x="570.5" y="1298.75"/>
      <point x="570.5" y="1198.0" type="curve" smooth="yes"/>
      <point x="570.5" y="1101.25"/>
      <point x="476.25" y="1019.75"/>
    </contour>
  </outline>
</glyph>
<glyph name="twosuperior" format="2">
  <advance width="742.25"/>
  <unicode hex="00B2"/>
  <outline>
    <contour>
      <point x="625.5" y="637.0" type="curve"/>
      <point x="533.0" y="633.0"/>
      <point x="296.75" y="618.0"/>
      <point x="234.0" y="610.75" type="curve"/>
      <point x="258.25" y="630.5"/>
      <point x="384.75" y="759.0"/>
      <point x="457.25" y="844.75" type="curve" smooth="yes"/>
      <point x="544.75" y="948.0"/>
      <point x="602.75" y="1050.5"/>
      <point x="602.75" y="1137.5" type="curve" smooth="yes"/>
      <point x="602.75" y="1245.5"/>
      <point x="513.0" y="1315.75"/>
      <point x="383.0" y="1315.75" type="curve" smooth="yes"/>
      <point x="231.5" y="1315.75"/>
      <point x="102.0" y="1233.0"/>
      <point x="38.5" y="1110.75" type="curve"/>
      <point x="59.5" y="1091.0"/>
      <point x="109.25" y="1054.5"/>
      <point x="136.25" y="1042.0" type="curve"/>
      <point x="177.5" y="1125.0"/>
      <point x="254.0" y="1193.5"/>
      <point x="366.25" y="1193.5" type="curve" smooth="yes"/>
      <point x="430.75" y="1193.5"/>
      <point x="486.0" y="1166.75"/>
      <point x="486.0" y="1105.25" type="curve" smooth="yes"/>
      <point x="486.0" y="1024.5"/>
      <point x="376.25" y="903.75"/>
      <point x="284.5" y="813.5" type="curve" smooth="yes"/>
      <point x="201.25" y="733.25"/>
      <point x="111.0" y="644.25"/>
      <point x="56.0" y="599.0" type="curve"/>
      <point x="58.25" y="560.75"/>
      <point x="72.25" y="502.75"/>
      <point x="75.5" y="490.0" type="curve"/>
      <point x="626.25" y="516.0" type="line"/>
      <point x="628.5" y="533.5"/>
      <point x="628.25" y="606.25"/>
    </contour>
  </outline>
</glyph>
<glyph name="threesuperior" format="2">
  <advance width="783.5"/>
  <unicode hex="00B3"/>
  <outline>
    <contour>
      <point x="349.75" y="498.0" type="curve" smooth="yes"/>
      <point x="528.75" y="498.0"/>
      <point x="666.75" y="587.0"/>
      <point x="666.75" y="734.5" type="curve" smooth="yes"/>
      <point x="666.75" y="865.0"/>
      <point x="547.5" y="915.5"/>
      <point x="425.5" y="921.75" type="curve"/>
      <point x="513.75" y="939.5"/>
      <point x="617.0" y="1001.25"/>
      <point x="617.0" y="1099.25" type="curve" smooth="yes"/>
      <point x="617.0" y="1219.5"/>
      <point x="504.5" y="1286.75"/>
      <point x="361.75" y="1286.75" type="curve" smooth="yes"/>
      <point x="197.0" y="1286.75"/>
      <point x="76.75" y="1207.25"/>
      <point x="26.0" y="1164.25" type="curve"/>
      <point x="40.0" y="1149.5"/>
      <point x="94.25" y="1105.5"/>
      <point x="116.0" y="1088.0" type="curve"/>
      <point x="162.75" y="1134.75"/>
      <point x="255.5" y="1178.5"/>
      <point x="354.5" y="1178.5" type="curve" smooth="yes"/>
      <point x="449.0" y="1178.5"/>
      <point x="494.5" y="1134.75"/>
      <point x="494.5" y="1078.0" type="curve" smooth="yes"/>
      <point x="494.5" y="991.0"/>
      <point x="341.5" y="947.25"/>
      <point x="193.0" y="947.25" type="curve"/>
      <point x="193.0" y="919.75"/>
      <point x="198.0" y="874.75"/>
      <point x="203.75" y="857.5" type="curve"/>
      <point x="423.25" y="857.5"/>
      <point x="543.75" y="841.75"/>
      <point x="543.75" y="730.25" type="curve" smooth="yes"/>
      <point x="543.75" y="647.5"/>
      <point x="461.75" y="598.5"/>
      <point x="347.75" y="598.5" type="curve" smooth="yes"/>
      <point x="245.0" y="598.5"/>
      <point x="165.75" y="641.75"/>
      <point x="145.0" y="702.0" type="curve"/>
      <point x="113.0" y="689.0"/>
      <point x="66.75" y="661.25"/>
      <point x="39.0" y="641.75" type="curve"/>
      <point x="71.0" y="557.75"/>
      <point x="199.5" y="498.0"/>
    </contour>
  </outline>
</glyph>
<glyph name="micro" format="2">
  <advance width="1178.0"/>
  <unicode hex="00B5"/>
  <anchor x="584.0" y="0.0" name="bottom"/>
  <anchor x="763.5" y="0.0" name="ogonek"/>
  <anchor x="584.0" y="1063.0" name="top"/>
  <anchor x="952.25" y="930.5" name="topright"/>
  <outline>
    <contour>
      <point x="149.5" y="-384.5" type="curve"/>
      <point x="198.0" y="-384.5"/>
      <point x="259.5" y="-380.75"/>
      <point x="302.75" y="-372.75" type="curve"/>
      <point x="296.5" y="-309.75"/>
      <point x="285.5" y="-120.0"/>
      <point x="281.75" y="21.0" type="curve" smooth="yes"/>
      <point x="275.75" y="253.0"/>
      <point x="272.75" y="420.0"/>
      <point x="275.5" y="670.25" type="curve"/>
      <point x="113.0" y="658.75" type="line"/>
      <point x="113.0" y="295.0"/>
      <point x="135.0" y="-196.75"/>
    </contour>
    <component base="u"/>
  </outline>
</glyph>
<glyph name="paragraph" format="2">
  <advance width="1210.0"/>
  <unicode hex="00B6"/>
  <outline>
    <contour>
      <point x="979.5" y="-348.5" type="curve"/>
      <point x="1005.25" y="-50.75"/>
      <point x="1044.75" y="576.25"/>
      <point x="1044.75" y="934.25" type="curve" smooth="yes"/>
      <point x="1044.75" y="1050.75"/>
      <point x="1041.0" y="1149.75"/>
      <point x="1032.5" y="1214.5" type="curve"/>
      <point x="897.25" y="1273.75"/>
      <point x="663.5" y="1314.0"/>
      <point x="500.25" y="1314.0" type="curve" smooth="yes"/>
      <point x="250.25" y="1314.0"/>
      <point x="133.25" y="1211.75"/>
      <point x="133.25" y="982.25" type="curve" smooth="yes"/>
      <point x="133.25" y="724.75"/>
      <point x="298.25" y="592.25"/>
      <point x="574.5" y="592.25" type="curve" smooth="yes"/>
      <point x="599.75" y="592.25"/>
      <point x="627.25" y="595.25"/>
      <point x="652.0" y="600.25" type="curve"/>
      <point x="646.25" y="526.5"/>
      <point x="613.5" y="-166.5"/>
      <point x="611.5" y="-315.5" type="curve"/>
      <point x="634.75" y="-316.0"/>
      <point x="714.0" y="-317.25"/>
      <point x="748.5" y="-315.75" type="curve"/>
      <point x="750.0" y="-269.75"/>
      <point x="796.25" y="629.5"/>
      <point x="803.25" y="1149.0" type="curve"/>
      <point x="838.75" y="1144.5"/>
      <point x="872.0" y="1137.25"/>
      <point x="904.25" y="1128.75" type="curve"/>
      <point x="906.75" y="1082.5"/>
      <point x="907.75" y="1031.75"/>
      <point x="907.75" y="975.75" type="curve" smooth="yes"/>
      <point x="907.75" y="615.5"/>
      <point x="876.75" y="-56.5"/>
      <point x="857.0" y="-334.25" type="curve"/>
      <point x="885.25" y="-339.25"/>
      <point x="946.25" y="-348.5"/>
    </contour>
  </outline>
</glyph>
<glyph name="periodcentered" format="2">
  <advance width="450.0"/>
  <unicode hex="00B7"/>
  <outline>
    <contour>
      <point x="198.75" y="729.0" type="curve" smooth="yes"/>
      <point x="261.25" y="729.0"/>
      <point x="316.75" y="779.0"/>
      <point x="316.75" y="843.0" type="curve" smooth="yes"/>
      <point x="316.75" y="901.75"/>
      <point x="276.5" y="955.0"/>
      <point x="209.0" y="955.0" type="curve" smooth="yes"/>
      <point x="141.75" y="955.0"/>
      <point x="84.75" y="908.25"/>
      <point x="84.75" y="843.0" type="curve" smooth="yes"/>
      <point x="84.75" y="779.0"/>
      <point x="116.5" y="729.0"/>
    </contour>
  </outline>
</glyph>
<glyph name="onesuperior" format="2">
  <advance width="540.0"/>
  <unicode hex="00B9"/>
  <outline>
    <contour>
      <point x="307.75" y="615.5" type="curve"/>
      <point x="310.75" y="676.75"/>
      <point x="312.25" y="748.25"/>
      <point x="312.25" y="818.75" type="curve" smooth="yes"/>
      <point x="312.25" y="1039.0"/>
      <point x="309.75" y="1241.25"/>
      <point x="307.5" y="1261.75" type="curve"/>
      <point x="283.75" y="1266.25"/>
      <point x="235.0" y="1268.25"/>
      <point x="211.0" y="1268.25" type="curve"/>
      <point x="159.0" y="1226.25"/>
      <point x="46.25" y="1122.5"/>
      <point x="25.5" y="1100.5" type="curve"/>
      <point x="38.0" y="1072.75"/>
      <point x="58.25" y="1037.25"/>
      <point x="73.5" y="1014.25" type="curve"/>
      <point x="96.0" y="1036.75"/>
      <point x="186.0" y="1122.0"/>
      <point x="201.75" y="1134.5" type="curve"/>
      <point x="201.75" y="1069.0"/>
      <point x="200.25" y="665.0"/>
      <point x="198.75" y="611.75" type="curve"/>
      <point x="177.25" y="610.25"/>
      <point x="89.25" y="602.5"/>
      <point x="61.5" y="597.75" type="curve"/>
      <point x="59.25" y="570.25"/>
      <point x="59.25" y="520.5"/>
      <point x="60.0" y="493.0" type="curve"/>
      <point x="109.75" y="498.75"/>
      <point x="360.0" y="505.0"/>
      <point x="419.25" y="505.0" type="curve"/>
      <point x="423.0" y="526.75"/>
      <point x="426.5" y="589.5"/>
      <point x="427.25" y="610.0" type="curve"/>
      <point x="400.0" y="613.0"/>
      <point x="340.25" y="615.5"/>
    </contour>
  </outline>
</glyph>
